<svg id="Réteg_13_másolat" data-name="Réteg 13 másolat" xmlns="http://www.w3.org/2000/svg" viewBox="0 0 1235.6 230"><defs><style>.cls-1{fill:#545454;}.cls-2{fill:#7bba25;}.cls-3{fill:#9b9b9b;}.cls-4,.cls-5{fill:#fff;}.cls-5{fill-rule:evenodd;}.cls-6{fill:#dd3a3a;}.cls-7{fill:#f4f4f4;}.cls-8{fill:#666;}.cls-9{fill:#ed7d18;}.cls-10{fill:#18b8c9;}.cls-11{fill:#7c7c7c;}</style></defs><g id="Honlap_másolat" data-name="Honlap másolat"><path class="cls-1" d="M265.8,194h3.8v13.2h12.7V194h3.8v32h-3.8V211.2H269.6V226h-3.8Z" transform="translate(-6.8 -9)"/><path class="cls-1" d="M318.9,209.8c0,8.8-4,16.6-12.1,16.6S295,219.2,295,210s4.4-16.4,12.1-16.4S318.9,200.3,318.9,209.8Zm-19.9.1c0,6.7,2.7,12.5,8,12.5s8-5.9,8-12.5-2.6-12.4-8-12.4S299,203.1,299,209.9Z" transform="translate(-6.8 -9)"/><path class="cls-1" d="M327.8,226V194h5c3.5,7.4,11.1,22.8,12.5,26.2h.1c-.3-3.9-.3-9.1-.3-14.3V194h3.6v32H344c-3.2-6.8-11.2-23.5-12.7-27.1h-.1c.2,3.5.2,9.1.2,14.9V226Z" transform="translate(-6.8 -9)"/><path class="cls-1" d="M359.1,194h3.8v28h13.3l-.5,4H359.1Z" transform="translate(-6.8 -9)"/><path class="cls-1" d="M388.7,216.8l-2.6,9.2h-3.8l9-32H396l9.4,32h-4l-2.7-9.2Zm9.1-4c-2.3-8.1-3.6-12.5-4.2-15h0c-.7,2.7-2.1,8.1-4,15Z" transform="translate(-6.8 -9)"/><path class="cls-1" d="M413,194h9.9c5,0,8.5,3.6,8.5,9.4s-3.7,9.7-8.7,9.7h-5.9V226H413Zm3.8,15.1h5.6c3.3,0,5.1-1.9,5.1-5.6s-2.1-5.6-5-5.6h-5.7Z" transform="translate(-6.8 -9)"/><path class="cls-1" d="M439.7,194h3.8v15.4l12-15.4h4.6l-10.8,13.5L460.6,226h-4.5l-9.5-15.5-3.1,3.6V226h-3.8Z" transform="translate(-6.8 -9)"/><path class="cls-1" d="M483.8,211.3H471.2V222h13.9l-.5,4H467.5V194h16.9v4H471.2v9.2h12.6Zm-.1-26.8-6.3,6.4h-3.7l5.4-6.4Z" transform="translate(-6.8 -9)"/><path class="cls-1" d="M495.5,217c.7,3.7,2.8,5.6,6.3,5.6s5.3-2.1,5.3-5-1.2-4.8-6.2-6.3-8.2-4.5-8.2-9,2.9-8.7,8.7-8.7,8.7,4.4,9.1,8.7h-3.9c-.4-2.7-1.7-5-5.4-5s-4.6,1.6-4.6,4.5,1.4,4,5.8,5.3c7.3,2.3,8.7,5.8,8.7,10s-3.2,9.3-9.5,9.3-9.4-4.3-9.9-9.4Z" transform="translate(-6.8 -9)"/><path class="cls-1" d="M517.8,222.4,533.1,198H518.6v-4h18.8v3.9L522.5,222H538l-.5,4H517.8Z" transform="translate(-6.8 -9)"/><path class="cls-1" d="M555.8,184.9l-6.4,6.3h-3.6l5.3-6.3Zm-6.2,9.1v32h-3.8V194Z" transform="translate(-6.8 -9)"/><path class="cls-1" d="M565.3,198h-8.1v-4h20.1v4h-8.1v28h-3.9Z" transform="translate(-6.8 -9)"/><path class="cls-1" d="M601,211.3H588.3V222h13.9l-.5,4H584.6V194h16.9v4H588.3v9.2H601Zm-.2-26.8-6.3,6.4h-3.7l5.4-6.4Z" transform="translate(-6.8 -9)"/><path class="cls-1" d="M612.7,217c.7,3.7,2.7,5.6,6.3,5.6s5.3-2.1,5.3-5-1.3-4.8-6.3-6.3-8.2-4.5-8.2-9,2.9-8.7,8.7-8.7,8.8,4.4,9.1,8.7h-3.8c-.5-2.7-1.8-5-5.4-5s-4.7,1.6-4.7,4.5,1.4,4,5.8,5.3c7.3,2.3,8.7,5.8,8.7,10s-3.1,9.3-9.5,9.3-9.3-4.3-9.9-9.4Z" transform="translate(-6.8 -9)"/><path class="cls-1" d="M633.7,231.3a42.3,42.3,0,0,0,2.7-12.3H640a31.2,31.2,0,0,1-3.4,12.3Z" transform="translate(-6.8 -9)"/><path class="cls-1" d="M683.4,212.7c0-5.9,0-11.9.1-15.3h-.1c-1.1,5.4-5,18.5-7.8,28.6h-3.4c-2.1-8.3-6.1-23.1-7.2-28.7h-.1c.2,3.7.2,10.7.2,16.2V226h-3.5V194h5.7c2.7,9.6,6,22,6.8,26.2h.1c.6-3.3,4.5-16.8,7.4-26.2h5.5v32h-3.7Z" transform="translate(-6.8 -9)"/><path class="cls-1" d="M701.1,216.8l-2.6,9.2h-3.8l9-32h4.7l9.4,32h-4l-2.7-9.2Zm9.1-4c-2.3-8.1-3.6-12.5-4.2-15h0c-.7,2.7-2.1,8.1-4,15Z" transform="translate(-6.8 -9)"/><path class="cls-1" d="M729.1,212.1V226h-3.7V194h10.2c5.3,0,8.2,3.6,8.2,8.6s-1.9,6.7-4.3,7.5c1.9.7,3.8,2.6,3.8,8.2v1.4c0,2.2-.1,4.9.3,6.3H740c-.5-1.4-.5-3.9-.5-7v-.6c0-4.3-1-6.3-5.4-6.3Zm0-3.9h5.4c3.7,0,5.4-1.8,5.4-5.2s-1.7-5.1-5.1-5.1h-5.7Z" transform="translate(-6.8 -9)"/><path class="cls-1" d="M753,194h3.8v15.4l12-15.4h4.6l-10.8,13.5L774,226h-4.6l-9.5-15.5-3.1,3.6V226H753Z" transform="translate(-6.8 -9)"/><path class="cls-1" d="M797.1,211.3H784.5V222h13.9l-.5,4H780.8V194h16.9v4H784.5v9.2h12.6Z" transform="translate(-6.8 -9)"/><path class="cls-1" d="M812.8,198h-8.2v-4h20.2v4h-8.2v28h-3.8Z" transform="translate(-6.8 -9)"/><path class="cls-1" d="M835.9,194v32h-3.8V194Z" transform="translate(-6.8 -9)"/><path class="cls-1" d="M846.3,226V194h5c3.6,7.4,11.1,22.8,12.5,26.2h.1c-.3-3.9-.3-9.1-.3-14.3V194h3.6v32h-4.7c-3.2-6.8-11.2-23.5-12.7-27.1h-.1c.2,3.5.2,9.1.2,14.9V226Z" transform="translate(-6.8 -9)"/><path class="cls-1" d="M898.5,226h-2.9a18.2,18.2,0,0,1-.3-4.1c-1.2,2.3-3.5,4.5-7.9,4.5-7.4,0-11.3-7-11.3-16.1s4.2-16.7,12-16.7c6.1,0,9.8,4.1,10.5,9.8h-3.8c-.8-3.3-2.7-6-6.8-6-5.8,0-8,5.9-8,12.7s2.3,12.4,7.9,12.4,6.9-4.7,6.9-9.6v-.3h-6.9v-4h10.6Z" transform="translate(-6.8 -9)"/><path class="cls-1" d="M937.4,211.3H924.8V222h13.8l-.5,4H921V194h17v4H924.8v9.2h12.6Zm-.1-26.8-6.4,6.4h-3.6l5.3-6.4Z" transform="translate(-6.8 -9)"/><path class="cls-1" d="M949.1,217c.7,3.7,2.7,5.6,6.3,5.6s5.3-2.1,5.3-5-1.3-4.8-6.2-6.3-8.3-4.5-8.3-9,2.9-8.7,8.7-8.7,8.8,4.4,9.1,8.7h-3.8c-.4-2.7-1.8-5-5.4-5s-4.6,1.6-4.6,4.5,1.3,4,5.8,5.3c7.3,2.3,8.6,5.8,8.6,10s-3.1,9.3-9.5,9.3-9.3-4.3-9.8-9.4Z" transform="translate(-6.8 -9)"/><path class="cls-1" d="M1008,212.7c0-5.9,0-11.9.1-15.3h-.1c-1.1,5.4-5,18.5-7.8,28.6h-3.3c-2.2-8.3-6.2-23.1-7.3-28.7h-.1c.2,3.7.3,10.7.3,16.2V226h-3.6V194h5.7c2.7,9.6,6,22,6.9,26.2h0c.6-3.3,4.6-16.8,7.4-26.2h5.5v32H1008Z" transform="translate(-6.8 -9)"/><path class="cls-1" d="M1025.7,194v19.2c0,7.3,3.2,9.3,6.4,9.3s6.2-2.2,6.2-9.3V194h3.8v19c0,10.4-4.7,13.4-10.1,13.4s-10.1-3.2-10.1-13.2V194Z" transform="translate(-6.8 -9)"/><path class="cls-1" d="M1052.3,194h3.8v28h13.3l-.5,4h-16.6Z" transform="translate(-6.8 -9)"/><path class="cls-1" d="M1078.1,198h-8.2v-4h20.2v4h-8.2v28h-3.8Z" transform="translate(-6.8 -9)"/><path class="cls-1" d="M1101.2,194v32h-3.8V194Z" transform="translate(-6.8 -9)"/><path class="cls-1" d="M1133.4,212.7c0-5.9.1-11.9.2-15.3h-.1c-1.2,5.4-5,18.5-7.8,28.6h-3.4c-2.1-8.3-6.1-23.1-7.3-28.7h-.1c.2,3.7.3,10.7.3,16.2V226h-3.5V194h5.6c2.8,9.6,6,22,6.9,26.2h.1c.6-3.3,4.5-16.8,7.3-26.2h5.5v32h-3.7Z" transform="translate(-6.8 -9)"/><path class="cls-1" d="M1163.9,211.3h-12.6V222h13.9l-.5,4h-17.1V194h16.9v4h-13.2v9.2h12.6Zm-.1-26.8-6.3,6.4h-3.7l5.4-6.4Z" transform="translate(-6.8 -9)"/><path class="cls-1" d="M1173.3,194h9.4c7.2,0,12.1,6.1,12.1,15.7S1190,226,1182.5,226h-9.2Zm3.8,28h5.2c5.8,0,8.5-5.2,8.5-12.3s-2.5-11.7-8.5-11.7h-5.2Z" transform="translate(-6.8 -9)"/><path class="cls-1" d="M1207.5,194v32h-3.8V194Z" transform="translate(-6.8 -9)"/><path class="cls-1" d="M1221.6,216.8,1219,226h-3.8l9-32h4.7l9.4,32h-4l-2.7-9.2Zm9.1-4c-2.3-8.1-3.7-12.5-4.2-15h-.1c-.6,2.7-2,8.1-3.9,15Z" transform="translate(-6.8 -9)"/></g><g id="NetProfil_másolat" data-name="NetProfil másolat"><path class="cls-2" d="M328.1,161.6,354.4,26.8h37.9c0,53,0,67.8-.2,72.8h1.1c2.4-19.2,6.6-50,9.6-65l1.5-7.8h32.2L410.1,161.6H371.5c1.8-58.8,1.8-72,1.8-76.8H372c-2,15.6-7.5,51-11,69.2l-1.5,7.6Z" transform="translate(-6.8 -9)"/><path class="cls-2" d="M465.5,115.8c-1.6,8.2-2.9,13.4-2.9,16.6s1.3,6,3.1,6,4.8-2,6.8-11.2h34.4c-3.8,15-10.8,36.2-42.3,36.2s-39.4-20.8-31.3-59.6c7.6-36,19.5-51.2,47.1-51.2s37.6,17.8,32,45.8l-3.5,17.4ZM478,95c1.5-6.4,2.4-10.6,2.4-13.6s-.3-4.8-3.1-4.8-4.6,3.2-7.7,18.4Z" transform="translate(-6.8 -9)"/><path class="cls-2" d="M525.9,54.2h10.3l4.6-23.4H575l-4.6,23.4h11.2l-5.7,28.6H564.7l-8.8,44.8c-1.3,6.8.5,7.8,5.3,7.8.9,0,3.1-.4,4.4-.6L560.5,161c-6.1,1.8-11.6,2-18.1,2-20.9,0-27-8.2-22.8-29.2l10.1-51h-9.5Z" transform="translate(-6.8 -9)"/><path class="cls-1" d="M597.4,26.8h37.4c27.2,0,39.9,17.6,34,49S647.1,116,622.3,116h-7.2l-8.8,45.6H571.1Zm23,61.4h3.2c6.8,0,8.6-4.6,11-18S635.9,53,630,53h-2.6Z" transform="translate(-6.8 -9)"/><path class="cls-1" d="M676.9,91c3.7-19,5.7-30.2,6.8-36.8h34.1c-.2,3.2-1.7,12.4-2.8,18.4,6.1-14.2,14.4-20,25.8-20l-8.1,41.2c-17.7-1-22.5,5.4-25.6,22l-8.8,45.8H663.1Z" transform="translate(-6.8 -9)"/><path class="cls-1" d="M817,109.4c-8.3,41-19.5,54-47.7,54s-39.7-14.8-30.7-58.6c8.6-41.4,23.9-52.2,46.9-52.2C813.6,52.6,824.7,71.2,817,109.4Zm-43.8-1.6c-4.8,25.4-4.8,29.2-.8,29.2s5-4.4,9.6-28.4c5.1-26.8,5.3-29.6.9-29.6S777.9,82.8,773.2,107.8Z" transform="translate(-6.8 -9)"/><path class="cls-1" d="M821,161.6l15.3-78.8h-9.2l5.7-28.6H842l.3-2.4c4.1-20.4,10.9-32.4,33.5-32.4,7.2,0,13.6.8,16.2,1.6l-4.8,24a15.1,15.1,0,0,0-3.1-.2c-3.7,0-5.3,1.4-6.2,5.8l-.8,3.6h10l-5.7,28.6h-10l-15.3,78.8Z" transform="translate(-6.8 -9)"/><path class="cls-1" d="M895.3,54.2h35.2l-21,107.4H874.4Zm6.5-33h35.1L931.8,47H896.6Z" transform="translate(-6.8 -9)"/><path class="cls-1" d="M922.6,161.6,950,21.2h35.1L957.7,161.6Z" transform="translate(-6.8 -9)"/><path class="cls-1" d="M1023.2,26.8h34.4L1047.1,81c9.2-21.8,16.2-39.4,22.5-54.2h39.7l-32,55.8,5.2,79h-34.8l.2-50.6-9.6,15-7,35.6H996.9Z" transform="translate(-6.8 -9)"/><path class="cls-1" d="M1090.9,161.6l15.3-78.8H1097l5.7-28.6h9.2l.4-2.4c4-20.4,10.8-32.4,33.5-32.4,7.1,0,13.6.8,16.1,1.6l-4.7,24a16.7,16.7,0,0,0-3.2-.2c-3.6,0-5.3,1.4-6.2,5.8l-.8,3.6h10l-5.7,28.6h-10l-15.2,78.8Z" transform="translate(-6.8 -9)"/><path class="cls-1" d="M1155.9,54.2h10.3l4.6-23.4H1205l-4.6,23.4h11.2l-5.7,28.6h-11.2l-8.8,44.8c-1.3,6.8.5,7.8,5.3,7.8.9,0,3.1-.4,4.4-.6l-5.1,26.2c-6.1,1.8-11.6,2-18.1,2-20.9,0-27-8.2-22.8-29.2l10.1-51h-9.5Z" transform="translate(-6.8 -9)"/><path class="cls-1" d="M1200.4,161.6l8.1-42h33.9l-8.1,42Z" transform="translate(-6.8 -9)"/></g><g id="B_r_másolat" data-name="B_r másolat"><path class="cls-1" d="M153.9,71.2,120.2,93.1c-.2,11.2-9.6,20.2-21.2,20.2a23,23,0,0,1-7.9-1.4L41.4,144l28,41.1,50.1-32.4c.4-11,9.7-19.9,21.2-19.9a20.8,20.8,0,0,1,7.5,1.4L182,112.3Z" transform="translate(-6.8 -9)"/></g><g id="B_l_másolat" data-name="B_l másolat"><path class="cls-1" d="M233.2,94.4A21.5,21.5,0,0,1,219,99.7a21.1,21.1,0,0,1-20.2-14.5l-24.9-6.8L161.2,123l22.2,5.9a21.4,21.4,0,0,1,14-5.2,21.1,21.1,0,0,1,20.2,14.5l32.3,8.7,12.6-44.5Z" transform="translate(-6.8 -9)"/></g><g id="potyy_másolat" data-name="potyy másolat"><ellipse class="cls-3" cx="90.7" cy="85" rx="10.2" ry="9.9"/><ellipse class="cls-3" cx="190.7" cy="136.2" rx="6.8" ry="6.6"/><ellipse class="cls-3" cx="276.3" cy="53.9" rx="7.7" ry="7.5"/><ellipse class="cls-3" cx="113.1" cy="204.5" rx="6.8" ry="6.6"/><ellipse class="cls-3" cx="154.1" cy="21.8" rx="8.2" ry="8"/><ellipse class="cls-3" cx="231.4" cy="176.1" rx="8.5" ry="8.3"/><ellipse class="cls-3" cx="137.6" cy="145.4" rx="10.6" ry="10.3"/></g><g id="C6_másolat" data-name="C6 másolat"><g id="_1" data-name="1"><ellipse class="cls-1" cx="56.5" cy="150.8" rx="56.5" ry="55.1"/><path class="cls-2" d="M63.3,206.8c-26.6,0-48.3-21.1-48.3-47s21.7-47,48.3-47,48.3,21.1,48.3,47S89.9,206.8,63.3,206.8Z" transform="translate(-6.8 -9)"/><path class="cls-4" d="M63.3,114.3c25.8,0,46.8,20.4,46.8,45.5s-21,45.5-46.8,45.5-46.8-20.4-46.8-45.5,21-45.5,46.8-45.5m0-3c-27.5,0-49.8,21.7-49.8,48.5s22.3,48.5,49.8,48.5,49.8-21.7,49.8-48.5-22.3-48.5-49.8-48.5Z" transform="translate(-6.8 -9)"/><path class="cls-5" d="M92.3,127.1a4.1,4.1,0,0,1,4.1,4V171a3.6,3.6,0,0,1-.6,2,4,4,0,0,1,1.9,1.4l3,3.7c.8.9,1.8,1.8,1.8,3s-2.3,2.9-3.9,2.9H28.1c-1.6,0-3.7-1.2-3.7-2.9s2.2-3.4,2.9-4.4l1.8-2.1a4.9,4.9,0,0,1,2.1-1.6,3.7,3.7,0,0,1-.6-2.1V131a4,4,0,0,1,4.1-3.9Zm0,3.6H34.6a.3.3,0,0,0-.3.3v40c0,.2.1.4.3.4H92.3a.4.4,0,0,0,.4-.4V131c0-.2-.2-.3-.4-.3ZM32.4,178.3c-.7,0-1-.5-.6-1.1a9.2,9.2,0,0,1,1.3-2.1,2.8,2.8,0,0,1,1.2-.4H92.7a3,3,0,0,1,1.1.4,15.3,15.3,0,0,1,1.4,2.1c.3.6.1,1.1-.6,1.1h-20l.3,1.5a.6.6,0,0,1-.6.6H53c-.3,0-.7-.3-.6-.6l.3-1.5Z" transform="translate(-6.8 -9)"/><path class="cls-4" d="M58.3,161.2l-.7-7.2a2.7,2.7,0,0,0-2-2.4l-2-.8a22.6,22.6,0,0,1-1.9,4.9l-.5-3.6-.6-.4-.6.4-.5,3.6a41.4,41.4,0,0,1-1.9-4.9l-2,.8a2.6,2.6,0,0,0-1.9,2.4l-.8,7.2Zm-7.7-11.7c3.5,0,6-9.3,0-9.3s-3.5,9.3,0,9.3Z" transform="translate(-6.8 -9)"/><path class="cls-5" d="M81.8,136h7a1.1,1.1,0,0,1,1.1,1.1v31.3a1.1,1.1,0,0,1-1.1,1.1H45.9a1.1,1.1,0,0,1-1.1-1.1v-2.6h-7a1,1,0,0,1-1.1-1V133.4a1,1,0,0,1,1.1-1h43a.9.9,0,0,1,1,1V136Zm-17.1,8.6a1,1,0,0,1-1.1-1,1.1,1.1,0,0,1,1.1-1.1h8a1.1,1.1,0,0,1,1.1,1.1,1,1,0,0,1-1.1,1Zm0,5.3a1.1,1.1,0,0,1-1.1-1.1,1,1,0,0,1,1.1-1H75.4a1,1,0,0,1,1.1,1,1.1,1.1,0,0,1-1.1,1.1Zm0,3.6a1,1,0,0,1-1.1-1,1.1,1.1,0,0,1,1.1-1.1h8a1.1,1.1,0,0,1,1.1,1.1,1,1,0,0,1-1.1,1Zm0,3.7a1.1,1.1,0,0,1-1.1-1.1,1.1,1.1,0,0,1,1.1-1H75.4a1.1,1.1,0,0,1,1.1,1,1.1,1.1,0,0,1-1.1,1.1Zm0,3.7a1.1,1.1,0,0,1-1.1-1.1,1,1,0,0,1,1.1-1H70a1,1,0,0,1,1.1,1,1.1,1.1,0,0,1-1.1,1.1Zm-17.8,4.9v1.6H87.8V141.2h-6v23.6a.9.9,0,0,1-1,1Zm-8-28.2H79.7v26.1H38.9V137.6Zm47.8,0a1,1,0,0,1,1.1,1,1.1,1.1,0,0,1-1.1,1.1H84a1.1,1.1,0,0,1-1.1-1.1,1,1,0,0,1,1.1-1Zm-8.1-3.7a1.1,1.1,0,0,1,1.1,1.1,1.1,1.1,0,0,1-1.1,1H75.9a1.1,1.1,0,0,1-1-1,1.1,1.1,0,0,1,1-1.1ZM40,136a1.1,1.1,0,0,1-1.1-1,1.1,1.1,0,0,1,1.1-1.1h5.3a1.1,1.1,0,0,1,1.1,1.1,1.1,1.1,0,0,1-1.1,1Z" transform="translate(-6.8 -9)"/></g></g><g id="C5_másolat" data-name="C5 másolat"><g id="_2" data-name="2"><ellipse class="cls-1" cx="176" cy="190.6" rx="40.5" ry="39.4"/><ellipse class="cls-6" cx="176.1" cy="190.9" rx="34.7" ry="33.8"/><path class="cls-4" d="M182.9,167.6c18.3,0,33.2,14.5,33.2,32.3s-14.9,32.3-33.2,32.3-33.2-14.5-33.2-32.3,14.9-32.3,33.2-32.3m0-3c-20,0-36.2,15.8-36.2,35.3s16.2,35.3,36.2,35.3,36.2-15.8,36.2-35.3-16.2-35.3-36.2-35.3Z" transform="translate(-6.8 -9)"/><path class="cls-4" d="M170.8,176.7l36.8,20.7a3,3,0,0,1,0,5.4l-36.8,20.7a3.2,3.2,0,0,1-4.8-2.6V179.4A3.2,3.2,0,0,1,170.8,176.7Z" transform="translate(-6.8 -9)"/><path class="cls-7" d="M207.6,197.4l-11.3-6.3L166,217.3a226.7,226.7,0,0,1,42.9-18.5A3.5,3.5,0,0,0,207.6,197.4Z" transform="translate(-6.8 -9)"/><path class="cls-8" d="M206.5,188.6l-2.7,1.5a1.4,1.4,0,0,1-1.9-.5l-4.7-7.9a1.4,1.4,0,0,1,.6-1.9l2.6-1.5-2.6-4.5L166,191.7v25.6l43.2-24.2Z" transform="translate(-6.8 -9)"/><path class="cls-4" d="M199.1,192.7l-9.4,5.3a1.5,1.5,0,0,1-2-.5l-4.6-7.7a1.5,1.5,0,0,1,.5-2l9.4-5.3a1.6,1.6,0,0,1,2.1.5l4.6,7.7A1.5,1.5,0,0,1,199.1,192.7Z" transform="translate(-6.8 -9)"/><path class="cls-4" d="M184.9,200.7l-9.3,5.3a1.6,1.6,0,0,1-2.1-.6l-4.6-7.7a1.5,1.5,0,0,1,.6-2l9.4-5.3a1.5,1.5,0,0,1,2,.6l4.6,7.7A1.4,1.4,0,0,1,184.9,200.7Z" transform="translate(-6.8 -9)"/><path class="cls-4" d="M168.3,194.2l-1.3.7-.8-1.3,1.3-.8Zm2.9-3.4-1.4.8.8,1.3,1.3-.8Zm3.6-2-1.4.7.8,1.4,1.3-.8Zm3.6-2-1.4.7.8,1.3,1.4-.7Zm3.6-2.1-1.4.8.8,1.3,1.4-.8Zm3.6-2-1.4.8.8,1.3,1.4-.8Zm3.6-2-1.4.7.8,1.4,1.4-.8Zm7.2-4.1-1.3.8.7,1.3,1.4-.8Zm-3.6,2-1.3.8.7,1.3,1.4-.7Z" transform="translate(-6.8 -9)"/><path class="cls-4" d="M173.5,210.9l-1.4.8-.8-1.3,1.4-.8Zm2.8-3.3-1.4.8.8,1.3,1.4-.8Zm3.6-2-1.4.7.8,1.4,1.4-.8Zm3.6-2.1-1.4.8.8,1.3,1.4-.7Zm3.6-2-1.3.8.7,1.3,1.4-.8Zm3.6-2-1.3.7.8,1.4,1.3-.8Zm3.6-2.1-1.3.8.8,1.3,1.3-.7Zm3.6-2-1.3.8.8,1.3,1.3-.8Zm7.3-4-1.4.7.8,1.3,1.4-.7Zm-3.6,2-1.4.7.8,1.4,1.3-.8Zm-32.5,18.3-1.4.7.8,1.3,1.4-.7Z" transform="translate(-6.8 -9)"/><path class="cls-4" d="M171.4,206.7l-4.7-7.8a1.1,1.1,0,0,0-.7-.6v13l4.8-2.7A1.4,1.4,0,0,0,171.4,206.7Z" transform="translate(-6.8 -9)"/></g></g><g id="C4_másolat" data-name="C4 másolat"><g id="_3" data-name="3"><ellipse class="cls-1" cx="258.7" cy="120.7" rx="48.5" ry="47.3"/><path class="cls-9" d="M265.5,170c-22.9,0-41.5-18.1-41.5-40.3s18.6-40.4,41.5-40.4,41.4,18.1,41.4,40.4S288.3,170,265.5,170Z" transform="translate(-6.8 -9)"/><path class="cls-4" d="M265.5,90.8c22,0,39.9,17.5,39.9,38.9s-17.9,38.8-39.9,38.8-40-17.4-40-38.8,17.9-38.9,40-38.9m0-3c-23.8,0-43,18.8-43,41.9s19.2,41.8,43,41.8,42.9-18.7,42.9-41.8-19.2-41.9-42.9-41.9Z" transform="translate(-6.8 -9)"/><path class="cls-4" d="M274.5,149.8H256.3L236.4,147a1.5,1.5,0,0,1-1.3-1.4V109a1.4,1.4,0,0,1,1.4-1.4h58.1A1.4,1.4,0,0,1,296,109v36.6a1.5,1.5,0,0,1-1.3,1.4l-20,2.8ZM256,160.9a1.4,1.4,0,0,1,0-2.8h5.8v-6.5h7.6v6.5h5.7a1.4,1.4,0,0,1,0,2.8Zm37.2-50.5H238v33.8h55.2V110.4Z" transform="translate(-6.8 -9)"/><path class="cls-5" d="M241.7,141.7h9v-6.8a6.6,6.6,0,0,1-1.9-.9l-7.1-5.7v13.4Zm42.2-22.8-10.8,8.6a3,3,0,0,1-3.6,0l-4.4-3.6-10.8,8.6a3,3,0,0,1-3.6,0l-9.5-7.5,3.7-2.9,7.6,6.1,10.8-8.7a3.3,3.3,0,0,1,3.8,0l4.3,3.6,8.9-7.1-4.5-3.5h12.6v10l-4.5-3.6Zm-4.5,22.8h9V126.1l-5-3.9-4,3.2v16.3Zm-12.6,0h9V128.3l-.8.7a6.1,6.1,0,0,1-7.4-.1l-.8-.6v13.4Zm-12.6,0h9.1V128.3l-7.2,5.7a5.6,5.6,0,0,1-1.9.9v6.8Z" transform="translate(-6.8 -9)"/></g></g><g id="C3_másolat" data-name="C3 másolat"><g id="_4" data-name="4"><ellipse class="cls-1" cx="153.6" cy="87.6" rx="40.4" ry="39.3"/><path class="cls-10" d="M160.3,129.8c-18.8,0-34.1-14.9-34.1-33.2s15.3-33.2,34.1-33.2,34.1,14.9,34.1,33.2S179.1,129.8,160.3,129.8Z" transform="translate(-6.8 -9)"/><path class="cls-4" d="M160.3,64.9c18,0,32.6,14.2,32.6,31.7s-14.6,31.7-32.6,31.7-32.6-14.2-32.6-31.7,14.6-31.7,32.6-31.7m0-3c-19.6,0-35.6,15.5-35.6,34.7s16,34.7,35.6,34.7,35.6-15.6,35.6-34.7S180,61.9,160.3,61.9Z" transform="translate(-6.8 -9)"/><path class="cls-5" d="M148.1,98.9a1,1,0,0,1-1-1.1,1,1,0,0,1,1-1h19.6a1.1,1.1,0,0,1,1.1,1,1.1,1.1,0,0,1-1.1,1.1Zm0-4.1a1,1,0,0,1-1-1,1,1,0,0,1,1-1.1h19.6a1.1,1.1,0,0,1,1.1,1.1,1.1,1.1,0,0,1-1.1,1Zm0,8.1a.9.9,0,0,1-1-1,1,1,0,0,1,1-1h7.4a1,1,0,0,1,1,1,.9.9,0,0,1-1,1Zm0-12.2a.9.9,0,0,1-1-1,1,1,0,0,1,1-1.1h19.6a1.1,1.1,0,0,1,1.1,1.1,1,1,0,0,1-1.1,1Zm12.3-4.1a1,1,0,1,1,0-2h7.3a1,1,0,1,1,0,2Z" transform="translate(-6.8 -9)"/><path class="cls-4" d="M174.3,75.2H150.2v7.5a1,1,0,0,1-1,1h-7.7v31h32.8v-5.6l2.1-.4v7a.9.9,0,0,1-1,1h-35a1,1,0,0,1-1-1v-33h0a.7.7,0,0,1,.1-.5h.2l8.7-8.5h27a.9.9,0,0,1,1,1V99.1l-2.1.4V75.2Zm4,26.3-4.2.8a17.3,17.3,0,0,1-3.2.3,15.1,15.1,0,0,0-3,.2,15.8,15.8,0,0,0-3.1.9l-2.9,1.1-.4.2a.6.6,0,0,1-.5-.6.5.5,0,0,1,.5-.5l3-1.2a29.9,29.9,0,0,1,3.2-.9,16.7,16.7,0,0,1,3.2-.2,10.2,10.2,0,0,0,3-.3l4.2-.8.2,1Zm.1.4,1,4.4-23.7,4.9-1-4.4,23.7-4.9Zm-24.2,5-4.7,2.9a.4.4,0,0,0-.2.4q0,.1.3.3l5.6.8c-.4-1.5-.7-3-1-4.4Zm25.2-4.7,2.6-.5c2.6-.6,2.8,2.9.8,3.3l-2.7.6-.7-3.4ZM148.1,76.6,143,81.7h5.1V76.6Z" transform="translate(-6.8 -9)"/></g></g><g id="C2_másolat" data-name="C2 másolat"><g id="_5" data-name="5"><ellipse class="cls-1" cx="222.4" cy="38.2" rx="34.1" ry="33.3"/><path class="cls-4" d="M229.2,75.2c-15.9,0-28.8-12.5-28.8-28s12.9-28,28.8-28S258,31.8,258,47.2,245.1,75.2,229.2,75.2Z" transform="translate(-6.8 -9)"/><path class="cls-4" d="M229.2,20.2c15.3,0,27.8,12.1,27.8,27s-12.5,27-27.8,27-27.8-12.1-27.8-27,12.5-27,27.8-27m0-2c-16.5,0-29.8,13-29.8,29s13.3,29,29.8,29,29.8-13,29.8-29-13.3-29-29.8-29Z" transform="translate(-6.8 -9)"/><g id="icon:1"><path class="cls-11" d="M246.7,58.5a5.1,5.1,0,0,1-5.2,5.1v.5a5.6,5.6,0,0,0,5.7-5.6Zm0,0a5.1,5.1,0,0,1-5.2,5.1v.5a5.6,5.6,0,0,0,5.7-5.6Zm0,0a5.1,5.1,0,0,1-5.2,5.1v.5a5.6,5.6,0,0,0,5.7-5.6Zm0,0a5.1,5.1,0,0,1-5.2,5.1v.5a5.6,5.6,0,0,0,5.7-5.6Zm0,0a5.1,5.1,0,0,1-5.2,5.1v.5a5.6,5.6,0,0,0,5.7-5.6Zm0,0a5.1,5.1,0,0,1-5.2,5.1v.5a5.6,5.6,0,0,0,5.7-5.6Zm-33.6,0h-.5a5.7,5.7,0,0,0,5.7,5.6v-.5A5.2,5.2,0,0,1,213.1,58.5Zm0,0h-.5a5.7,5.7,0,0,0,5.7,5.6v-.5A5.2,5.2,0,0,1,213.1,58.5Zm0,0h-.5a5.7,5.7,0,0,0,5.7,5.6v-.5A5.2,5.2,0,0,1,213.1,58.5Zm0,0h-.5a5.7,5.7,0,0,0,5.7,5.6v-.5A5.2,5.2,0,0,1,213.1,58.5Zm0,0h-.5a5.7,5.7,0,0,0,5.7,5.6v-.5A5.2,5.2,0,0,1,213.1,58.5Zm0,0h-.5a5.7,5.7,0,0,0,5.7,5.6v-.5A5.2,5.2,0,0,1,213.1,58.5Zm0,0h-.5a5.7,5.7,0,0,0,5.7,5.6v-.5A5.2,5.2,0,0,1,213.1,58.5Zm0,0h-.5a5.7,5.7,0,0,0,5.7,5.6v-.5A5.2,5.2,0,0,1,213.1,58.5Zm28.4-28.1v.5a5.1,5.1,0,0,1,5.2,5.1h.5A5.7,5.7,0,0,0,241.5,30.4Zm0,0v.5a5.1,5.1,0,0,1,5.2,5.1h.5A5.7,5.7,0,0,0,241.5,30.4Zm0,0v.5a5.1,5.1,0,0,1,5.2,5.1h.5A5.7,5.7,0,0,0,241.5,30.4Zm0,0v.5a5.1,5.1,0,0,1,5.2,5.1h.5A5.7,5.7,0,0,0,241.5,30.4Zm0,0v.5a5.1,5.1,0,0,1,5.2,5.1h.5A5.7,5.7,0,0,0,241.5,30.4Zm-28.9,5.7h.5a5.1,5.1,0,0,1,5.2-5.1v-.5A5.7,5.7,0,0,0,212.6,36.1Zm0,0h.5a5.1,5.1,0,0,1,5.2-5.1v-.5A5.7,5.7,0,0,0,212.6,36.1Zm34.1,22.4a5.1,5.1,0,0,1-5.2,5.1v.5a5.6,5.6,0,0,0,5.7-5.6Zm-33.6,0h-.5a5.7,5.7,0,0,0,5.7,5.6v-.5A5.2,5.2,0,0,1,213.1,58.5Zm-.5-22.4h.5a5.1,5.1,0,0,1,5.2-5.1v-.5A5.7,5.7,0,0,0,212.6,36.1Zm28.9-5.7v.5a5.1,5.1,0,0,1,5.2,5.1h.5A5.7,5.7,0,0,0,241.5,30.4Zm0,20a7.9,7.9,0,0,0-4.8,1.6l-.7-.9a5.8,5.8,0,0,1,0-7.6l.8-.9a8.5,8.5,0,0,0,4.7,1.5,8.1,8.1,0,1,0-8.1-8.1,8.3,8.3,0,0,0,1.2,4.4l-1,.8a5.9,5.9,0,0,1-7.7,0l-.8-.7a8.5,8.5,0,0,0,1.4-4.4,8.2,8.2,0,0,0-8.2-8.1,8,8,0,0,0-8.1,8,8.1,8.1,0,0,0,8.1,8.1,8.9,8.9,0,0,0,4.6-1.4l.7.8a5.8,5.8,0,0,1,0,7.6l-.6.7a8.6,8.6,0,0,0-4.7-1.4,8.1,8.1,0,1,0,8.2,8.1,7.7,7.7,0,0,0-1.4-4.4l.8-.7a5.9,5.9,0,0,1,7.7,0l1,.9a7.4,7.4,0,0,0-1.2,4.2,8.2,8.2,0,1,0,8.1-8.1Zm0-20.9a6.6,6.6,0,1,1,0,13.1,6.5,6.5,0,0,1-3.7-1.1l2.6-3h.7a2.5,2.5,0,1,0-2.4-2.4,1.7,1.7,0,0,0,.1.7l-3,2.5a6.3,6.3,0,0,1-.9-3.3A6.6,6.6,0,0,1,241.5,29.5ZM224,39.5l-3.2-2.6c0-.3.1-.5.1-.8a2.5,2.5,0,1,0-2.5,2.5l.8-.2,2.7,3.2a6.3,6.3,0,0,1-3.6,1A6.6,6.6,0,1,1,225,36,6.8,6.8,0,0,1,224,39.5Zm1,19a6.7,6.7,0,1,1-6.7-6.6A6.7,6.7,0,0,1,222,53l-2.8,3.2h-.8a2.5,2.5,0,0,0,0,4.9,2.5,2.5,0,0,0,2.5-2.5,1.7,1.7,0,0,0-.1-.7L224,55A6.8,6.8,0,0,1,225,58.5ZM241.5,65a6.6,6.6,0,0,1-6.6-6.6,6.9,6.9,0,0,1,.8-3.2l3.1,2.6a1.7,1.7,0,0,0-.1.7,2.5,2.5,0,1,0,2.4-2.4h-.7l-2.7-3.1a6.5,6.5,0,0,1,3.8-1.3,6.6,6.6,0,1,1,0,13.2Z" transform="translate(-6.8 -9)"/></g></g></g><g id="C1_másolat" data-name="C1 másolat"><ellipse class="cls-1" cx="85" cy="34.2" rx="34.2" ry="34.2"/><ellipse class="cls-4" cx="85" cy="34.2" rx="30.2" ry="30.2"/><path class="cls-2" d="M68.7,60.8l6.7-34H85c0,13.4,0,17.1-.1,18.4h.3c.6-4.9,1.7-12.7,2.4-16.5l.4-1.9h8.1l-6.6,34H79.7c.5-14.8.5-18.2.5-19.4h-.4c-.5,4-1.9,12.9-2.7,17.5l-.4,1.9Z" transform="translate(-6.8 -9)"/><path class="cls-1" d="M99.7,26.8h9.5c6.9,0,10.1,4.4,8.6,12.3S112.3,49.3,106,49.3h-1.8L102,60.8H93.1Zm5.9,15.5h.7c1.8,0,2.2-1.2,2.8-4.6s.4-4.3-1.1-4.3h-.7Z" transform="translate(-6.8 -9)"/></g></svg>