<?xml version="1.0" encoding="UTF-8"?>
<svg id="Réteg_13_másolat" data-name="Réteg 13 másolat" xmlns="http://www.w3.org/2000/svg" viewBox="0 0 914.3 144">
  <defs>
    <style>
      .cls-1 {
        fill: #fff;
        stroke-width: 0px;
      }
    </style>
  </defs>
  <g id="NetProfil_másolat" data-name="NetProfil másolat">
    <path class="cls-1" d="M0,142.2L26.3,7.4h37.9c0,53,0,67.8-.2,72.8h1.1c2.4-19.2,6.6-50,9.6-65l1.5-7.8h32.2l-26.4,134.8h-38.6c1.8-58.8,1.8-72,1.8-76.8h-1.3c-2,15.6-7.5,51-11,69.2l-1.5,7.6H0Z"/>
    <path class="cls-1" d="M137.4,96.4c-1.6,8.2-2.9,13.4-2.9,16.6s1.3,6,3.1,6,4.8-2,6.8-11.2h34.4c-3.8,15-10.8,36.2-42.3,36.2s-39.4-20.8-31.3-59.6c7.6-36,19.5-51.2,47.1-51.2s37.6,17.8,32,45.8l-3.5,17.4h-43.4ZM149.9,75.6c1.5-6.4,2.4-10.6,2.4-13.6s-.3-4.8-3.1-4.8-4.6,3.2-7.7,18.4h8.4Z"/>
    <path class="cls-1" d="M197.8,34.8h10.3l4.6-23.4h34.2l-4.6,23.4h11.2l-5.7,28.6h-11.2l-8.8,44.8c-1.3,6.8.5,7.8,5.3,7.8.9,0,3.1-.4,4.4-.6l-5.1,26.2c-6.1,1.8-11.6,2-18.1,2-20.9,0-27-8.2-22.8-29.2l10.1-51h-9.5l5.7-28.6Z"/>
    <path class="cls-1" d="M269.3,7.4h37.4c27.2,0,39.9,17.6,34,49s-21.7,40.2-46.5,40.2h-7.2l-8.8,45.6h-35.2L269.3,7.4ZM292.3,68.8h3.2c6.8,0,8.6-4.6,11-18s1.3-17.2-4.6-17.2h-2.6l-7,35.2Z"/>
    <path class="cls-1" d="M348.8,71.6c3.7-19,5.7-30.2,6.8-36.8h34.1c-.2,3.2-1.7,12.4-2.8,18.4,6.1-14.2,14.4-20,25.8-20l-8.1,41.2c-17.7-1-22.5,5.4-25.6,22l-8.8,45.8h-35.2l13.8-70.6Z"/>
    <path class="cls-1" d="M488.9,90c-8.3,41-19.5,54-47.7,54s-39.7-14.8-30.7-58.6c8.6-41.4,23.9-52.2,46.9-52.2,28.1,0,39.2,18.6,31.5,56.8ZM445.1,88.4c-4.8,25.4-4.8,29.2-.8,29.2s5-4.4,9.6-28.4c5.1-26.8,5.3-29.6.9-29.6s-5,3.8-9.7,28.8Z"/>
    <path class="cls-1" d="M492.9,142.2l15.3-78.8h-9.2l5.7-28.6h9.2l.3-2.4c4.1-20.4,10.9-32.4,33.5-32.4,7.2,0,13.6.8,16.2,1.6l-4.8,24c-1.02-.17-2.06-.24-3.1-.2-3.7,0-5.3,1.4-6.2,5.8l-.8,3.6h10l-5.7,28.6h-10l-15.3,78.8h-35.1Z"/>
    <path class="cls-1" d="M567.2,34.8h35.2l-21,107.4h-35.1l20.9-107.4ZM573.7,1.8h35.1l-5.1,25.8h-35.2l5.2-25.8Z"/>
    <path class="cls-1" d="M594.5,142.2L621.9,1.8h35.1l-27.4,140.4h-35.1Z"/>
    <path class="cls-1" d="M695.1,7.4h34.4l-10.5,54.2c9.2-21.8,16.2-39.4,22.5-54.2h39.7l-32,55.8,5.2,79h-34.8l.2-50.6-9.6,15-7,35.6h-34.4l26.3-134.8Z"/>
    <path class="cls-1" d="M762.8,142.2l15.3-78.8h-9.2l5.7-28.6h9.2l.4-2.4c4-20.4,10.8-32.4,33.5-32.4,7.1,0,13.6.8,16.1,1.6l-4.7,24c-1.06-.17-2.13-.24-3.2-.2-3.6,0-5.3,1.4-6.2,5.8l-.8,3.6h10l-5.7,28.6h-10l-15.2,78.8h-35.2Z"/>
    <path class="cls-1" d="M827.8,34.8h10.3l4.6-23.4h34.2l-4.6,23.4h11.2l-5.7,28.6h-11.2l-8.8,44.8c-1.3,6.8.5,7.8,5.3,7.8.9,0,3.1-.4,4.4-.6l-5.1,26.2c-6.1,1.8-11.6,2-18.1,2-20.9,0-27-8.2-22.8-29.2l10.1-51h-9.5l5.7-28.6Z"/>
    <path class="cls-1" d="M872.3,142.2l8.1-42h33.9l-8.1,42h-33.9Z"/>
  </g>
</svg>