<?xml version="1.0" encoding="UTF-8"?>
<svg xmlns="http://www.w3.org/2000/svg" viewBox="0 0 407.25 416.63">
  <defs>
    <style>
      .cls-1 {
        fill: #f5f5f5;
      }

      .cls-1, .cls-2, .cls-3, .cls-4, .cls-5, .cls-6, .cls-7, .cls-8, .cls-9, .cls-10, .cls-11, .cls-12, .cls-13, .cls-14, .cls-15 {
        stroke-width: 0px;
      }

      .cls-2 {
        fill: #158796;
      }

      .cls-3 {
        fill: #455a64;
      }

      .cls-4 {
        fill: #a2be55;
      }

      .cls-5 {
        fill: #d78776;
      }

      .cls-6 {
        fill: #263238;
      }

      .cls-7 {
        fill: #e0e0e0;
      }

      .cls-8 {
        fill: #429da9;
      }

      .cls-9 {
        fill: #000;
      }

      .cls-10 {
        fill: #f0f0f0;
      }

      .cls-16 {
        opacity: .2;
      }

      .cls-17 {
        opacity: .3;
      }

      .cls-11 {
        fill: #12787f;
      }

      .cls-12 {
        fill: #ff725e;
      }

      .cls-13 {
        fill: #e5baab;
      }

      .cls-14 {
        fill: #fff;
      }

      .cls-15 {
        fill: #60b6bf;
      }
    </style>
  </defs>
  <g id="Background_complete" data-name="Background complete">
    <g id="freepik--background-complete--inject-2">
      <path class="cls-10" d="M308,144.15c-14.84,19.93-43.03,24.06-62.97,9.22-19.93-14.84-24.06-43.03-9.22-62.97,14.84-19.93,43.03-24.06,62.97-9.22.02.01.03.03.05.04,19.89,14.86,24,43.02,9.17,62.93Z"/>
      <path class="cls-1" d="M299.41,137.74c-11.32,15.2-32.82,18.34-48.01,7.02-15.2-11.32-18.34-32.82-7.02-48.01,11.32-15.2,32.82-18.34,48.01-7.02,0,0,.01,0,.02.01,15.18,11.3,18.33,32.77,7.04,47.95-.01.02-.02.03-.04.05Z"/>
      <path class="cls-7" d="M300.05,136.86c-.17-.11.61-1.41,1.74-3.84,1.59-3.41,2.65-7.05,3.13-10.79.31-2.56.34-5.15.09-7.72-.29-2.93-.97-5.82-2-8.58-1.13-3.05-2.71-5.91-4.69-8.49-1.03-1.37-2.17-2.66-3.41-3.85-1.28-1.22-2.64-2.34-4.08-3.37-1.46-1-2.99-1.89-4.57-2.68-1.54-.75-3.14-1.39-4.78-1.89-1.58-.5-3.2-.87-4.84-1.11-1.57-.25-3.16-.38-4.75-.38-2.95-.05-5.89.29-8.75,1-2.5.64-4.92,1.56-7.22,2.73-3.34,1.73-6.4,3.97-9.06,6.64-1.9,1.9-2.84,3.08-3,3s.53-1.47,2.25-3.64c2.48-3.06,5.51-5.63,8.93-7.59,5.13-2.95,10.93-4.52,16.85-4.56,3.5-.04,6.99.45,10.34,1.45,1.78.53,3.51,1.2,5.18,2,1.71.84,3.36,1.8,4.93,2.88,1.55,1.11,3.02,2.33,4.4,3.65,1.33,1.29,2.55,2.69,3.65,4.17,1.07,1.43,2.03,2.94,2.85,4.53.8,1.51,1.49,3.08,2.06,4.69,1.05,2.98,1.69,6.08,1.91,9.23.18,2.73.04,5.47-.42,8.17-.67,3.89-2.04,7.61-4.06,11-1.48,2.35-2.56,3.45-2.68,3.35Z"/>
      <path class="cls-7" d="M262.79,135.92l-3.51,4.83-4.28-3.13,3.41-4.71c-4.08-3.36-7.22-7.67-8.24-11.25l6.19-3.55c1.22,3.53,3.35,6.68,6.16,9.14l5.23-7.21c-3.95-4.64-8.15-10.13-3.67-16.3,3.32-4.58,9.5-6.1,16.89-1.93l3.48-4.79,4.32,3.13-3.46,4.71c2.97,2.42,5.32,5.5,6.86,9l-6,3.75c-1.19-2.64-2.89-5.02-5-7l-5.32,7.25c4,4.6,8.09,10,3.67,16.11-3.25,4.54-9.36,6.04-16.73,1.95ZM272.31,113.69l4.45-6.13c-2.66-1.15-4.48-.55-5.51.88s-.4,3.27,1.06,5.25ZM272.19,129.49c1.1-1.51.44-3.24-.94-5.24l-4.33,6c2.51,1.06,4.27.61,5.27-.76Z"/>
      <path class="cls-10" d="M146.91,210.7c4.18,28.38-15.45,54.77-43.83,58.95s-54.77-15.45-58.95-43.83c-4.18-28.38,15.45-54.77,43.83-58.95.03,0,.07,0,.1-.01,28.35-4.15,54.7,15.47,58.85,43.82,0,0,0,.01,0,.02Z"/>
      <path class="cls-1" d="M134.68,212.47c3.2,21.62-11.74,41.75-33.37,44.94-21.62,3.2-41.75-11.74-44.94-33.37-3.2-21.62,11.74-41.75,33.37-44.94.03,0,.06,0,.09-.01,21.6-3.16,41.68,11.78,44.85,33.38Z"/>
      <path class="cls-7" d="M134.49,211.25c-.24,0-.65-1.65-1.72-4.56-1.49-4.08-3.6-7.91-6.26-11.35-1.84-2.34-3.92-4.48-6.22-6.37-2.64-2.14-5.55-3.94-8.65-5.34-1.67-.76-3.4-1.4-5.16-1.91-1.83-.54-3.7-.94-5.6-1.19-1.96-.27-3.94-.38-5.92-.34-2.04.05-4.07.24-6.08.58-2,.38-3.98.89-5.91,1.54-1.87.65-3.7,1.44-5.45,2.37-1.69.87-3.31,1.88-4.85,3-1.48,1.08-2.88,2.28-4.18,3.57-2.43,2.39-4.54,5.07-6.28,8-1.51,2.56-2.74,5.28-3.65,8.11-1.32,4.14-1.99,8.46-2,12.81,0,3.1.2,4.83,0,4.87s-.77-1.63-1.14-4.81c-.47-4.52-.1-9.09,1.09-13.47,1.77-6.59,5.22-12.61,10-17.48,1.37-1.42,2.85-2.72,4.43-3.91,1.64-1.25,3.37-2.37,5.18-3.35,1.88-1.02,3.83-1.88,5.85-2.59,2.08-.72,4.21-1.28,6.38-1.67,2.17-.37,4.36-.58,6.56-.63,2.14-.02,4.27.12,6.39.42,2.03.3,4.04.75,6,1.36,1.89.57,3.72,1.29,5.5,2.15,3.28,1.58,6.34,3.6,9.09,6,2.38,2.07,4.5,4.42,6.32,7,2.63,3.7,4.56,7.86,5.67,12.27.76,3.12.78,4.89.61,4.92Z"/>
      <path class="cls-7" d="M103.33,240.86l1.09,6.81-6.07,1-1.06-6.62c-6.08.6-12.16-.36-15.92-2.44l2.16-7.95c3.88,1.87,8.17,2.7,12.47,2.42l-1.63-10.16c-7-.55-14.9-1.6-16.29-10.29-1-6.44,2.76-12.72,12.19-15.35l-1.08-6.75,6.08-1,1.06,6.62c4.39-.45,8.82.14,12.93,1.73l-1.84,8c-3.13-1.21-6.46-1.78-9.81-1.68l1.66,10.34c7,.5,14.77,1.56,16.14,10.13,1.03,6.32-2.72,12.53-12.08,15.19ZM93,214.99l-1.39-8.63c-3.1,1.24-4.1,3.21-3.78,5.22s2.31,2.99,5.17,3.41ZM105.8,227.99c-.35-2.13-2.29-3-5-3.5l1.34,8.39c2.86-1.18,3.93-2.97,3.62-4.91l.04.02Z"/>
      <path class="cls-10" d="M252.06,30.3c-2.56,13.94-15.93,23.16-29.87,20.61-13.94-2.56-23.16-15.93-20.61-29.87,2.56-13.94,15.93-23.16,29.87-20.61.02,0,.04,0,.06.01,13.92,2.56,23.12,15.92,20.55,29.84,0,0,0,.01,0,.02Z"/>
      <path class="cls-1" d="M246.06,29.18c-1.95,10.62-12.14,17.65-22.76,15.7-10.62-1.95-17.65-12.14-15.7-22.76,1.95-10.62,12.14-17.65,22.76-15.7.01,0,.02,0,.03,0,10.61,1.96,17.62,12.14,15.67,22.75Z"/>
      <path class="cls-7" d="M246.16,28.58c-.1-.8-.13-1.61-.07-2.41-.04-2.15-.41-4.27-1.09-6.31-.48-1.4-1.12-2.74-1.89-4-.9-1.42-1.97-2.72-3.2-3.87-.66-.63-1.36-1.2-2.11-1.72-.78-.54-1.61-1.01-2.47-1.41-.87-.44-1.78-.81-2.71-1.11-.96-.3-1.94-.53-2.94-.69-.99-.15-2-.22-3-.22-.98,0-1.95.08-2.92.24-.93.14-1.85.36-2.75.65-.87.27-1.71.6-2.53,1-2.86,1.38-5.33,3.44-7.2,6-1.29,1.72-2.3,3.64-3,5.68-.19.78-.46,1.54-.8,2.27-.1-.82-.02-1.65.24-2.43.49-2.19,1.39-4.27,2.65-6.13.86-1.29,1.86-2.48,3-3.53,1.33-1.21,2.82-2.24,4.42-3.05.87-.45,1.77-.82,2.69-1.13.98-.32,1.98-.57,3-.74,1.04-.18,2.09-.27,3.15-.28,2.18-.02,4.35.32,6.42,1,1.01.31,2,.7,2.95,1.17,1.77.91,3.4,2.08,4.83,3.47,1.29,1.26,2.4,2.68,3.3,4.24.79,1.35,1.42,2.78,1.87,4.28.64,2.15.88,4.4.7,6.64,0,.83-.19,1.64-.54,2.39Z"/>
      <path class="cls-7" d="M226.88,37.48l-.58,3.38-3-.51.56-3.27c-2.65-.54-5.1-1.81-7.06-3.67l2.27-3.38c1.52,1.5,3.4,2.57,5.46,3.12l.85-5c-3.19-1.38-6.72-3.12-6-7.41.54-3.18,3.31-5.51,8.14-5.24l.57-3.33,3,.51-.56,3.27c2.12.48,4.1,1.47,5.77,2.87l-2.13,3.43c-1.26-1.08-2.71-1.89-4.29-2.39l-.88,5.12c3.2,1.35,6.66,3.08,5.94,7.31-.52,3.12-3.26,5.43-8.06,5.19ZM226.14,23.72l.73-4.26c-1.65.09-2.43.85-2.6,1.84s.63,1.78,1.87,2.42ZM230.07,31.86c.17-1-.6-1.77-1.81-2.44l-.71,4.13c1.56-.1,2.35-.76,2.52-1.69Z"/>
    </g>
  </g>
  <g id="Floor">
    <path class="cls-6" d="M407.25,416.32c0,.15-129.16.26-215.17.26s-192.08-.11-192.08-.26,106-.26,192.08-.26,215.17.12,215.17.26Z"/>
  </g>
  <g id="Plant">
    <g>
      <path class="cls-4" d="M74.78,375.46c17.16-12,21.06-34.25,20.38-54.26-.11-3.34.25-6.86-1.33-9.8s-5.3-4.93-8.29-3.52c-2.48,1.17-3.56,4.05-4.95,6.44-1.86,3.18-4.58,5.77-7.84,7.48-2.12,1.1-4.75,1.78-6.85.62-2.88-1.59-3.22-5.57-3.2-8.89.04-6.19.08-12.39.11-18.58,0-3.32,0-6.71-1-9.86s-3.32-6.09-6.48-7-7.07.94-7.73,4.19c-.13,1.37-.16,2.75-.1,4.13-.09,1.38-.73,2.91-2,3.29s-2.66-.55-3.65-1.52c-3.43-3.36-5.76-7.68-7.93-12s-4.29-8.7-7.4-12.36-7.41-6.56-12.17-6.83-9.83,2.67-11,7.34,1.53,9.44,4.5,13.23c4.41,5.62,9.61,10.58,15.44,14.72,1.14.62,2.04,1.59,2.58,2.77.72,2.22-1.37,4.42-3.56,5.15-2.48.82-5.16.56-7.75.87s-5.4,1.45-6.38,3.89c-1.36,3.4,1.48,7,4.27,9.29,5.6,4.67,11.96,8.34,18.8,10.85,2.45.9,5,1.68,7,3.4s3.16,4.7,2,7-4.25,3.09-6.81,2.62-4.85-1.87-7.29-2.79c-4.56-1.72-10.46-1.41-13.38,2.54-1.93,2.59-2.09,6.21-1.12,9.3,1.1,3.04,2.8,5.83,5,8.21,7.24,8.69,16.65,15.3,27.28,19.17,10.59,3.67,20.4,4.66,30.93.81"/>
      <path class="cls-6" d="M8.08,259.86c.09.12.2.23.32.32l1,.88c.87.77,2.15,1.9,3.76,3.41,4.57,4.24,8.81,8.82,12.69,13.7,2.48,3.08,5,6.56,7.73,10.35s5.53,7.88,8.36,12.28c2.98,4.58,5.72,9.32,8.19,14.2,1.28,2.54,2.43,5.19,3.59,7.9l3.53,8.24c4.54,10.44,8.49,21.12,11.83,32,2.7,8.89,4.55,18.02,5.54,27.26.65,6.23.75,12.51.31,18.76-.17,2.22-.34,3.93-.5,5.09-.06.56-.11,1-.15,1.32-.01.15-.01.31,0,.46.04-.15.07-.3.09-.45,0-.32.13-.76.22-1.31.19-1.16.4-2.87.61-5.09.54-6.26.49-12.56-.12-18.82-.93-9.28-2.74-18.45-5.43-27.38-3.33-10.93-7.29-21.65-11.85-32.12l-3.53-8.24c-1.17-2.71-2.32-5.39-3.61-7.94-2.49-4.89-5.25-9.64-8.26-14.22-2.85-4.41-5.71-8.48-8.41-12.27s-5.31-7.26-7.81-10.33c-3.92-4.87-8.23-9.41-12.87-13.6-1.64-1.48-2.94-2.59-3.84-3.32l-1-.84-.39-.24Z"/>
      <path class="cls-6" d="M50.48,314.67c.16-.46.27-.94.33-1.42.17-.92.38-2.25.61-3.91.47-3.3,1-7.89,1.49-13s1.08-9.63,1.6-12.92c.25-1.65.47-3,.64-3.9.11-.47.18-.95.18-1.44-.18.45-.32.91-.41,1.39-.24.91-.53,2.23-.83,3.87-.64,3.29-1.26,7.87-1.79,12.94s-1,9.51-1.31,13c-.16,1.56-.3,2.87-.42,3.93-.08.48-.11.97-.09,1.46Z"/>
      <path class="cls-6" d="M7.77,306.69c.56.12,1.13.18,1.7.2,1.1.1,2.69.23,4.64.46,3.91.42,9.3,1.19,15.2,2.3s11.2,2.37,15,3.38c1.91.49,3.44.93,4.51,1.23.54.19,1.1.32,1.66.41-.51-.27-1.04-.48-1.59-.64-1-.37-2.56-.87-4.46-1.42-3.79-1.12-9.09-2.44-15-3.56-5.05-.98-10.15-1.69-15.27-2.14-2-.17-3.56-.24-4.66-.26-.58-.05-1.16-.04-1.73.04Z"/>
      <path class="cls-6" d="M69.09,362.13c.12-.16.22-.33.29-.52l.73-1.54c.63-1.35,1.49-3.32,2.52-5.76,2.06-4.9,4.69-11.75,7.5-19.34s5.37-14.47,7.32-19.39l2.34-5.84c.25-.63.45-1.16.62-1.59.09-.18.15-.37.18-.57-.12.16-.22.33-.29.52l-.73,1.55c-.63,1.34-1.49,3.31-2.52,5.76-2.06,4.89-4.69,11.74-7.5,19.34-2.81,7.6-5.37,14.46-7.32,19.39l-2.34,5.83-.62,1.59c-.09.18-.15.37-.18.57Z"/>
      <path class="cls-6" d="M12.33,343.86c.18.1.36.18.56.23l1.65.55,6.08,2c5.13,1.67,12.19,4,20,6.69,7.81,2.69,14.89,5,20.06,6.52,2.59.78,4.68,1.39,6.14,1.78l1.68.44c.19.06.4.1.6.11-.18-.1-.37-.18-.57-.23l-1.64-.55-6.08-2c-5.13-1.67-12.19-4-20-6.69s-14.89-5-20-6.51c-2.59-.78-4.68-1.39-6.14-1.79l-1.68-.44c-.21-.07-.44-.1-.66-.11Z"/>
    </g>
  </g>
  <g id="Device">
    <g>
      <path class="cls-6" d="M237.84,366.4l-111-.51c-13.35-.06-24.12-10.93-24.06-24.28h0s1.22-278.26,1.22-278.26c.07-13.35,10.94-24.13,24.29-24.07l111,.51c13.35.06,24.13,10.93,24.07,24.28l-1.18,278.26c-.05,13.35-10.92,24.13-24.27,24.07-.02,0-.05,0-.07,0Z"/>
      <path class="cls-14" d="M239.08,49.4l-21.51-.1c-2.95.05-5.3,2.48-5.25,5.43,0,0,0,0,0,0v3.91c.05,2.95-2.3,5.39-5.25,5.44l-41.94-.2c-2.95-.08-5.28-2.53-5.21-5.48v-3.91c.07-2.95-2.25-5.4-5.2-5.48h-7.57l-18.83-.15c-9.35-.04-16.96,7.51-17,16.86h0s-1.15,271.6-1.15,271.6c-.03,9.34,7.51,16.95,16.85,17l110.77.51c9.35.03,16.96-7.51,17-16.86l1.15-271.6c.02-9.34-7.52-16.93-16.86-16.97Z"/>
      <rect class="cls-15" x="142.58" y="183.72" width="71.34" height="68.72"/>
      <polygon class="cls-8" points="162.25 164.57 142.57 183.72 213.91 183.72 227.55 164.57 162.25 164.57"/>
      <polygon class="cls-2" points="213.91 252.43 227.55 233.03 227.55 164.57 213.91 183.72 213.91 252.43"/>
      <rect class="cls-11" x="158.01" y="212.25" width="37.24" height="4.22"/>
      <rect class="cls-11" x="164.75" y="219.63" width="23.77" height="3.98"/>
      <path class="cls-6" d="M157.12,161.86c-.09-.87-.24-1.73-.43-2.58-.62-2.31-2-4.34-3.91-5.77-1.3-.98-2.81-1.65-4.42-1.94-1.84-.33-3.73-.16-5.49.48-.95.33-1.84.82-2.64,1.43-.85.62-1.59,1.37-2.2,2.22-2.71,3.66-2.71,8.67,0,12.33.61.85,1.35,1.6,2.2,2.22.8.61,1.69,1.09,2.64,1.43,3.34,1.22,7.08.67,9.92-1.47,1.91-1.43,3.28-3.46,3.9-5.76.19-.85.34-1.72.43-2.59.07.89,0,1.78-.23,2.64-.56,2.39-1.93,4.51-3.87,6-2.93,2.28-6.83,2.9-10.32,1.63-2.04-.73-3.82-2.05-5.1-3.8-2.87-3.86-2.87-9.14,0-13,1.29-1.74,3.06-3.06,5.1-3.8,1.84-.65,3.82-.81,5.74-.44,4.16.8,7.47,3.97,8.45,8.09.23.87.3,1.78.23,2.68Z"/>
      <path class="cls-6" d="M141.64,160.38c0-1.5.84-2.5,2.08-2.5s2.08,1,2.08,2.5-.86,2.5-2.08,2.5-2.08-1.02-2.08-2.5ZM145.14,160.38c0-1.2-.57-1.91-1.42-1.91s-1.42.72-1.42,1.91.55,1.9,1.42,1.9,1.42-.71,1.42-1.9ZM149.29,157.94h.78l-6.29,9.21h-.78l6.29-9.21ZM147.29,164.72c0-1.5.86-2.5,2.08-2.5s2.08,1,2.08,2.5-.84,2.5-2.08,2.5-2.09-1-2.09-2.5h.01ZM150.79,164.72c0-1.19-.55-1.91-1.42-1.91s-1.42.71-1.42,1.91.57,1.9,1.42,1.9,1.41-.76,1.41-1.9h.01Z"/>
      <path class="cls-6" d="M202.71,275.68c0,2-1.45,3.7-4.65,3.7-1.51.03-2.99-.39-4.26-1.2l1-2c.93.66,2.04,1.01,3.18,1,1.29,0,2.09-.54,2.09-1.45s-.57-1.46-2.6-1.46h-2.86l.58-6.28h6.81v2.07h-4.66l-.17,2.12h.91c3.32.03,4.63,1.52,4.63,3.5Z"/>
      <path class="cls-6" d="M203.76,273.6c0-3.69,2.05-5.78,4.79-5.78s4.79,2.09,4.79,5.78-2,5.78-4.79,5.78-4.79-2.09-4.79-5.78ZM210.76,273.6c0-2.54-.89-3.59-2.19-3.59s-2.17,1.05-2.17,3.59.9,3.59,2.17,3.59,2.17-1.05,2.17-3.59h.02Z"/>
      <path class="cls-6" d="M220,270.46c.13,1.21-.74,2.31-1.95,2.44-.12.01-.24.02-.37,0-.44.01-.88-.1-1.26-.31l.39-.77c.26.16.56.24.86.22.67.04,1.24-.47,1.28-1.13,0-.06,0-.13,0-.19-.31.28-.72.43-1.14.41-.79.07-1.49-.52-1.56-1.31,0-.03,0-.07,0-.11.02-.86.74-1.54,1.6-1.52.04,0,.08,0,.12,0,1.29,0,2.03.78,2.03,2.25ZM218.83,269.67c0-.39-.33-.69-.71-.69-.03,0-.05,0-.08,0-.38-.06-.73.19-.8.56-.06.38.19.73.56.8.08.01.16.01.23,0,.38.07.74-.19.81-.57,0-.04,0-.07.01-.11h-.03Z"/>
      <path class="cls-6" d="M224.17,270.46c.13,1.21-.74,2.31-1.95,2.44-.12.01-.24.02-.37,0-.44.01-.88-.1-1.26-.31l.41-.74c.25.16.55.24.85.22.66.05,1.24-.45,1.28-1.11,0-.07,0-.14,0-.21-.3.29-.71.43-1.13.41-.8.07-1.5-.53-1.57-1.32,0-.03,0-.06,0-.1.02-.86.74-1.54,1.6-1.52.04,0,.09,0,.13,0,1.24-.03,2.01.75,2.01,2.22ZM222.99,269.67c0-.39-.33-.69-.71-.69-.03,0-.05,0-.08,0-.38,0-.68.3-.68.68,0,.38.3.68.68.68h0c.38.06.74-.21.79-.59,0-.03,0-.06,0-.09h-.01Z"/>
      <rect class="cls-6" x="216.15" y="274.47" width="7.98" height="1.01"/>
      <rect class="cls-6" x="137.55" y="271.29" width="41.2" height="1.28"/>
      <rect class="cls-6" x="137.55" y="275.37" width="25.01" height="1.28"/>
      <path class="cls-8" d="M226.19,328.14l-82.37-.38c-.85,0-1.54-.94-1.53-2.08l.09-21.55c0-1.14.7-2.06,1.55-2.06l82.37.39c.85,0,1.54.93,1.54,2.07l-.09,21.55c-.01,1.14-.7,2.06-1.56,2.06Z"/>
      <path class="cls-14" d="M181.65,316.07c0,1.1-.78,1.72-2.32,1.71h-2.84v-6.45h2.67c1.37,0,2.16.62,2.16,1.67.02.65-.38,1.25-1,1.46.8.1,1.38.81,1.33,1.61ZM181,316.01c0-.84-.58-1.21-1.67-1.21h-2.18v2.42h2.18c1.08.01,1.67-.36,1.67-1.21ZM177.16,311.86v2.34h2c1,0,1.56-.39,1.57-1.16s-.57-1.17-1.56-1.18h-2.01Z"/>
      <path class="cls-14" d="M183.1,315.04v-3.69h.65v3.67c0,1.53.68,2.23,1.88,2.24s1.9-.69,1.9-2.22v-3.67h.63v3.7c0,1.85-1,2.8-2.54,2.8s-2.53-1.01-2.52-2.83Z"/>
      <path class="cls-14" d="M192.16,315.61v2.25h-.64v-2.23l-2.45-4.23h.69l2.11,3.63,2.13-3.61h.65l-2.49,4.19Z"/>
      <rect class="cls-15" x="126.92" y="109.71" width="31.14" height="15.9"/>
      <polygon class="cls-8" points="133.64 104.14 126.92 109.71 158.06 109.71 162.65 104.14 133.64 104.14"/>
      <polygon class="cls-2" points="158.06 125.61 162.65 119.55 162.65 104.14 158.06 109.71 158.06 125.61"/>
      <rect class="cls-11" x="131.53" y="114.88" width="21.23" height="1.64"/>
      <rect class="cls-11" x="135.73" y="117.84" width="13.18" height="1.64"/>
      <rect class="cls-6" x="135.73" y="134.18" width="14.19" height="2.17"/>
      <path class="cls-11" d="M126.92,109.71c.5-.07,1-.11,1.51-.1l4.11-.09c3.47,0,8.27-.07,13.56-.07l12,.06-.16.07,3.42-4c.4-.51.85-.99,1.33-1.43-.34.56-.72,1.09-1.15,1.58l-3.32,4.13-.06.07h-.1l-12,.06c-5.29,0-10.09,0-13.56-.08l-4.11-.08c-.49,0-.99-.03-1.47-.12Z"/>
      <path class="cls-11" d="M158.06,125.61c-.26-2.64-.35-5.3-.26-7.95-.09-2.67,0-5.34.26-8,.27,2.66.36,5.33.27,8,.09,2.65,0,5.31-.27,7.95Z"/>
      <rect class="cls-6" x="180.15" y="134.18" width="14.19" height="2.17"/>
      <rect class="cls-15" x="174.4" y="102.13" width="24.62" height="22.33" transform="translate(71.85 299.04) rotate(-89.52)"/>
      <polygon class="cls-8" points="182.15 95.93 175.56 100.99 197.89 100.99 202.48 95.93 182.15 95.93"/>
      <polygon class="cls-2" points="197.89 125.61 202.48 119.55 202.48 95.93 197.89 100.99 197.89 125.61"/>
      <rect class="cls-11" x="180.4" y="110.94" width="11.29" height="1.64"/>
      <rect class="cls-11" x="182.64" y="113.91" width="7.01" height="1.64"/>
      <path class="cls-11" d="M175.56,100.99c.38-.07.76-.11,1.15-.1l3.12-.09c2.64-.05,6.28-.08,10.31-.08h7.75l-.17.07c1.4-1.51,2.57-2.75,3.4-3.61.41-.48.86-.91,1.36-1.3-.34.53-.73,1.02-1.16,1.48-.78.91-1.9,2.19-3.26,3.73l-.07.08h-7.85c-4,0-7.67,0-10.31-.08l-3.12-.08c-.38.04-.77.03-1.15-.02Z"/>
      <path class="cls-11" d="M197.89,125.61c-.15,0-.27-5.51-.27-12.31s.12-12.31.27-12.31.27,5.51.27,12.31-.16,12.31-.27,12.31Z"/>
      <rect class="cls-6" x="219.69" y="134.18" width="14.19" height="2.17"/>
      <path class="cls-12" d="M216.65,110.12c1.16-.16,2.33-.23,3.5-.19,2.17,0,5.16-.08,8.47-.08,2.93,0,5.62,0,7.66.06l-.15.07c.91-1,1.65-1.74,2.18-2.27.25-.3.54-.56.86-.78-.19.34-.42.65-.69.93-.47.58-1.17,1.4-2,2.39l-.06.07h-.1c-2,0-4.73.06-7.66.06-3.31,0-6.3,0-8.47-.08-1.18.03-2.37-.03-3.54-.18Z"/>
      <rect class="cls-15" x="216.65" y="110.12" width="19.64" height="15.5"/>
      <polygon class="cls-8" points="220.8 106.93 216.65 110.11 236.29 110.11 239.17 106.93 220.8 106.93"/>
      <polygon class="cls-2" points="236.29 125.61 239.17 121.8 239.17 106.93 236.29 110.11 236.29 125.61"/>
      <rect class="cls-11" x="222.21" y="116.03" width="8.99" height="1.2"/>
      <rect class="cls-11" x="223.99" y="118.21" width="5.58" height="1.2"/>
      <path class="cls-11" d="M236.29,125.61c-.28-2.57-.37-5.16-.29-7.75-.09-2.58,0-5.17.27-7.74.26,2.57.34,5.16.26,7.74.09,2.59.01,5.17-.24,7.75Z"/>
    </g>
  </g>
  <g id="Sparkles">
    <g>
      <polygon class="cls-12" points="264.32 35.44 262.28 39.16 258.56 41.19 262.28 43.23 264.32 46.94 266.35 43.23 270.07 41.19 266.35 39.16 264.32 35.44"/>
      <polygon class="cls-12" points="90.35 131.13 88.31 134.85 84.59 136.88 88.31 138.91 90.35 142.63 92.38 138.91 96.1 136.88 92.38 134.85 90.35 131.13"/>
      <polygon class="cls-12" points="279.14 51.22 277.89 53.5 275.61 54.75 277.89 56 279.14 58.29 280.4 56 282.68 54.75 280.4 53.5 279.14 51.22"/>
      <polygon class="cls-12" points="79.19 109.75 77.94 112.03 75.66 113.28 77.94 114.53 79.19 116.82 80.44 114.53 82.72 113.28 80.44 112.03 79.19 109.75"/>
    </g>
  </g>
  <g id="Character">
    <g>
      <path class="cls-15" d="M361.69,369.86l-7.36-5.79,10.75-13.85,10.85,8.35-.61.9c-2.75,4-14.28,20.08-17,22-3.12,2.25,3.37-11.61,3.37-11.61Z"/>
      <path class="cls-6" d="M357.35,381.34c-.13-.1,3.82-5.34,8.82-11.7s9.16-11.43,9.29-11.33-3.82,5.34-8.82,11.7-9.16,11.43-9.29,11.33Z"/>
      <path class="cls-6" d="M363,371.32c0,.16-.51.22-1.07.22s-1.05-.08-1.07-.24.45-.37,1.07-.36,1.07.22,1.07.38Z"/>
      <path class="cls-6" d="M362.79,372.58c-.05.16-.58.15-1.2.06s-1.14-.21-1.14-.37.55-.31,1.22-.22,1.17.37,1.12.53Z"/>
      <path class="cls-6" d="M372.14,362.42c-.08,0-.25-.29-.45-.83-.27-.72-.4-1.49-.39-2.26.01-.81.3-1.58.82-2.2.41-.46.79-.57.83-.5s-.22.3-.49.75c-.35.61-.55,1.3-.56,2,0,.71.07,1.43.2,2.13.09.53.12.89.04.91Z"/>
      <path class="cls-6" d="M361.58,370.27c-.06-.15.24-.42.63-.67s.77-.41.88-.29-.11.51-.55.8c-.44.29-.9.32-.96.16Z"/>
      <path class="cls-6" d="M361,369.5c-.12-.12.07-.57.42-1s.76-.73.9-.63-.06.54-.43,1-.73.74-.89.63Z"/>
      <path class="cls-6" d="M312.93,250.86s-22,58.34-19,69.24,62.18,54.18,62.18,54.18l16.07-23.14s-46.18-36.55-46.33-38.56,18.34-50.49,18.34-50.49l-31.26-11.23Z"/>
      <path class="cls-3" d="M355.09,356.49l-.21-.11c-.15-.11-.34-.23-.58-.38l-2.2-1.51c-1.89-1.33-4.63-3.27-8-5.73-6.66-4.92-15.71-11.94-25.31-20.16-2.4-2.06-4.73-4.09-7-6.06l-3.27-2.93c-1.12-.9-2.07-1.98-2.82-3.2-.62-1.26-.76-2.69-.41-4.05.25-1.29.58-2.5.89-3.69.63-2.35,1.26-4.53,1.83-6.52l2.74-9.41c.3-1.08.54-1.94.72-2.57l.18-.67c-.06-.02-.1-.08-.09-.15.02-.06.08-.1.15-.09.06.02.1.08.09.15-.01.04-.04.08-.09.09,0,.18-.08.41-.14.68-.13.59-.33,1.47-.62,2.59-.57,2.25-1.46,5.48-2.57,9.47-.55,2-1.16,4.17-1.77,6.53-.3,1.17-.62,2.4-.86,3.65-.32,1.25-.18,2.58.39,3.74.73,1.16,1.65,2.2,2.72,3.05l3.28,2.91c2.23,2,4.56,4,7,6.05,9.59,8.21,18.59,15.27,25.19,20.26l7.86,5.87,2.14,1.59.55.42c.12.12.22.18.21.18Z"/>
      <path class="cls-3" d="M349.73,363.54c-.12-.09,2.93-4.3,6.81-9.4,3.88-5.1,7.13-9.17,7.25-9.08s-2.94,4.3-6.82,9.41-7.12,9.16-7.24,9.07Z"/>
      <path class="cls-6" d="M351.71,139.92c2,3.92,3,7.32,6.88,9.34,1.75.92,3.89,1.44,5,3.1,1.15,1.82.61,4.45,2.06,6,2.12,2.31,6.44.44,8.81,2.47,2.12,1.82,1.44,5.72,3.73,7.32,1.28.91,3,.71,4.5,1.27,2.4.93,3.54,3.7,3.85,6.25.33,2.05.07,4.15-.75,6.05-.85,1.92-2.62,3.27-4.7,3.59-2.73.29-5.81-1.59-8,0-.71.66-1.33,1.41-1.84,2.24-2.35,2.98-6.66,3.5-9.65,1.15-.66-.52-1.21-1.15-1.64-1.86-1.52-2.54-1.42-6-3.65-8-1.27-.89-2.68-1.54-4.18-1.92-1.45-.54-2.95-1.44-3.38-2.92-.5-1.31-1.21-2.53-2.1-3.61-1.11-1.66-2.59.37-4.07-.45s-.91-2.42-1-4.1"/>
      <path class="cls-13" d="M325.84,196.6l-19-6.35s-8.39,24.16-11,24.4c-14.24,1.3-29.48-3.43-34.82-5.29-.55-.61-1.17-1.34-1.86-2.24-.59-.77-1.04-1.64-1.34-2.56-.41-1.13-.67-2.32-.76-3.52.06-.62-.4-1.16-1.01-1.22-.34-.03-.67.09-.91.34-.61.8-.77,3.85.63,7.14s-3.57.67-5.4-.25-7.62-3.5-8.35-3.16c-1.07.5-.73,1.73,1.12,2.61s7.21,3.89,6.67,4.83-9.77-3.88-9.77-3.88c0,0-1.82-1.34-2.47-.27-1.17,1.93,9,6.31,10,6.7.69.28.15,1.32-.57,1s-9-5.02-10.24-3.02c-.94,1.5,8.36,3.69,9.56,5.62s-6.88-2.37-7.71-.9c-.31.54-.47,1,4.53,2.8,3.66,1.14,7.39,2.09,11.15,2.84v.05s49.94,22.34,60.72.81c11.41-22.9,10.83-26.48,10.83-26.48Z"/>
      <path class="cls-15" d="M344.61,176.59h0l8.29.15,6.58,18.87-5.36,21.62c-1.57,6.31,5.55,18.95,5.36,25.92l-46.48,7.53-1-31.05v-1l-16.09-8,5.31-13c8.17-19.14,22.44-20.3,22.44-20.3l20.95-.74Z"/>
      <g class="cls-16">
        <path class="cls-14" d="M344.61,176.59h0l8.29.15,6.58,18.87-5.36,21.62c-1.57,6.31,5.55,18.95,5.36,25.92l-46.48,7.53-1-31.05v-1l-16.09-8,5.31-13c8.17-19.14,22.44-20.3,22.44-20.3l20.95-.74Z"/>
      </g>
      <path class="cls-3" d="M353.24,176.79s-.09,0-.27.11c-.27.09-.54.17-.81.23-1.06.19-2.14.3-3.22.32l.1-.19,3.17,5.15.22.34-.41-.07c-1.84-.32-3.71-.38-5.56-.18l.19-.24c.07,2.11.37,4.21.9,6.26l.14.42-.44-.1c-2.11-.45-4.15-1.2-6.05-2.22l.39-.17c-.38,1.86-.77,3.81-1.17,5.8l-.09.43-.34-.27c-.84-.67-1.64-1.39-2.39-2.15-.74-.74-1.44-1.53-2.09-2.36l.38.05-5.32,4.19-.33.26-.09-.41c-.38-1.85-.74-3.65-1.09-5.37l.32.18-5.69,2-.39.14.11-.4c.6-2.27,1.15-4.33,1.65-6.16l.14.22-4.94-.85h-.2l.11-.17,2.16-3.16.58-.81c.13-.18.21-.27.22-.26-.05.1-.1.2-.16.3l-.52.84-2.05,3.23-.09-.2,4.95.75h.2v.2l-1.58,6.18-.28-.27,5.66-2,.27-.1.06.28,1.12,5.37-.42-.15,5.31-4.21.21-.17.17.21c.63.79,1.3,1.54,2.02,2.25.74.75,1.52,1.45,2.34,2.11l-.42.16c.4-2,.8-3.94,1.18-5.8l.07-.36.32.19c1.85,1,3.84,1.73,5.9,2.18l-.29.31c-.53-2.08-.81-4.21-.86-6.36v-.22h.22c1.9-.19,3.81-.11,5.68.25l-.19.28c-1.21-2-2.24-3.8-3.08-5.21l-.1-.18h.2c1.07.01,2.15-.06,3.21-.2.68-.15,1.06-.24,1.06-.22Z"/>
      <path class="cls-3" d="M362.42,184.72s-.32-.15-1-.34c-.96-.27-1.97-.28-2.94-.05l.08-.11c.19,1.1.49,2.42.9,3.93s.91,3.22,1.36,5.15l.07.28-.29-.08c-2.37-.69-5.16-1.21-8.09-2.2l.27-.22c.31,2.85.29,6,.46,9.4v.29h-.3c-2.67-.46-5.3-1.16-7.85-2.07-.32-.09-.69-.22-.78-.08-.2.24-.35.52-.44.82l-.83,2c-.55,1.35-1.12,2.72-1.69,4.1l-.17.42-.28-.35-5.32-6.6-.4-.49h.36l-8.54,5.88-.28.19-.12-.32c-1-2.78-1.9-5.46-2.8-8.06l.38.13c-2.99,1.94-6.18,3.55-9.52,4.79l-.35.14v-.38c.61-4.33,1.16-8.22,1.63-11.58l.25.19c-2.43.96-5.04,1.38-7.65,1.23h-.17l.06-.16,1.79-4.82c.21-.51.36-.92.48-1.23.05-.14.11-.28.19-.41-.03.15-.07.29-.12.43-.11.32-.25.73-.42,1.26-.4,1.14-1,2.77-1.69,4.86l-.11-.17c2.56.1,5.12-.34,7.5-1.31l.29-.12v.31c-.45,3.37-1,7.25-1.54,11.59l-.31-.24c3.3-1.25,6.45-2.86,9.4-4.79l.27-.17.11.3,2.82,8-.4-.12,8.55-5.89.21-.14.15.19.4.49,5.31,6.61-.45.06,1.7-4.1.83-2c.12-.38.33-.72.61-1,.1-.09.23-.15.36-.17.11-.01.23-.01.34,0,.19.04.37.09.55.15,2.53.91,5.13,1.6,7.77,2.08l-.28.25c-.15-3.38-.12-6.55-.4-9.38v-.33l.31.11c2.9,1,5.67,1.55,8.06,2.27l-.22.2c-.42-1.91-.91-3.62-1.29-5.15s-.66-2.85-.83-4v-.09h.09c.99-.22,2.03-.18,3,.14.34.12.66.28.96.48Z"/>
      <path class="cls-3" d="M312.26,218.36c-.37-.11-.71-.29-1-.53-.85-.59-1.58-1.34-2.15-2.21-.84-1.32-1.23-2.88-1.09-4.44.13-3.46,2.07-6.59,5.1-8.26l-.14.2c.38-2.85.73-5.3,1-7,.1-.93.27-1.85.51-2.75,0,.94-.06,1.87-.2,2.8-.17,1.74-.46,4.2-.81,7.06v.12l-.13.07c-2.83,1.62-4.65,4.57-4.83,7.83-.15,1.47.17,2.94.92,4.21.53.86,1.21,1.62,2,2.25.28.2.56.42.82.65Z"/>
      <path class="cls-3" d="M314,197.41c-.13.07-.59-.6-1-1.48s-.68-1.65-.54-1.72.59.6,1,1.49.69,1.65.54,1.71Z"/>
      <path class="cls-13" d="M344.05,176.86l1.43-32.67-13-9.83-11.79,5.76s-.4,14.81,0,21.24,6.87,7.1,6.87,7.1c0,0-.15,3.77-.3,7.72-.18,4.62,3.42,8.52,8.04,8.7.14,0,.28,0,.42,0h0c4.47-.03,8.14-3.56,8.33-8.03Z"/>
      <path class="cls-6" d="M322,150.92c0,.46.36.83.82.84.46,0,.83-.36.84-.82,0-.46-.36-.83-.82-.84,0,0-.01,0-.02,0-.45,0-.82.37-.82.82h0Z"/>
      <path class="cls-6" d="M321.2,150.02c.1.11.71-.41,1.59-.46s1.55.38,1.65.26-.07-.24-.36-.44c-.8-.52-1.85-.46-2.59.15-.26.24-.35.45-.29.49Z"/>
      <path class="cls-6" d="M331.52,150.92c0,.45.37.82.82.82s.82-.37.82-.82-.37-.82-.82-.82-.82.37-.82.82h0Z"/>
      <path class="cls-6" d="M331,150.02c.1.11.71-.41,1.6-.46s1.54.38,1.64.26-.07-.24-.36-.44c-.8-.52-1.85-.46-2.59.15-.29.24-.29.45-.29.49Z"/>
      <path class="cls-14" d="M330.74,158.33c-1.35.69-2.79,1.19-4.28,1.48.67.91,1.88,1.26,2.93.83.99-.23,1.61-1.22,1.38-2.21,0-.03-.02-.07-.03-.1Z"/>
      <path class="cls-5" d="M327.57,168.46c3.05-.12,6.01-1.12,8.51-2.87,0,0-1.93,4.72-8.37,4.45l-.14-1.58Z"/>
      <path class="cls-6" d="M364.17,162.65c-.81.03-1.61-.15-2.33-.53-1.06-.57-1.94-1.42-2.54-2.46-.75-1.3-1.38-2.66-1.9-4.07-1.2-3-2.1-5.75-2.72-7.77-.09-.32-.18-.61-.26-.89s-.11-.65-.17-.88c-3.51-13.39-15.25-15.89-17.61-15.89-2.49,0-6.86-1.37-13.23,5.24-.96.99-1.78,2.12-2.42,3.34-1.41,1.77-2.38,3.84-2.84,6.05-.28,1.04-.33,2.13-.15,3.19.12,0,.14-1.22.64-3.08.3-1.09.72-2.15,1.24-3.16-.56,2.47-.33,5.06.65,7.4l2.28-.63,8.18-2.78c-.74-2.54.35-5.68,1-7.15l.06-.05c.94,5.48,5.32,9.72,10.82,10.5l1.51,21c10.87-2.32,10.62-16.87,10.55-19.83.5,1.67,1.14,3.58,1.94,5.59.54,1.44,1.2,2.83,2,4.14.68,1.11,1.66,1.99,2.83,2.55.79.37,1.67.5,2.53.37.32-.03.62-.15.88-.34,0,0-.37.1-.94.14Z"/>
      <path class="cls-6" d="M327.81,157.5c-.47-.12-.95-.18-1.44-.18-.23,0-.45-.05-.5-.21-.03-.25.02-.5.13-.72l.6-1.83c.43-1.31.79-2.5,1-3.36.17-.46.28-.94.33-1.42-.25.42-.44.87-.57,1.34-.3.85-.7,2-1.13,3.33-.2.64-.39,1.26-.58,1.84-.13.29-.16.61-.08.92.06.16.2.28.37.32.13.02.26.02.39,0,.49.05.99.04,1.48-.03Z"/>
      <path class="cls-13" d="M346.16,157.23c-.1-1.07.02-2.15.35-3.17.35-1.04,1.23-1.8,2.31-2,1.27-.05,2.39.85,2.6,2.11.15,1.26-.47,2.48-1.58,3.09-1.11.58-2.43.62-3.57.1"/>
      <path class="cls-5" d="M348,156.29c0-.07.35.09.81-.05.59-.19.99-.74,1-1.36.05-.31-.04-.62-.23-.86-.2-.16-.45-.23-.7-.21-.48.05-.82.17-.85.09s.22-.3.79-.46c.37-.1.77-.02,1.08.21.34.32.51.79.44,1.26-.02.44-.19.86-.48,1.2-.24.28-.57.46-.94.5-.65.07-.92-.28-.92-.32Z"/>
      <path class="cls-15" d="M338.19,411.68v-9.36l17.54-.11.14,13.69-1.08.08c-4.84.3-24.62,1.18-27.86.22-3.61-1.07,11.26-4.52,11.26-4.52Z"/>
      <path class="cls-6" d="M326.52,415.34c0-.16,6.56-.3,14.65-.3s14.64.14,14.64.3-6.55.3-14.64.3-14.65-.13-14.65-.3Z"/>
      <path class="cls-6" d="M337.89,413.59c-.15.08-.49-.26-.84-.71s-.58-.86-.47-1,.57.13.95.62.47,1.01.36,1.09Z"/>
      <path class="cls-6" d="M336.77,414.21c-.16.06-.47-.37-.79-.91s-.54-1-.41-1.13.58.24.92.83.43,1.15.28,1.21Z"/>
      <path class="cls-6" d="M350.53,415.28c-.06-.05.08-.38.38-.87.4-.66.92-1.24,1.54-1.7.64-.49,1.43-.74,2.23-.72.62,0,.94.27.91.34s-.38,0-.9.08c-.69.1-1.34.36-1.89.78-.56.44-1.08.94-1.55,1.48-.39.41-.65.66-.72.61Z"/>
      <path class="cls-6" d="M337.83,411.86c.09-.14.48-.07.92.08s.8.35.77.51-.47.23-1,.06-.77-.54-.69-.65Z"/>
      <path class="cls-6" d="M338.11,410.92c0-.16.48-.29,1.05-.28.57.01,1,.15,1,.31s-.46.3-1.05.29-1.02-.15-1-.32Z"/>
      <path class="cls-3" d="M322.53,249.26l-9.6,1.61,5.53,6.8c1.59,32,1.2,63.05,2.67,78.52.22,2.35,10.14,76,9.15,74.31l29.21,1.22-8.72-74,4.13-65.73c4.48-7.77,5.79-16.96,3.66-25.67l-.72-2.95"/>
      <path class="cls-6" d="M342.66,133.6c-1.48-.57-2.59-1.81-3-3.34-.37-1.55.14-3.17,1.33-4.23,1.23-1.02,2.95-1.19,4.35-.41,1.04.72,1.81,1.78,2.16,3,.33.79.42,1.65.26,2.49-.41,1.23-1.43,2.15-2.69,2.43-1.25.25-2.52.28-3.78.1"/>
      <path class="cls-6" d="M368.43,151.42c.11-.43.13-.87.06-1.31-.11-.49-.35-.95-.69-1.33-.47-.49-1.06-.83-1.72-1-.81-.2-1.64-.25-2.47-.17-.91.06-1.88.22-2.94.24-1.14.07-2.27-.2-3.25-.77-.98-.74-1.68-1.8-1.95-3-.66-2.11-1.75-4.07-3.2-5.74-1.19-1.37-2.59-2.53-4.14-3.46-1.47-.8-3.02-1.45-4.62-1.93h.35c.23,0,.57.08,1,.2,1.21.31,2.38.77,3.47,1.38,1.62.91,3.08,2.07,4.32,3.46,1.52,1.7,2.66,3.7,3.35,5.87.24,1.09.84,2.06,1.72,2.74.91.53,1.95.78,3,.72,1,0,2-.15,2.92-.19.87-.07,1.75.02,2.6.25.71.2,1.35.6,1.84,1.16.36.43.59.95.68,1.5.05.34.02.68-.09,1-.14.29-.23.39-.24.38Z"/>
      <path class="cls-7" d="M350,157.17c0-.05.48.33.48,1.19-.01.51-.23.99-.61,1.34-.46.44-1.1.64-1.73.54-.63-.11-1.17-.5-1.47-1.06-.24-.45-.29-.97-.14-1.46.27-.82.82-1,.83-1s-.34.37-.46,1.07c-.07.39,0,.79.2,1.13.25.4.66.68,1.13.77.47.07.95-.07,1.31-.37.3-.25.5-.61.56-1,.06-.69-.22-1.11-.1-1.15Z"/>
      <path class="cls-12" d="M347.37,134.86c-2.14-2.13-4.87-3.58-7.84-4.15,3.17-.12,6.16,1.46,7.84,4.15Z"/>
      <path class="cls-7" d="M351.1,155.94c0-.07.29-.09.47.24.09.2.09.43,0,.63-.13.25-.39.41-.68.42-.45.03-.83-.31-.86-.75,0-.05,0-.11,0-.16,0-.34.24-.45.29-.41.05.04,0,.2.09.4.03.23.23.39.46.38.18,0,.33-.13.34-.3,0-.03,0-.05,0-.08,0-.19-.12-.29-.1-.37Z"/>
      <path class="cls-6" d="M342.16,405.03c-.03-.09-.05-.18-.06-.27,0-.21-.07-.47-.11-.8-.1-.74-.24-1.77-.41-3.07-.34-2.67-.79-6.53-1.32-11.32-1.07-9.56-2.38-22.78-3.56-37.41-1.18-14.63-2-27.91-2.46-37.52-.25-4.8-.41-8.69-.5-11.38-.04-1.33-.07-2.36-.09-3.09v-.81c-.01-.09-.01-.18,0-.27.01.09.01.18,0,.27,0,.21,0,.48.06.8.05.75.11,1.78.2,3.09.16,2.73.38,6.6.66,11.37.58,9.6,1.46,22.86,2.63,37.49,1.17,14.63,2.43,27.86,3.39,37.42.49,4.76.88,8.62,1.16,11.34.13,1.3.23,2.33.3,3.08,0,.33.05.59.07.8.03.09.04.19.04.28Z"/>
      <path class="cls-6" d="M358.48,405.1c-.37.1-.74.15-1.12.16-.72.06-1.77.13-3.06.19-2.59.13-6.17.19-10.12.13s-7.53-.18-10.11-.28l-3.06-.15c-.38,0-.76-.03-1.13-.12.37-.08.75-.11,1.13-.09h3.07c2.58,0,6.16.06,10.11.12,3.95.06,7.51.06,10.1,0h3.06c.38-.03.76-.02,1.13.04Z"/>
      <path class="cls-3" d="M353.24,176.79c0,.13-1.69.59-4.3.77l.19-.36,1.93,3.13,1.22,2,.29.49-.56-.11c-1.85-.27-3.71-.43-5.58-.47.51-.17,1.05-.25,1.59-.25,1.36-.09,2.73-.01,4.08.22l-.26.38-1.24-2-1.87-3.16-.21-.35h.4c1.28-.06,2.37-.14,3.12-.21.4-.07.8-.09,1.2-.08Z"/>
      <path class="cls-3" d="M362.42,184.72c0,.09-1.45-.26-3.94-.32l.17-.19c.59,2.34,1.37,5.46,2.28,9.06l.1.42-.41-.11-6.36-1.72-1.73-.48.34-.27c.14,3.45.27,6.65.38,9.4v.3l-.28-.08-6.11-1.71-1.69-.5c-.2-.05-.4-.13-.58-.23.21,0,.42.04.62.1l1.72.39,6.13,1.52-.27.23c-.14-2.75-.3-5.95-.47-9.39v-.37l.36.1,1.73.48,6.34,1.77-.31.31c-.84-3.63-1.56-6.77-2.11-9.13l-.05-.2h.22c.98.05,1.95.17,2.91.37.34.05.68.13,1.01.25Z"/>
      <path class="cls-3" d="M363.68,210.08c-.28-.21-.53-.46-.72-.75-.42-.53-.88-1.41-1.54-2.43h.27c-1.62,3.16-3.51,6.17-5.66,9l-.2.27-.21-.27c-1-1.25-2-2.58-3-4l-2.3-3h.38l-3.7,3.26-1.66,1.43-.77.67-.37.32-.09.08h-.11c0,.09-.33-.12-.26-.21s0,0,0,0v-.06h0s.07.17.1.16,0,0,0,0l-.17.05-.06-.19c-.59-2-1-3.58-1.25-4.72-.17-.58-.24-1.19-.2-1.79,0,0,.1.63.41,1.74s.78,2.7,1.43,4.65l-.23-.14c.07-.02.15-.02.22,0,.1.03.17.13.17.24,0,.05,0,.09,0,.14h-.05l-.14-.06s-.03-.07-.06-.1l-.06-.06h.05l.08-.08.37-.33.76-.68c.52-.47,1.06-1,1.63-1.46l3.65-3.25.21-.19.18.23,2.3,3c1.06,1.38,2.08,2.72,3,4h-.41c2.15-2.8,4.08-5.75,5.79-8.84l.14-.24.14.23c.64,1.07,1,2,1.41,2.51s.56.84.53.87Z"/>
      <path class="cls-3" d="M346,195.86c0,.34-.06.68-.17,1-.15.62-.38,1.5-.7,2.59-.63,2.17-1.61,5.15-2.87,8.36s-2.58,6.06-3.6,8.08c-.51,1-.94,1.82-1.26,2.37-.14.3-.32.58-.53.83.42-1.15.9-2.27,1.45-3.36.93-2.06,2.18-4.91,3.44-8.11s2.29-6.15,3-8.29c.34-1.18.75-2.34,1.24-3.47Z"/>
      <path class="cls-3" d="M353.24,176.79c0,.13-1.69.59-4.3.77l.19-.36,1.93,3.13,1.22,2,.29.49-.56-.11c-1.85-.27-3.71-.43-5.58-.47.51-.17,1.05-.25,1.59-.25,1.36-.09,2.73-.01,4.08.22l-.26.38-1.24-2-1.87-3.16-.21-.35h.4c1.28-.06,2.37-.14,3.12-.21.4-.07.8-.09,1.2-.08Z"/>
      <path class="cls-3" d="M346,195.86c0,.34-.06.68-.17,1-.15.62-.38,1.5-.7,2.59-.63,2.17-1.61,5.15-2.87,8.36s-2.58,6.06-3.6,8.08c-.51,1-.94,1.82-1.26,2.37-.14.3-.32.58-.53.83.42-1.15.9-2.27,1.45-3.36.93-2.06,2.18-4.91,3.44-8.11s2.29-6.15,3-8.29c.34-1.18.75-2.34,1.24-3.47Z"/>
    </g>
    <g>
      <rect class="cls-12" x="265.22" y="168.42" width="98.59" height="151.61" rx="7.76" ry="7.76" transform="translate(-7.96 477.84) rotate(-73.75)"/>
      <g class="cls-17">
        <rect class="cls-9" x="265.22" y="168.42" width="98.59" height="151.61" rx="7.76" ry="7.76" transform="translate(-7.96 477.84) rotate(-73.75)"/>
      </g>
      <path class="cls-14" d="M248.78,239.96l-2.36,8.08-.83-.24,2.14-7.34-1.91-.56.22-.74,2.74.8Z"/>
      <path class="cls-14" d="M257,249.72l-.22.74-5.71-1.6.17-.59,4.32-2.31c1.18-.63,1.51-1.13,1.67-1.68.27-.94-.22-1.7-1.45-2.06-.82-.3-1.73-.2-2.47.25l-.44-.68c.97-.57,2.14-.69,3.2-.32,1.64.48,2.43,1.62,2,3-.22.77-.67,1.39-2.06,2.14l-3.54,1.9,4.53,1.21Z"/>
      <path class="cls-14" d="M265.87,250.86l-1.62-.47-.62,2.12-.83-.24.62-2.13-4.56-1.33.17-.6,5.85-4.1.92.27-5.65,4,3.51,1,.54-1.87.81.24-.54,1.87,1.61.47-.21.77Z"/>
      <path class="cls-14" d="M278.25,254.43l-1.62-.48-.62,2.13-.83-.24.62-2.13-4.56-1.33.18-.6,5.84-4.11.92.27-5.65,4,3.51,1,.54-1.87.81.23-.54,1.88,1.61.47-.21.78Z"/>
      <path class="cls-14" d="M285.39,256.23c-.41,1.37-1.68,2.17-3.65,1.59-1.08-.27-2.01-.94-2.6-1.88l.6-.54c.5.83,1.32,1.43,2.26,1.66,1.37.4,2.3-.06,2.58-1s-.15-1.88-2.21-2.47l-1.72-.51,1.6-3.93,4.42,1.29-.21.74-3.7-1.08-1,2.5,1,.3c2.4.67,3.04,1.9,2.63,3.33Z"/>
      <path class="cls-14" d="M293.38,258.52c-.42,1.39-1.88,2.17-3.26,1.76-.07-.02-.15-.05-.22-.08-2.15-.62-2.88-2.45-2.14-5,.8-2.74,2.72-3.74,4.91-3.1.68.16,1.3.51,1.79,1l-.53.57c-.39-.42-.9-.71-1.46-.84-1.74-.51-3.19.29-3.82,2.48-.06.22-.12.44-.16.67.74-.77,1.86-1.03,2.87-.67,1.39.24,2.32,1.56,2.08,2.95-.02.09-.04.18-.06.26ZM292.55,258.31c.29-.98-.27-2-1.25-2.28-.09-.03-.18-.05-.27-.06-.92-.45-2.04-.07-2.49.85-.45.92-.07,2.04.85,2.49.2.1.42.16.64.18.93.41,2.02,0,2.43-.93.04-.08.07-.16.09-.25h0Z"/>
      <path class="cls-14" d="M304.41,261.86c-.39,1.35-1.68,2.1-3.63,1.53-1.08-.27-2.01-.95-2.61-1.88l.6-.55c.5.83,1.3,1.43,2.23,1.67,1.34.39,2.26,0,2.56-1s-.22-1.81-1.72-2.24l-.58-.17.18-.61,3.06-2.16-4.13-1.2.21-.74,5.2,1.51-.17.59-3.13,2.21c1.71.56,2.31,1.72,1.93,3.04Z"/>
      <path class="cls-14" d="M312.54,264.11c-.43,1.39-1.9,2.17-3.29,1.74-.07-.02-.14-.05-.2-.07-2.14-.62-2.87-2.45-2.13-5,.8-2.75,2.72-3.74,4.91-3.11.67.17,1.29.51,1.79,1l-.53.57c-.4-.41-.9-.7-1.46-.84-1.74-.5-3.19.29-3.83,2.48-.06.22-.11.44-.15.67.74-.78,1.87-1.04,2.87-.66,1.39.24,2.32,1.56,2.08,2.94-.02.09-.04.19-.06.28ZM311.71,263.89c.28-.99-.3-2.02-1.29-2.29-.07-.02-.15-.04-.23-.05-.92-.45-2.04-.07-2.49.85-.45.92-.07,2.04.85,2.49.2.1.42.16.64.18.93.41,2.02-.01,2.43-.94.04-.09.07-.18.09-.27v.03Z"/>
      <path class="cls-14" d="M321.62,260.6l-.17.59-5.56,6.51-.9-.26,5.46-6.38-4.16-1.2-.44,1.51-.82-.24.66-2.25,5.93,1.72Z"/>
      <path class="cls-14" d="M333.17,263.97l-.17.59-5.56,6.5-.9-.26,5.46-6.37-4.16-1.21-.44,1.51-.82-.24.66-2.25,5.93,1.73Z"/>
      <path class="cls-14" d="M339.43,272.12c-.42,1.43-1.89,2-3.82,1.4s-2.86-1.8-2.44-3.23c.26-.95,1.15-1.59,2.14-1.53-.7-.47-1.01-1.35-.75-2.15.38-1.31,1.74-1.81,3.45-1.31s2.61,1.65,2.22,3c-.22.82-.96,1.39-1.81,1.4.85.48,1.27,1.48,1.01,2.42ZM338.58,271.86c.29-1-.39-1.87-1.82-2.29s-2.46,0-2.75,1,.37,1.87,1.81,2.29,2.46,0,2.76-1ZM337,268.91c1.26.37,2.18,0,2.43-.85s-.37-1.7-1.58-2.05-2.16,0-2.42.87.26,1.67,1.57,2.03Z"/>
      <path class="cls-14" d="M347.82,272.54c-.8,2.75-2.72,3.75-4.92,3.11-.67-.17-1.29-.51-1.78-1l.53-.57c.39.42.9.71,1.45.84,1.75.51,3.19-.29,3.83-2.48.06-.22.12-.44.16-.67-.74.78-1.87,1.04-2.87.66-1.38-.24-2.31-1.56-2.06-2.94.02-.09.04-.18.06-.27.41-1.38,1.86-2.17,3.24-1.76.08.02.16.05.24.08,2.13.62,2.86,2.45,2.12,5ZM347.14,270.61c.21-1.08-.49-2.14-1.57-2.35-.02,0-.04,0-.06-.01-.94-.38-2.01.08-2.39,1.02-.38.94.08,2.01,1.02,2.39.12.05.25.08.38.11,1.02.42,2.19-.08,2.61-1.1,0-.02.02-.04.02-.06Z"/>
      <path class="cls-14" d="M357.17,270.96l-2.36,8.08-.83-.24,2.14-7.34-1.91-.56.22-.74,2.74.8Z"/>
      <path class="cls-14" d="M361.69,280.72l-.22.74-5.67-1.6.17-.59,4.32-2.31c1.18-.63,1.51-1.13,1.67-1.68.27-.93-.22-1.7-1.45-2.06-.82-.3-1.73-.2-2.47.25l-.44-.68c.97-.57,2.14-.68,3.2-.31,1.64.47,2.43,1.61,2,3-.23.77-.67,1.39-2.06,2.14l-3.54,1.9,4.49,1.2Z"/>
      <path class="cls-14" d="M369.04,281.26c-.4,1.35-1.68,2.1-3.63,1.53-1.08-.27-2.01-.95-2.61-1.89l.6-.54c.5.83,1.3,1.43,2.23,1.67,1.34.39,2.26,0,2.55-1s-.21-1.81-1.71-2.24l-.58-.17.18-.62,3.05-2.15-4.13-1.2.22-.74,5.19,1.51-.17.59-3.12,2.21c1.7.58,2.3,1.74,1.93,3.04Z"/>
      <rect class="cls-14" x="336.57" y="248.97" width="3.65" height="67.41" transform="translate(-27.64 528.51) rotate(-73.76)"/>
      <rect class="cls-14" x="350.29" y="276.97" width="3.66" height="34.58" transform="translate(-28.88 550.03) rotate(-73.76)"/>
      <rect class="cls-6" x="251.82" y="211.28" width="21.13" height="28.29" rx="4.96" ry="4.96" transform="translate(-27.46 414.24) rotate(-73.75)"/>
      <path class="cls-14" d="M247.5,225.98l.38-1.3,14,4.08c1.62.47,3.31-.46,3.78-2.07.47-1.62-.46-3.31-2.07-3.78l-14-4.07.38-1.3,14,4.07c2.3.79,3.53,3.3,2.74,5.6-.74,2.15-2.99,3.39-5.2,2.86l-14.01-4.08Z"/>
      <rect class="cls-14" x="270.4" y="223.25" width="1.36" height="10" transform="translate(-24.07 424.37) rotate(-73.7)"/>
      <rect class="cls-14" x="290.77" y="172.35" width="6.24" height="72.75" transform="translate(11.26 432.47) rotate(-73.75)"/>
    </g>
    <g>
      <path class="cls-13" d="M364.17,209.77l-17.17-11.28s-8.39,24.16-11,24.4c-14.24,1.3-29.48-3.43-34.82-5.29-.54-.61-1.16-1.34-1.85-2.24-.59-.77-1.04-1.64-1.34-2.56-.42-1.13-.67-2.32-.76-3.52.06-.62-.4-1.16-1.01-1.22-.34-.03-.67.09-.91.34-.62.8-.78,3.85.63,7.14s-3.57.67-5.4-.25-7.63-3.5-8.36-3.16c-1.06.5-.73,1.73,1.12,2.61s7.21,3.89,6.68,4.83c-.53.94-9.78-3.88-9.78-3.88,0,0-1.81-1.34-2.46-.27-1.18,1.93,9,6.31,10,6.7.68.28.14,1.32-.58,1-.72-.32-9.12-5-10.33-3.06-.93,1.5,8.37,3.69,9.57,5.62,1.2,1.93-6.89-2.37-7.72-.91-.31.55-.46,1,4.54,2.81,3.66,1.14,7.38,2.09,11.14,2.84v.05s51.06,22.86,60.72.81c10.35-23.5,9.09-21.51,9.09-21.51Z"/>
      <path class="cls-15" d="M352.9,176.74s15.6,1.84,14,20.4c-1.04,11.47-4.27,22.64-9.5,32.91l-20.46-10.74c4.61-9.19,8.07-18.91,10.32-28.94l5.69-13.63h-.05Z"/>
      <g class="cls-16">
        <path class="cls-14" d="M352.9,176.74s15.6,1.84,14,20.4c-1.04,11.47-4.27,22.64-9.5,32.91l-20.46-10.74c4.61-9.19,8.07-18.91,10.32-28.94l5.69-13.63h-.05Z"/>
      </g>
      <path class="cls-3" d="M362.42,184.72c0,.09-1.45-.26-3.94-.32l.17-.19c.59,2.34,1.37,5.46,2.28,9.06l.1.42-.41-.11-6.36-1.72-1.73-.48.34-.27c.14,3.45.27,6.65.38,9.4v.3l-.28-.08-6.11-1.71-1.69-.5c-.2-.05-.4-.13-.58-.23.21,0,.42.04.62.1l1.72.39,6.13,1.52-.27.23c-.14-2.75-.3-5.95-.47-9.39v-.37l.36.1,1.73.48,6.34,1.77-.31.31c-.84-3.63-1.56-6.77-2.11-9.13l-.05-.2h.22c.98.05,1.95.17,2.91.37.34.05.68.13,1.01.25Z"/>
      <path class="cls-3" d="M363.68,210.08c-.28-.21-.53-.46-.72-.75-.42-.53-.88-1.41-1.54-2.43h.27c-1.62,3.16-3.51,6.17-5.66,9l-.2.27-.21-.27c-1-1.25-2-2.58-3-4l-2.3-3h.38l-3.7,3.26-1.66,1.43-.77.67-.37.32-.09.08h-.11c0,.09-.33-.12-.26-.21s0,0,0,0v-.06h0s.07.17.1.16,0,0,0,0l-.17.05-.06-.19c-.59-2-1-3.58-1.25-4.72-.17-.58-.24-1.19-.2-1.79,0,0,.1.63.41,1.74s.78,2.7,1.43,4.65l-.23-.14c.07-.02.15-.02.22,0,.1.03.17.13.17.24,0,.05,0,.09,0,.14h-.05l-.14-.06s-.03-.07-.06-.1l-.06-.06h.05l.08-.08.37-.33.76-.68c.52-.47,1.06-1,1.63-1.46l3.65-3.25.21-.19.18.23,2.3,3c1.06,1.38,2.08,2.72,3,4h-.41c2.15-2.8,4.08-5.75,5.79-8.84l.14-.24.14.23c.64,1.07,1,2,1.41,2.51s.56.84.53.87Z"/>
    </g>
  </g>
</svg>