<?xml version="1.0" encoding="UTF-8"?>
<svg xmlns="http://www.w3.org/2000/svg" viewBox="0 0 465.38 439.11">
  <defs>
    <style>
      .cls-1 {
        fill: #e8505b;
      }

      .cls-1, .cls-2, .cls-3, .cls-4, .cls-5, .cls-6, .cls-7, .cls-8, .cls-9, .cls-10, .cls-11, .cls-12, .cls-13, .cls-14 {
        stroke-width: 0px;
      }

      .cls-2 {
        fill: #ffbe9d;
      }

      .cls-3 {
        fill: #a2be55;
      }

      .cls-4 {
        fill: #a255d8;
      }

      .cls-5 {
        fill: #e0e0e0;
      }

      .cls-6 {
        fill: #000;
      }

      .cls-7 {
        fill: #eb996e;
      }

      .cls-8 {
        fill: #455a64;
      }

      .cls-9 {
        fill: #263238;
      }

      .cls-10 {
        fill: #f7e643;
      }

      .cls-11 {
        fill: #8232a2;
      }

      .cls-15 {
        opacity: .3;
      }

      .cls-16 {
        opacity: .6;
      }

      .cls-17 {
        opacity: .5;
      }

      .cls-12 {
        fill: #ae6fc3;
      }

      .cls-13 {
        fill: #fafafa;
      }

      .cls-14 {
        fill: #fff;
      }
    </style>
  </defs>
  <g id="Background_Complete" data-name="Background Complete">
    <g>
      <rect class="cls-5" x="59.69" y="8.57" width="117.9" height="111.82" rx="6.79" ry="6.79" transform="translate(13.52 -20.27) rotate(10.35)"/>
      <g>
        <g>
          <path class="cls-13" d="M135.05,84.59s-.27-.01-.79-.09c-.56-.09-1.31-.21-2.25-.36-2.01-.34-4.84-.82-8.33-1.42-7.1-1.26-16.9-2.99-27.94-4.94l-.23-.04v-.23c.07-1.51.13-3.12.19-4.74.59-13.88,1.11-26.26,1.45-34.36l.14.17c-3.14-.6-5.65-1.08-7.42-1.42-.83-.17-1.48-.3-1.97-.4-.45-.1-.68-.15-.67-.17,0-.02.24.01.69.08.5.08,1.15.18,1.99.31,1.78.3,4.3.73,7.45,1.26l.14.02v.15c-.3,8.1-.75,20.48-1.26,34.37-.06,1.62-.13,3.23-.19,4.74l-.22-.27c11.02,2.02,20.81,3.81,27.91,5.11,3.48.66,6.3,1.2,8.3,1.58.94.19,1.68.34,2.24.45.51.11.77.17.77.19Z"/>
          <path class="cls-13" d="M96.11,69.17s.07,0,.2.01c.16.02.35.05.58.08.55.09,1.3.21,2.25.36,2,.34,4.85.83,8.42,1.44,7.22,1.28,17.31,3.06,28.99,5.13l-.29.16c1.74-4.72,3.62-9.83,5.56-15.11,1-2.72,1.99-5.39,2.93-7.93l.2.35c-13.55-2.48-25.52-4.66-34.14-6.24-4.26-.8-7.69-1.45-10.1-1.9-1.15-.23-2.06-.41-2.72-.54-.29-.06-.52-.11-.7-.15-.16-.04-.24-.06-.24-.07,0,0,.08,0,.24.02.19.03.42.06.71.1.66.11,1.57.26,2.73.45,2.42.42,5.86,1.01,10.13,1.74,8.63,1.53,20.6,3.66,34.17,6.06l.31.06-.11.3c-.94,2.55-1.92,5.22-2.92,7.94-1.95,5.28-3.84,10.39-5.58,15.11l-.07.2-.21-.04c-11.67-2.14-21.75-3.99-28.96-5.31-3.55-.67-6.39-1.21-8.39-1.59-.95-.19-1.69-.34-2.24-.45-.23-.05-.42-.09-.58-.13-.13-.03-.19-.05-.19-.06Z"/>
          <path class="cls-13" d="M103.68,89.94s.01-.36-.05-.97c-.07-.6-.32-1.51-1.07-2.3-.72-.79-2.03-1.38-3.43-1.12-1.38.22-2.75,1.41-3.03,3.03-.31,1.61.56,3.2,1.78,3.89,1.22.73,2.65.63,3.61.15.98-.48,1.54-1.24,1.81-1.78.28-.55.34-.9.39-.89.02,0,.03.37-.2.98-.23.6-.77,1.46-1.83,2.03-1.02.58-2.62.75-4.03-.06-1.4-.75-2.42-2.57-2.06-4.42.32-1.85,1.9-3.2,3.48-3.42,1.6-.26,3.04.45,3.79,1.35.79.9,1,1.9,1,2.54,0,.65-.13.99-.15.99Z"/>
          <path class="cls-13" d="M128.95,94.49s.01-.36-.05-.97c-.07-.6-.32-1.51-1.07-2.3-.72-.79-2.03-1.38-3.43-1.12-1.38.22-2.75,1.41-3.03,3.03-.31,1.61.56,3.2,1.78,3.89,1.22.73,2.65.63,3.61.15.98-.48,1.54-1.24,1.81-1.78.28-.55.34-.9.39-.89.02,0,.03.37-.2.98-.23.6-.77,1.46-1.83,2.03-1.02.58-2.62.75-4.03-.06-1.4-.75-2.42-2.57-2.06-4.42.32-1.85,1.9-3.2,3.48-3.42,1.6-.26,3.04.45,3.79,1.35.79.9,1,1.9,1,2.54,0,.65-.13.99-.15.99Z"/>
          <path class="cls-13" d="M154.78,51.06c-1.11,6.19-7.03,10.3-13.22,9.19-6.19-1.11-10.3-7.03-9.19-13.22,1.11-6.19,7.03-10.3,13.22-9.19,6.19,1.11,10.3,7.03,9.19,13.22Z"/>
        </g>
        <g>
          <path class="cls-5" d="M142.85,55.27s.04.09.04.27l-.18-.04c0-.71.35-3,.89-5.68.65-3.26,1.31-5.86,1.49-5.83.18.04-.2,2.7-.85,5.96-.53,2.68-1.08,4.93-1.35,5.59l-.18-.04c.06-.17.11-.25.14-.24Z"/>
          <path class="cls-5" d="M149.82,50.93c-.04.18-2.69-.2-5.93-.84-3.24-.64-5.84-1.31-5.81-1.49.04-.18,2.69.2,5.93.85,3.24.64,5.84,1.31,5.81,1.49Z"/>
        </g>
      </g>
    </g>
    <g>
      <path class="cls-5" d="M389.93,102.7s.27-.04.8-.08c.56-.04,1.35-.1,2.36-.17.52-.02,1.1-.1,1.74-.09.64.02,1.35.05,2.11.08.76.04,1.59.03,2.46.13.87.12,1.8.25,2.78.39,3.89.66,8.67,1.86,13.67,4.5,5,2.59,10.24,6.56,14.63,12.17.54.71,1.09,1.42,1.64,2.14.5.76.97,1.55,1.47,2.33,1.06,1.54,1.8,3.3,2.68,5.03,1.5,3.57,2.84,7.42,3.39,11.57.42,2.06.45,4.19.58,6.35.05,1.08-.07,2.17-.1,3.26l-.07,1.65c-.05.55-.15,1.1-.23,1.65-.48,4.44-1.85,8.88-3.79,13.15-3.83,8.6-10.88,16.25-19.88,21.13-4.49,2.48-9.55,4.07-14.77,4.84-5.22.89-10.68.68-16-.41-.68-.14-1.36-.3-2.04-.47l.29-.04c-7.2,4.49-14.26,8.89-21.09,13.15l-.74.46.19-.85c1.63-7.3,3.22-14.37,4.74-21.16l.13.35c-6.24-4.84-10.96-11.09-13.88-17.75-1.45-3.34-2.47-6.77-3.08-10.17-.31-1.7-.53-3.4-.58-5.09-.05-.84-.09-1.68-.14-2.51-.04-.83.06-1.65.08-2.47.27-6.55,1.97-12.61,4.46-17.75,2.49-5.16,5.76-9.4,9.16-12.76,3.37-3.43,7.07-5.71,10.31-7.56,3.33-1.72,6.34-2.85,8.85-3.54,1.26-.32,2.37-.6,3.34-.84.98-.14,1.81-.26,2.49-.36.65-.09,1.15-.16,1.52-.21.34-.04.52-.05.52-.05,0,0-.17.05-.51.11-.37.07-.86.15-1.51.27-.67.11-1.5.25-2.47.42-.96.26-2.07.56-3.32.89-2.49.72-5.46,1.88-8.76,3.61-3.2,1.87-6.85,4.16-10.17,7.57-3.35,3.35-6.56,7.57-9,12.68-2.44,5.09-4.09,11.08-4.34,17.55-.02.81-.11,1.62-.07,2.44.05.82.09,1.64.14,2.47.06,1.66.28,3.34.59,5.02.61,3.36,1.63,6.74,3.06,10.02,2.89,6.56,7.55,12.7,13.71,17.46l.18.14-.05.22c-1.51,6.79-3.09,13.87-4.71,21.17l-.55-.39c6.83-4.26,13.89-8.67,21.09-13.16l.13-.08.15.04c.66.17,1.33.32,2.01.47,5.23,1.07,10.61,1.28,15.74.4,5.14-.76,10.12-2.32,14.54-4.75,8.86-4.8,15.82-12.31,19.61-20.78,1.93-4.2,3.28-8.58,3.77-12.95.07-.54.17-1.08.23-1.63l.08-1.63c.03-1.08.15-2.15.1-3.22-.13-2.13-.15-4.23-.56-6.26-.53-4.1-1.84-7.91-3.31-11.43-.86-1.71-1.59-3.45-2.63-4.98-.49-.78-.95-1.56-1.44-2.31-.54-.72-1.08-1.42-1.61-2.12-4.31-5.56-9.47-9.52-14.41-12.13-4.94-2.65-9.67-3.88-13.53-4.58-.97-.15-1.89-.29-2.76-.42-.87-.11-1.69-.1-2.44-.16-.76-.04-1.46-.08-2.1-.11-.64-.03-1.22.04-1.74.05-1.02.04-1.8.07-2.36.09-.53.02-.81,0-.81,0Z"/>
      <g>
        <polygon class="cls-5" points="381.31 127.44 375.9 168.44 416 168.44 410.15 127.44 381.31 127.44"/>
        <path class="cls-14" d="M406.9,133.39s.01.44-.21,1.19c-.23.74-.65,1.8-1.43,2.97-.78,1.16-1.95,2.43-3.58,3.36-1.62.94-3.69,1.47-5.83,1.47-2.14.02-4.21-.43-5.86-1.35-1.66-.9-2.81-2.22-3.55-3.4-.74-1.2-1.1-2.28-1.29-3.03-.19-.76-.2-1.19-.15-1.2.12-.04.37,1.7,1.87,3.94.76,1.09,1.87,2.29,3.43,3.09,1.55.82,3.49,1.23,5.53,1.21,2.04,0,3.97-.48,5.51-1.33,1.55-.84,2.69-1.99,3.48-3.07,1.59-2.18,1.96-3.9,2.07-3.85Z"/>
      </g>
    </g>
  </g>
  <g id="Floor">
    <path class="cls-9" d="M465.38,429.05c0,.14-104.19.26-232.68.26s-232.7-.12-232.7-.26,104.16-.26,232.7-.26,232.68.12,232.68.26Z"/>
  </g>
  <g id="Device">
    <g>
      <g>
        <g>
          <path class="cls-9" d="M305.74,429.05h-132.67c-15.98-.07-29.06-13.7-29-29.68l1.41-333.09c.07-15.99,13.09-28.89,29.07-28.82l132.86.61c15.98.07,28.88,13.08,28.81,29.06l-1.41,333.09c-.07,15.99-13.09,28.89-29.07,28.82Z"/>
          <path class="cls-13" d="M307.23,49.57l-25.76-.12c-3.45-.02-6.27,2.9-6.28,6.51l-.02,4.67c-.01,3.61-2.83,6.53-6.28,6.51l-50.21-.23c-3.45-.02-6.24-2.96-6.23-6.57l.02-4.67c.01-3.61-2.77-6.55-6.23-6.57l-9.06-.04-22.55-.1c-11.2-.05-20.31,8.99-20.36,20.18l-1.37,325.12c-.05,11.19,8.98,20.3,20.18,20.36l132.6.61c11.2.05,20.31-8.99,20.36-20.18l1.37-325.12c.05-11.19-8.98-20.3-20.18-20.35Z"/>
        </g>
        <g>
          <path class="cls-9" d="M191.99,82.79c0,.14-4.44.26-9.91.26s-9.91-.12-9.91-.26,4.44-.26,9.91-.26,9.91.12,9.91.26Z"/>
          <path class="cls-9" d="M191.99,79.05c0,.14-4.44.26-9.91.26s-9.91-.12-9.91-.26,4.44-.26,9.91-.26,9.91.12,9.91.26Z"/>
          <path class="cls-9" d="M191.99,75.3c0,.14-4.44.26-9.91.26s-9.91-.12-9.91-.26,4.44-.26,9.91-.26,9.91.12,9.91.26Z"/>
        </g>
      </g>
      <g>
        <path class="cls-4" d="M174.43,362.27h131.43c1.78,0,3.22,1.44,3.22,3.22v25.1c0,1.78-1.44,3.22-3.22,3.22h-131.43c-1.78,0-3.22-1.44-3.22-3.22v-25.1c0-1.78,1.44-3.22,3.22-3.22Z"/>
        <g>
          <g>
            <g class="cls-15">
              <rect class="cls-6" x="186.2" y="368.67" width="19.52" height="19.52" rx="3.12" ry="3.12"/>
            </g>
            <g>
              <path class="cls-14" d="M195.97,384.1c-.28,0-.5-.22-.5-.5v-10.33c0-.28.22-.5.5-.5s.5.22.5.5v10.33c0,.28-.22.5-.5.5Z"/>
              <path class="cls-14" d="M201.04,378.93h-10.14c-.28,0-.5-.22-.5-.5s.22-.5.5-.5h10.14c.28,0,.5.22.5.5s-.22.5-.5.5Z"/>
            </g>
          </g>
          <g>
            <path class="cls-14" d="M222.85,380.29h-3.45l-.71,1.62h-.95l2.94-6.48h.92l2.95,6.48h-.97l-.71-1.62ZM222.53,379.55l-1.4-3.18-1.4,3.18h2.8Z"/>
            <path class="cls-14" d="M225.5,375.43h2.73c2.08,0,3.5,1.32,3.5,3.24s-1.42,3.24-3.5,3.24h-2.73v-6.48ZM228.18,381.1c1.6,0,2.63-.98,2.63-2.44s-1.03-2.44-2.63-2.44h-1.75v4.87h1.75Z"/>
            <path class="cls-14" d="M233.16,375.43h2.73c2.08,0,3.5,1.32,3.5,3.24s-1.42,3.24-3.5,3.24h-2.73v-6.48ZM235.84,381.1c1.6,0,2.63-.98,2.63-2.44s-1.03-2.44-2.63-2.44h-1.75v4.87h1.75Z"/>
            <path class="cls-14" d="M244.6,376.23h-2.22v-.81h5.36v.81h-2.22v5.68h-.92v-5.68Z"/>
            <path class="cls-14" d="M248.13,378.67c0-1.9,1.46-3.32,3.45-3.32s3.44,1.41,3.44,3.32-1.46,3.32-3.44,3.32-3.45-1.42-3.45-3.32ZM254.09,378.67c0-1.44-1.07-2.49-2.51-2.49s-2.53,1.06-2.53,2.49,1.07,2.49,2.53,2.49,2.51-1.06,2.51-2.49Z"/>
            <path class="cls-14" d="M258.41,378.67c0-1.92,1.46-3.32,3.44-3.32,1,0,1.87.34,2.46,1.01l-.6.58c-.5-.53-1.11-.77-1.82-.77-1.46,0-2.55,1.06-2.55,2.49s1.08,2.49,2.55,2.49c.71,0,1.32-.25,1.82-.78l.6.58c-.59.67-1.46,1.02-2.47,1.02-1.96,0-3.43-1.4-3.43-3.32Z"/>
            <path class="cls-14" d="M269.61,380.29h-3.45l-.71,1.62h-.95l2.94-6.48h.92l2.95,6.48h-.97l-.71-1.62ZM269.29,379.55l-1.4-3.18-1.4,3.18h2.8Z"/>
            <path class="cls-14" d="M276.6,381.91l-1.4-1.99c-.13,0-.27.02-.41.02h-1.6v1.97h-.93v-6.48h2.53c1.69,0,2.71.85,2.71,2.26,0,1-.52,1.72-1.43,2.05l1.54,2.18h-1.01ZM276.57,377.69c0-.93-.62-1.45-1.81-1.45h-1.58v2.92h1.58c1.19,0,1.81-.54,1.81-1.46Z"/>
            <path class="cls-14" d="M280.2,376.23h-2.22v-.81h5.36v.81h-2.22v5.68h-.92v-5.68Z"/>
          </g>
        </g>
      </g>
      <g>
        <polygon class="cls-10" points="182.21 302.28 183.91 305.72 187.71 306.27 184.96 308.95 185.61 312.73 182.21 310.95 178.81 312.73 179.46 308.95 176.71 306.27 180.51 305.72 182.21 302.28"/>
        <polygon class="cls-10" points="196.23 302.28 197.93 305.72 201.73 306.27 198.98 308.95 199.63 312.73 196.23 310.95 192.84 312.73 193.48 308.95 190.74 306.27 194.53 305.72 196.23 302.28"/>
        <polygon class="cls-10" points="210.25 302.28 211.95 305.72 215.75 306.27 213 308.95 213.65 312.73 210.25 310.95 206.86 312.73 207.51 308.95 204.76 306.27 208.56 305.72 210.25 302.28"/>
        <polygon class="cls-10" points="224.28 302.28 225.97 305.72 229.77 306.27 227.02 308.95 227.67 312.73 224.28 310.95 220.88 312.73 221.53 308.95 218.78 306.27 222.58 305.72 224.28 302.28"/>
        <polygon class="cls-5" points="238.3 302.28 240 305.72 243.79 306.27 241.05 308.95 241.69 312.73 238.3 310.95 234.9 312.73 235.55 308.95 232.8 306.27 236.6 305.72 238.3 302.28"/>
        <g>
          <path class="cls-6" d="M258.87,310.26v.77h-4.47v-.6l2.53-2.44c.66-.64.78-1.03.78-1.42,0-.64-.45-1.03-1.32-1.03-.67,0-1.21.21-1.59.67l-.6-.52c.48-.6,1.31-.94,2.27-.94,1.3,0,2.13.67,2.13,1.73,0,.6-.18,1.15-1.02,1.95l-1.9,1.83h3.19Z"/>
          <path class="cls-6" d="M263.85,309.2c0,1.05-.77,1.9-2.35,1.9-.89,0-1.76-.28-2.28-.75l.41-.7c.42.39,1.11.67,1.87.67.93,0,1.46-.43,1.46-1.1s-.47-1.08-1.54-1.08h-.5v-.62l1.56-1.92h-2.99v-.77h4.1v.6l-1.62,2.01c1.24.12,1.87.82,1.87,1.78Z"/>
          <path class="cls-6" d="M271.72,311.03l-1.34-1.91c-.12,0-.26.02-.39.02h-1.54v1.89h-.89v-6.22h2.42c1.62,0,2.59.82,2.59,2.17,0,.96-.5,1.65-1.37,1.96l1.47,2.09h-.97ZM271.7,306.98c0-.89-.59-1.39-1.73-1.39h-1.51v2.8h1.51c1.14,0,1.73-.51,1.73-1.4Z"/>
          <path class="cls-6" d="M278.13,308.96h-3.82c.11.83.77,1.38,1.71,1.38.55,0,1.01-.19,1.36-.57l.47.55c-.43.5-1.07.76-1.86.76-1.52,0-2.53-1-2.53-2.41s1-2.4,2.36-2.4,2.33.98,2.33,2.42c0,.07,0,.18-.02.26ZM274.31,308.35h3.02c-.09-.79-.68-1.35-1.51-1.35s-1.42.55-1.51,1.35Z"/>
          <path class="cls-6" d="M283.41,306.32l-2.06,4.71h-.87l-2.06-4.71h.89l1.62,3.77,1.65-3.77h.83Z"/>
          <path class="cls-6" d="M284.05,304.87c0-.31.25-.56.58-.56s.58.24.58.54c0,.32-.24.57-.58.57s-.58-.24-.58-.55ZM284.2,306.32h.85v4.71h-.85v-4.71Z"/>
          <path class="cls-6" d="M290.92,308.96h-3.82c.11.83.77,1.38,1.71,1.38.55,0,1.01-.19,1.36-.57l.47.55c-.43.5-1.07.76-1.86.76-1.52,0-2.53-1-2.53-2.41s1-2.4,2.36-2.4,2.33.98,2.33,2.42c0,.07,0,.18-.02.26ZM287.1,308.35h3.02c-.09-.79-.68-1.35-1.51-1.35s-1.42.55-1.51,1.35Z"/>
          <path class="cls-6" d="M299.15,306.32l-1.76,4.71h-.82l-1.36-3.57-1.38,3.57h-.82l-1.75-4.71h.81l1.37,3.75,1.42-3.75h.72l1.39,3.77,1.4-3.77h.76Z"/>
          <path class="cls-6" d="M299.35,310.53l.36-.67c.4.28,1.04.49,1.65.49.79,0,1.12-.24,1.12-.64,0-1.06-2.97-.14-2.97-2.02,0-.84.75-1.41,1.96-1.41.61,0,1.3.16,1.71.43l-.36.67c-.43-.27-.9-.37-1.36-.37-.75,0-1.11.27-1.11.65,0,1.11,2.98.2,2.98,2.03,0,.85-.78,1.39-2.03,1.39-.78,0-1.55-.24-1.95-.55Z"/>
        </g>
      </g>
      <g>
        <path class="cls-6" d="M182.23,337.67v1.85h-1.05v-1.85c-1.6-.08-3.13-.64-3.98-1.42l.61-1.28c.77.7,2.05,1.23,3.37,1.31v-3.8c-1.8-.44-3.7-1.02-3.7-3.24,0-1.62,1.16-3.03,3.7-3.24v-1.87h1.05v1.85c1.23.05,2.46.41,3.32,1l-.54,1.31c-.88-.56-1.87-.87-2.78-.92v3.81c1.83.46,3.8,1,3.8,3.24,0,1.62-1.21,3.03-3.8,3.24ZM181.18,330.92v-3.54c-1.46.18-2.1.92-2.1,1.78,0,1.01.92,1.44,2.1,1.75ZM184.42,334.53c0-1.05-.98-1.46-2.19-1.78v3.52c1.52-.15,2.19-.85,2.19-1.74Z"/>
        <path class="cls-6" d="M201.86,334.74h-2.18v2.82h-1.59v-2.82h-6.37v-1.15l5.86-7.5h1.77l-5.62,7.24h4.4v-2.49h1.54v2.49h2.18v1.41Z"/>
        <path class="cls-6" d="M202.84,331.82c0-3.73,2-5.86,4.68-5.86s4.67,2.13,4.67,5.86-2,5.86-4.67,5.86-4.68-2.13-4.68-5.86ZM210.55,331.82c0-2.93-1.24-4.4-3.03-4.4s-3.05,1.47-3.05,4.4,1.25,4.4,3.05,4.4,3.03-1.47,3.03-4.4Z"/>
        <path class="cls-6" d="M213.53,336.52c0-.66.51-1.11,1.11-1.11s1.08.46,1.08,1.11-.49,1.13-1.08,1.13-1.11-.48-1.11-1.13Z"/>
        <path class="cls-6" d="M226.48,334.31c0,2.08-1.77,3.37-4.57,3.37s-4.54-1.29-4.54-3.37c0-1.31.72-2.28,2.01-2.77-1.05-.49-1.6-1.34-1.6-2.47,0-1.92,1.65-3.11,4.13-3.11s4.16,1.2,4.16,3.11c0,1.13-.57,1.98-1.62,2.47,1.31.51,2.03,1.46,2.03,2.77ZM224.84,334.26c0-1.26-1.11-2.05-2.93-2.05s-2.9.79-2.9,2.05,1.08,2.1,2.9,2.1,2.93-.8,2.93-2.1ZM219.4,329.14c0,1.13.93,1.83,2.5,1.83s2.55-.7,2.55-1.83-1.01-1.85-2.55-1.85-2.5.7-2.5,1.85Z"/>
        <path class="cls-6" d="M227.98,331.82c0-3.73,2-5.86,4.68-5.86s4.67,2.13,4.67,5.86-2,5.86-4.67,5.86-4.68-2.13-4.68-5.86ZM235.69,331.82c0-2.93-1.24-4.4-3.03-4.4s-3.05,1.47-3.05,4.4,1.25,4.4,3.05,4.4,3.03-1.47,3.03-4.4Z"/>
      </g>
      <g>
        <rect class="cls-12" x="185.47" y="154.62" width="109.35" height="103.71" rx="6.79" ry="6.79" transform="translate(-.33 .39) rotate(-.09)"/>
        <rect class="cls-9" x="219.59" y="219.56" width="2.24" height="19.67" transform="translate(-.36 .34) rotate(-.09)"/>
        <rect class="cls-9" x="227.47" y="219.54" width="2.24" height="10.04" transform="translate(-.37 .38) rotate(-.09)"/>
        <rect class="cls-9" x="250.01" y="219.51" width="2.24" height="10.04" transform="translate(-.36 .4) rotate(-.09)"/>
        <rect class="cls-9" x="259.96" y="219.49" width="2.24" height="19.67" transform="translate(-.37 .42) rotate(-.09)"/>
        <g>
          <path class="cls-13" d="M213.29,198.96l6.33,21.6,42.53-.07,6.67-20.74s-4.47-1.42-7.32-.8l-.83-22.99c-.08-2.23-2.39-3.68-4.43-2.79l-4.13,1.81-23.99.04-2.76-1.38c-2.09-1.04-4.53.49-4.51,2.82l.2,22.75s-3.7-1.07-7.77-.26Z"/>
          <path class="cls-5" d="M227.98,210.2c2.31,2.61,5.57,4.27,8.97,4.99s6.96.51,10.37-.22c1.86-.39,3.86-1.07,4.82-2.71,1-1.69.57-3.82.12-5.72-.58-2.44-1.18-4.92-2.42-7.11-1.24-2.18-3.24-4.07-5.7-4.58-3.33-.69-6.67,1.24-9.13,3.59-3.23,3.09-5.63,7.03-6.87,11.32"/>
          <path class="cls-9" d="M228.56,208.04c-.17,0-.32-7.37-.33-16.45-.01-9.09.11-16.45.28-16.45.17,0,.32,7.36.33,16.45.01,9.08-.11,16.45-.28,16.45Z"/>
          <path class="cls-9" d="M252.59,208c-.17,0-.32-7.37-.33-16.45-.01-9.09.11-16.45.28-16.45.17,0,.32,7.36.33,16.45.01,9.08-.11,16.45-.28,16.45Z"/>
          <path class="cls-9" d="M261.51,198.95s-.38.15-1.1.33c-.19.05-.39.1-.6.15-.22.08-.45.17-.69.27-.25.1-.52.2-.8.31-.27.15-.55.3-.85.46-1.17.67-2.47,1.77-3.35,3.41-.9,1.62-1.35,3.78-1.15,6.01l.03.31h-.3c-3.44.02-7.3.03-11.37.05-4.62,0-8.98-.01-12.74-.02h-.27s0-.27,0-.27c-.05-2.09-.66-3.98-1.51-5.46-.83-1.51-1.88-2.62-2.81-3.42-1.92-1.6-3.37-1.97-3.32-2.07,0-.02.36.07.99.32.63.26,1.53.72,2.53,1.5.99.79,2.11,1.91,3,3.45.91,1.52,1.59,3.48,1.66,5.68l-.27-.27c3.77-.02,8.12-.04,12.74-.06,4.07,0,7.93,0,11.37.01l-.28.31c-.18-2.4.32-4.61,1.3-6.31.97-1.72,2.36-2.83,3.59-3.48.31-.16.61-.3.89-.45.29-.1.57-.19.83-.28.25-.08.49-.16.72-.23.22-.04.43-.08.62-.11.74-.13,1.14-.19,1.14-.16Z"/>
          <path class="cls-9" d="M228.11,210.11c.02.1-.79.25-1.97.79-1.17.53-2.7,1.53-3.88,3.1-1.18,1.57-1.71,3.32-1.89,4.6-.19,1.28-.11,2.1-.21,2.11-.07.01-.31-.8-.22-2.16.08-1.34.57-3.24,1.83-4.92,1.26-1.68,2.94-2.68,4.21-3.13,1.28-.46,2.13-.46,2.13-.39Z"/>
          <path class="cls-9" d="M261.73,220.94c-.1,0-.12-.91-.48-2.3-.35-1.38-1.12-3.26-2.54-4.9-1.43-1.65-3.17-2.67-4.49-3.21-1.33-.55-2.23-.7-2.21-.8,0-.07.94-.07,2.36.39,1.41.45,3.29,1.48,4.81,3.22,1.51,1.74,2.25,3.75,2.5,5.21.26,1.47.12,2.4.05,2.39Z"/>
        </g>
      </g>
      <path class="cls-1" d="M295.47,336.47s-.08,0-.11-.01c-.03,0-.05-.01-.08-.02-.06-.02-.12-.06-.17-.11l-3.57-3.64c-1.16-1.19-1.59-2.86-1.11-4.36.42-1.3,1.35-2,2.69-2.02.89.01,1.54.24,2.04.75.12.12.22.25.31.39.09-.14.2-.28.33-.41.5-.5,1.19-.74,2.02-.74,1.34.02,2.27.72,2.69,2.02h0c.48,1.5.05,3.17-1.11,4.36l-3.57,3.64c-.1.1-.22.15-.36.15ZM293.18,327.3h-.04c-.91.01-1.47.43-1.75,1.32-.37,1.15-.03,2.43.87,3.35l3.21,3.28,3.21-3.28c.9-.92,1.24-2.21.87-3.35-.28-.89-.84-1.31-1.75-1.32-.56,0-1.01.14-1.31.45-.54.55-.53,1.46-.53,1.47,0,.08-.02.17-.05.24-.1.21-.34.31-.57.26-.22-.06-.37-.25-.38-.48h0v-.07c0-.19-.05-.95-.53-1.43-.29-.3-.72-.45-1.26-.45Z"/>
      <g>
        <path class="cls-9" d="M277.88,126.49c0,.14-16.89.26-37.73.26s-37.73-.12-37.73-.26,16.89-.26,37.73-.26,37.73.12,37.73.26Z"/>
        <rect class="cls-11" x="211.39" y="116.03" width="56.22" height="3.2"/>
      </g>
      <path class="cls-9" d="M291.19,286.05c0,.14-22.85.26-51.03.26s-51.04-.12-51.04-.26,22.85-.26,51.04-.26,51.03.12,51.03.26Z"/>
      <path class="cls-9" d="M276.82,277.24c0,.14-16.42.26-36.67.26s-36.67-.12-36.67-.26,16.42-.26,36.67-.26,36.67.12,36.67.26Z"/>
      <g>
        <g>
          <path class="cls-9" d="M309.49,83.14c0,.08-1.42.15-3.77.2-2.34.05-5.6.09-9.27.1h-.25s-.04-.25-.04-.25c-.07-.49-.14-1.01-.22-1.54-.63-4.5-1.15-8.53-1.45-11.14l.18.16c-2.11-.05-3.35-.12-3.35-.19s1.24-.14,3.35-.19h.16s.03.16.03.16c.43,2.59,1.03,6.61,1.66,11.11.07.53.14,1.05.21,1.54l-.29-.25c3.67,0,6.93.04,9.27.1,2.34.05,3.77.12,3.77.2Z"/>
          <path class="cls-9" d="M296.08,80.44s.35-.07,1-.1c.76-.02,1.68-.05,2.79-.08,2.38-.05,5.73-.09,9.62-.1l-.28.23c.28-1.62.59-3.37.9-5.18.17-.93.33-1.85.48-2.72l.29.34c-4.51-.01-8.48-.05-11.34-.1-1.34-.04-2.46-.06-3.36-.09-.79-.03-1.22-.07-1.22-.1s.43-.07,1.22-.1c.9-.02,2.02-.05,3.36-.09,2.85-.05,6.83-.09,11.34-.1h.35s-.06.34-.06.34c-.15.87-.31,1.79-.48,2.72-.32,1.81-.64,3.56-.93,5.18l-.04.23h-.24c-3.88-.02-7.24-.06-9.62-.11-1.1-.03-2.03-.06-2.79-.08-.65-.03-1-.06-1-.1Z"/>
          <path class="cls-9" d="M299.71,86.67c-.09.02-.1-.51-.64-.87-.26-.17-.65-.25-1.01-.1-.36.14-.66.52-.66.97,0,.44.3.83.66.97.36.15.76.07,1.01-.1.54-.36.55-.89.64-.87.04,0,.09.12.07.35-.02.22-.13.57-.46.86-.32.29-.88.47-1.45.28-.56-.17-1.07-.77-1.06-1.48,0-.71.5-1.31,1.06-1.48.57-.19,1.14,0,1.45.28.33.29.44.63.46.86.02.23-.03.35-.07.35Z"/>
          <path class="cls-9" d="M308.1,86.67c-.09.02-.1-.51-.64-.87-.26-.17-.65-.25-1.01-.1-.36.14-.66.52-.66.97,0,.44.3.83.66.97.36.15.76.07,1.01-.1.54-.36.55-.89.64-.87.04,0,.09.12.07.35-.02.22-.13.57-.46.86-.32.29-.88.47-1.45.28-.56-.17-1.07-.77-1.06-1.48,0-.71.5-1.31,1.06-1.48.57-.19,1.14,0,1.45.28.33.29.44.63.46.86.02.23-.03.35-.07.35Z"/>
        </g>
        <g>
          <path class="cls-11" d="M316.78,71.73c0,3.06-2.48,5.54-5.54,5.54s-5.54-2.48-5.54-5.54,2.48-5.54,5.54-5.54,5.54,2.48,5.54,5.54Z"/>
          <path class="cls-14" d="M311.74,69.5v4.48h-.63v-3.92h-1.01v-.56h1.64Z"/>
        </g>
      </g>
    </g>
  </g>
  <g id="Character">
    <g>
      <g>
        <rect class="cls-8" x="79.96" y="340.51" width="13.23" height="88.32"/>
        <rect class="cls-8" x="70.56" y="329.89" width="100.36" height="12.23"/>
        <rect class="cls-8" x="87.35" y="378.17" width="69" height="12.23"/>
        <rect class="cls-8" x="149.74" y="340.51" width="13.23" height="88.32"/>
        <path class="cls-9" d="M170.87,341.94c0,.14-22.49.26-50.24.26s-50.24-.12-50.24-.26,22.49-.26,50.24-.26,50.24.12,50.24.26Z"/>
        <path class="cls-9" d="M93.24,400.68c-.14,0-.26-6.55-.26-14.64s.12-14.64.26-14.64.26,6.55.26,14.64-.12,14.64-.26,14.64Z"/>
        <path class="cls-9" d="M149.71,400.11c-.14,0-.26-6.09-.26-13.6s.12-13.6.26-13.6.26,6.09.26,13.6-.12,13.6-.26,13.6Z"/>
        <path class="cls-9" d="M171.44,333.23s-.36-.09-1.04-.28c-.69-.14-1.71-.38-3.05-.43-2.67-.18-6.57.41-11.05,2.1-2.25.83-4.63,1.92-7.24,3.01-2.6,1.08-5.43,2.19-8.55,2.8-3.12.63-6.53.56-9.91-.11-3.4-.66-6.79-1.85-10.17-3.24-3.39-1.39-6.64-2.87-9.87-4.07-3.22-1.2-6.44-2.09-9.58-2.48-6.29-.84-12.05-.03-16.63,1.28-4.61,1.31-8.06,3.16-10.33,4.57-.56.36-1.06.68-1.5.96-.41.3-.76.55-1.06.77-.57.41-.88.62-.88.62,0,0,.29-.23.85-.66.29-.22.64-.48,1.04-.78.44-.29.93-.62,1.49-.98,2.26-1.43,5.71-3.31,10.33-4.64,4.59-1.33,10.38-2.16,16.7-1.33,3.16.39,6.4,1.27,9.63,2.48,3.24,1.2,6.49,2.68,9.87,4.07,3.38,1.39,6.75,2.58,10.13,3.23,3.37.66,6.74.74,9.84.12,3.1-.61,5.92-1.7,8.52-2.78,2.6-1.08,4.99-2.17,7.25-2.99,4.5-1.68,8.43-2.24,11.11-2.04,1.34.07,2.36.32,3.05.47.68.2,1.03.32,1.03.32Z"/>
        <path class="cls-9" d="M96.08,336.09s-.93.63-2.81,1.2c-1.86.55-4.79.97-8.1-.03l-.14-.04.1-.1c1.59-1.55,3.71-2.97,6.24-3.89,2.53-.9,5.45-1.32,8.43-.96.93.14,1.85.31,2.73.58.87.27,1.75.54,2.49,1.09.73.53,1.24,1.44,1.07,2.34-.19.92-1.04,1.44-1.78,1.73-3.08,1.09-5.97,1.63-8.41,1.92-2.44.28-4.44.29-5.81.25-1.37-.05-2.13-.14-2.13-.14,0,0,.19,0,.55.01.42.01.94.03,1.58.05,1.37.01,3.36-.02,5.79-.32,2.42-.31,5.31-.87,8.35-1.95.72-.29,1.49-.78,1.65-1.59.15-.8-.31-1.65-1-2.14-.69-.52-1.56-.79-2.42-1.05-.87-.27-1.77-.44-2.69-.57-2.94-.36-5.83.06-8.33.94-2.5.91-4.6,2.3-6.19,3.82l-.03-.14c3.27,1.01,6.17.62,8.03.1.94-.26,1.64-.56,2.12-.77.47-.22.72-.34.72-.34Z"/>
        <path class="cls-9" d="M164.24,338.56s-.02.46.45,1.07c.44.59,1.49,1.22,2.85,1.14.67-.05,1.41-.25,2.02-.75.6-.48,1.02-1.34.84-2.19-.18-.86-1.02-1.5-1.94-1.71-.94-.22-1.97-.12-3-.07-2.08.12-4.05.39-5.79.88-1.74.48-3.22,1.17-4.36,1.92-1.14.74-1.94,1.52-2.45,2.09-.25.28-.44.52-.56.68-.12.16-.19.24-.2.24,0,0,.2-.37.69-.97.49-.59,1.28-1.39,2.43-2.16,1.14-.77,2.63-1.49,4.39-1.98,1.75-.5,3.74-.78,5.83-.9,1.04-.05,2.07-.16,3.06.08.97.22,1.88.91,2.08,1.87.19.95-.27,1.86-.92,2.37-.65.52-1.43.72-2.12.76-1.41.06-2.48-.61-2.92-1.24-.23-.32-.32-.61-.36-.81-.03-.2-.02-.31-.02-.31Z"/>
        <path class="cls-9" d="M169.55,329.47s-.18,0-.53,0c-.41,0-.91-.01-1.52-.02-.66.04-1.47.08-2.4.16-.93.13-1.99.25-3.14.51-2.32.46-5.02,1.26-7.98,2.25-2.97.98-6.2,2.17-9.71,3.06-3.5.89-6.97,1.31-10.11,1.07-3.14-.24-5.88-1.08-8.05-2.02-2.17-.96-3.79-2.02-4.85-2.81-1.06-.79-1.58-1.31-1.58-1.31,0,0,.15.11.42.32.27.22.67.53,1.21.92,1.07.77,2.69,1.81,4.86,2.74,2.17.92,4.89,1.73,8,1.97,3.11.23,6.55-.19,10.04-1.08,3.49-.89,6.72-2.07,9.7-3.04,2.97-.99,5.68-1.77,8.01-2.22,1.16-.25,2.23-.36,3.16-.48.94-.07,1.75-.1,2.41-.13.61.03,1.12.05,1.52.06.35.02.53.04.53.04Z"/>
        <path class="cls-9" d="M151.09,429.05s-.02-.31-.04-.89c-.03-.58,0-1.44.1-2.55.21-2.21.97-5.36,2.43-9.04,1.4-3.7,3.54-7.94,4.92-12.98.66-2.52,1.09-5.24,1.25-8.08.12-2.84,0-5.79-.54-8.76-.5-2.97-1.36-5.8-2.45-8.43-1.09-2.63-2.29-5.11-3.08-7.62-.81-2.5-1.09-5.05-.75-7.37.31-2.32,1.09-4.39,1.99-6.15,1.85-3.53,4.14-5.87,5.69-7.42,1.59-1.55,2.54-2.31,2.54-2.31,0,0-.22.21-.65.61-.43.4-1.06.98-1.84,1.76-1.53,1.57-3.79,3.92-5.62,7.43-.89,1.75-1.65,3.81-1.95,6.11-.32,2.3-.05,4.81.77,7.29.78,2.49,1.99,4.96,3.08,7.6,1.09,2.64,1.96,5.48,2.46,8.47.54,2.98.66,5.95.54,8.8-.16,2.85-.59,5.58-1.26,8.12-1.4,5.07-3.55,9.3-4.97,12.99-1.48,3.67-2.25,6.8-2.49,9-.11,1.1-.16,1.96-.14,2.54,0,.58,0,.89,0,.89Z"/>
        <path class="cls-9" d="M149.44,373.86s.09.14.24.42c.17.33.39.74.64,1.23.55,1.07,1.35,2.62,2.25,4.57.89,1.96,1.91,4.32,2.72,7.06.82,2.73,1.41,5.85,1.33,9.15-.05,3.3-.7,6.4-1.48,9.13-.81,2.73-1.75,5.12-2.59,7.11-.84,1.98-1.58,3.56-2.09,4.65-.24.5-.44.91-.6,1.25-.14.28-.22.43-.22.43,0,0,.06-.16.18-.45.15-.34.34-.76.56-1.27.49-1.1,1.21-2.69,2.03-4.67,1.6-3.95,3.85-9.6,4-16.19.07-3.27-.51-6.37-1.31-9.09-.8-2.73-1.8-5.09-2.67-7.05-.88-1.96-1.66-3.52-2.19-4.6-.24-.5-.44-.91-.61-1.25-.14-.29-.2-.44-.2-.44Z"/>
        <path class="cls-9" d="M159.34,368.8s-.1-.07-.17-.27c-.07-.2-.07-.56.19-.89.24-.35.83-.51,1.38-.3.57.19,1.02.77,1.26,1.44.25.68.4,1.46.38,2.31-.04.84-.16,1.77-.68,2.6-.27.39-.64.79-1.18.9-.55.12-1.09-.25-1.36-.69-.54-.9-.94-1.89-1.25-2.94-.61-2.1-.69-4.23-.39-6.1.3-1.87.95-3.48,1.66-4.72.71-1.24,1.47-2.13,2.02-2.7.56-.57.91-.84.91-.84,0,0-.07.09-.22.23-.15.14-.36.37-.63.66-.53.59-1.26,1.48-1.95,2.72-.69,1.23-1.32,2.82-1.6,4.67-.29,1.84-.2,3.94.4,6.02.3,1.03.7,2.02,1.22,2.88.26.41.7.71,1.16.61.45-.09.8-.44,1.05-.81.49-.77.63-1.69.67-2.5.03-.82-.11-1.6-.34-2.26-.23-.66-.64-1.2-1.16-1.38-.51-.21-1.04-.07-1.27.24-.24.3-.26.64-.21.83.05.2.14.28.13.28Z"/>
        <path class="cls-9" d="M164.38,403.22s-.04.09-.13.24c-.12.2-.26.42-.41.66-.36.57-.85,1.42-1.41,2.48-1.12,2.13-2.43,5.22-3.28,8.8-.84,3.58-1.06,6.93-1.01,9.34.02,1.2.08,2.18.15,2.85.02.28.04.54.06.77.01.18.02.27,0,.27,0,0-.28-1.47-.37-3.89-.09-2.42.11-5.78.96-9.39.86-3.6,2.19-6.7,3.36-8.82,1.16-2.13,2.07-3.32,2.07-3.32Z"/>
        <path class="cls-9" d="M149.24,386.25s-2.95,1.15-7.94,2.28c-4.98,1.09-12.04,2.05-19.84,1.58-3.89-.22-7.58-.74-10.89-1.44-3.31-.67-6.22-1.6-8.67-2.29-2.45-.69-4.5-1.01-5.92-1.07-.71-.03-1.26-.02-1.64,0-.37.02-.57.02-.57.02,0,0,.78-.14,2.22-.1,1.43.04,3.49.34,5.96,1.01,2.47.67,5.36,1.58,8.67,2.24,3.3.68,6.98,1.2,10.86,1.42,7.78.46,14.82-.47,19.8-1.52,2.49-.55,4.48-1.09,5.85-1.5.64-.19,1.16-.35,1.57-.48.36-.11.55-.15.55-.15Z"/>
        <path class="cls-9" d="M132.9,382.34s-.98.51-2.9,1c-1.91.48-4.83.9-8.33.21-.44-.09-.88-.24-1.29-.47-.4-.23-.82-.53-1.04-1-.23-.47-.1-1.08.3-1.44.39-.36.92-.52,1.43-.62,2.06-.34,4.27-.58,6.62-.62,4.68-.11,9.86.5,15.02,2.11,1,.32,1.98.66,2.89,1l.23.09-.23.1c-4.61,2.08-9.28,3.33-13.57,3.9-4.29.6-8.2.57-11.42.26-3.23-.31-5.8-.84-7.54-1.31-1.74-.46-2.68-.79-2.68-.79,0,0,.24.06.7.18.46.11,1.12.34,2,.53,1.74.44,4.31.95,7.53,1.24,3.22.3,7.11.31,11.39-.3,4.27-.59,8.92-1.84,13.51-3.91v.19c-.9-.34-1.87-.68-2.87-1-5.14-1.6-10.3-2.21-14.96-2.12-2.33.04-4.55.27-6.59.6-.5.1-1,.25-1.35.57-.35.32-.46.85-.26,1.26.43.82,1.39,1.21,2.21,1.4,3.47.7,6.37.3,8.28-.15.96-.23,1.69-.48,2.18-.65.49-.18.74-.27.74-.27Z"/>
        <path class="cls-9" d="M94.23,383.23s.18-.13.54-.32c.35-.2.88-.45,1.55-.73,1.34-.55,3.3-1.08,5.51-1.19,2.22-.1,4.21.25,5.6.67.69.21,1.24.41,1.61.58.37.16.57.26.57.27,0,.01-.22-.06-.6-.2-.37-.15-.93-.32-1.62-.51-1.38-.38-3.36-.7-5.55-.6-2.19.11-4.13.61-5.47,1.12-.67.25-1.21.48-1.57.66-.36.17-.57.26-.57.25Z"/>
        <path class="cls-9" d="M86.66,403.99s-.23-.26-.63-.78c-.39-.52-1-1.29-1.5-2.44-.24-.57-.44-1.26-.45-2.03,0-.77.27-1.6.82-2.31.54-.69,1.44-1.33,2.5-1.19.51.07,1.01.33,1.39.71.38.38.67.87.87,1.39.42,1.05.53,2.24.62,3.45.08,1.22.07,2.49-.03,3.79-.11,1.31-.32,2.65-.66,4.01-.16.68-.37,1.36-.6,2.04-.22.68-.49,1.38-.92,1.99-.41.61-1.11,1.15-1.93,1.11-.82-.02-1.49-.6-1.93-1.23-.45-.64-.76-1.38-.98-2.14-.23-.75-.44-1.52-.61-2.31-.69-3.14-.88-6.51-.43-9.89.44-3.38,1.4-6.58,2.37-9.63.98-3.05,1.97-5.97,2.67-8.83,1.39-5.71,1.41-11.1.78-15.49-.62-4.41-1.79-7.84-2.72-10.14-.48-1.15-.88-2.03-1.18-2.61-.29-.59-.43-.9-.43-.9,0,0,.17.3.47.88.31.58.72,1.45,1.21,2.6.96,2.29,2.16,5.73,2.8,10.15.64,4.4.64,9.81-.74,15.55-.69,2.87-1.68,5.8-2.66,8.85-.97,3.05-1.92,6.23-2.36,9.59-.44,3.35-.26,6.7.42,9.81.17.78.38,1.54.61,2.29.22.75.52,1.47.95,2.08.43.61,1.05,1.13,1.77,1.15.73.03,1.37-.44,1.77-1.03.42-.59.68-1.27.9-1.94.23-.68.43-1.35.6-2.03.34-1.35.55-2.68.67-3.98.11-1.3.12-2.56.04-3.77-.09-1.2-.19-2.38-.6-3.4-.37-1.03-1.16-1.89-2.15-2.02-.99-.13-1.86.47-2.39,1.13-.54.69-.81,1.5-.81,2.24,0,.75.19,1.43.43,1.99.48,1.14,1.08,1.92,1.46,2.45.39.53.59.8.59.8Z"/>
        <path class="cls-9" d="M92.7,406.72s.2,1.41-.05,3.69c-.22,2.27-.96,5.41-2.64,8.48-1.68,3.05-3.81,5.53-5.85,6.64-1.01.56-1.95.75-2.59.76-.64,0-.99-.1-.99-.1,0-.03.35.05.98.02.63-.04,1.54-.24,2.52-.81,1.98-1.11,4.08-3.58,5.74-6.61,1.66-3.05,2.42-6.15,2.67-8.4.14-1.13.17-2.05.18-2.68,0-.27,0-.51,0-.73,0-.17,0-.26.01-.26Z"/>
        <path class="cls-9" d="M81.07,342.01s-.05.16-.17.44c-.13.28-.28.72-.45,1.28-.32,1.13-.56,2.85-.32,4.95.23,2.1.93,4.54,2.04,7.1,1.09,2.57,2.54,5.31,3.57,8.39.51,1.54.87,3.1.99,4.63.13,1.53.06,3.01-.13,4.41-.38,2.79-1.22,5.21-2.02,7.16-.81,1.96-1.6,3.49-2.16,4.53-.56,1.04-.91,1.6-.91,1.6,0,0,.07-.15.21-.43.17-.33.38-.73.63-1.21.54-1.05,1.31-2.59,2.1-4.55.78-1.96,1.6-4.36,1.96-7.13.18-1.38.25-2.85.12-4.36-.12-1.51-.48-3.05-.99-4.58-1.02-3.06-2.47-5.79-3.55-8.38-1.1-2.58-1.8-5.04-2.01-7.16-.23-2.12.04-3.86.39-4.99.35-1.14.7-1.7.7-1.7Z"/>
        <path class="cls-9" d="M91.85,370.06s0-.11.05-.31c.03-.2.11-.5.16-.89.13-.77.24-1.9.22-3.3-.01-2.8-.83-6.62-2.32-10.62-1.5-4-3.02-7.57-3.79-10.27-.81-2.69-.98-4.43-.98-4.43,0,0,.03.1.08.31.05.2.09.5.18.88.16.77.44,1.86.86,3.2.8,2.68,2.34,6.24,3.84,10.25,1.5,4.01,2.3,7.87,2.27,10.69,0,1.41-.13,2.54-.29,3.31-.15.77-.29,1.18-.29,1.18Z"/>
      </g>
      <g>
        <polygon class="cls-2" points="68.76 371.99 62.99 417.08 82.73 420.25 94.97 374.46 68.76 371.99"/>
        <g>
          <path class="cls-12" d="M63.58,411.11l-.26,1.29s-23.93,4.95-24.98,9.06l44.14,7.37,2.16-14.55c-7.13,1.89-14.07,1.09-21.06-3.16Z"/>
          <g class="cls-16">
            <path class="cls-14" d="M79.29,418.15c.81.37,1.22,1.42.86,2.23-.36.82-1.45,1.25-2.26.89-.82-.36-1.35-1.6-.9-2.37.45-.77,1.75-1.22,2.46-.68"/>
          </g>
          <g class="cls-16">
            <path class="cls-14" d="M82.48,428.82l.52-3.5-42.5-5.78s-2.13.51-2.16,1.91l44.14,7.37Z"/>
          </g>
          <path class="cls-9" d="M63.15,412.5c-.03.21,1.03.49,1.96,1.35.95.83,1.32,1.84,1.54,1.79.21,0,.13-1.33-1.02-2.35-1.14-1.03-2.49-.99-2.48-.79Z"/>
          <path class="cls-9" d="M58.16,413.61c-.09.2.78.71,1.34,1.73.59,1,.59,2,.81,2.03.2.07.58-1.15-.14-2.4-.71-1.26-1.96-1.56-2-1.36Z"/>
          <path class="cls-9" d="M54.49,418.62c.19.08.69-.93.36-2.18-.32-1.26-1.25-1.88-1.38-1.72-.15.15.38.89.64,1.92.28,1.03.17,1.93.38,1.99Z"/>
        </g>
      </g>
      <g>
        <polygon class="cls-2" points="96.25 372.48 99.46 411.86 117.53 409.24 118.75 370.56 96.25 372.48"/>
        <g>
          <path class="cls-12" d="M117.6,401.46s-12.13,9.79-18.89,2.6l-1.34,3.83-5.31,26.96c-.34,1.75.62,3.57,2.36,4.09,1.34.4,2.76.01,3.67-.97,4.9-5.26,22.82-24.72,22.45-27.15l-.56-6.48c-.12-1.34-1.06-2.48-2.38-2.88h0Z"/>
          <g class="cls-16">
            <path class="cls-14" d="M95.05,439.07l25.32-30.51.1,1.42c.25,1.53-.39,2.18-1.07,3.22-2,3.08-7.66,10.06-21.22,24.76-.79.86-1.97,1.27-3.13,1.11h0Z"/>
          </g>
          <g class="cls-16">
            <path class="cls-14" d="M116.04,404.64c-.82.64-1.01,1.93-.39,2.75.62.82,1.96,1.02,2.79.39.83-.63,1.11-2.16.4-2.91-.71-.75-2.3-.9-2.95-.09"/>
          </g>
          <path class="cls-9" d="M101.88,423.9c-.19.11-1.09-1.59-3.19-2.39-2.08-.86-3.95-.26-4.01-.46-.04-.08.38-.37,1.18-.54.79-.17,1.96-.14,3.12.31,1.16.46,2.01,1.23,2.45,1.89.45.66.54,1.15.45,1.18Z"/>
          <path class="cls-9" d="M99.75,428.55c-.15.16-1.33-.85-3.14-1.22-1.8-.41-3.31.02-3.38-.19-.11-.16,1.49-.99,3.55-.53,2.06.43,3.15,1.84,2.98,1.94Z"/>
          <path class="cls-9" d="M106.03,417.84c-.15.17-1.95-1.39-4.72-2.21-2.75-.86-5.15-.58-5.18-.8-.07-.17,2.45-.82,5.4.1,2.96.88,4.65,2.81,4.49,2.91Z"/>
          <path class="cls-9" d="M106.04,409.75c-.08.21-2.03-.43-4.5-.35-2.48.05-4.39.8-4.48.6-.11-.16,1.8-1.27,4.46-1.34,2.66-.09,4.62.92,4.52,1.08Z"/>
          <path class="cls-9" d="M100.13,409.44s-.07-.46.1-1.27c.17-.8.55-1.96,1.41-3.19.44-.58.92-1.34,1.92-1.67.5-.17,1.2,0,1.55.48.35.47.42,1.03.37,1.56-.28,2.11-2.38,3.96-4.86,4-2.48,0-4.55-1.6-5.3-3.53-.16-.5-.24-1.09.09-1.63.33-.54,1.05-.69,1.53-.56,1,.26,1.57.9,2.12,1.38,1.07,1.05,1.69,2.1,2.03,2.84.35.75.43,1.19.39,1.21-.13.07-.67-1.73-2.8-3.67-.54-.45-1.16-1.02-1.88-1.16-.35-.07-.68.03-.83.3-.16.26-.14.68,0,1.07.65,1.58,2.54,3.04,4.63,3.01,2.09-.02,3.93-1.64,4.18-3.34.05-.41-.01-.83-.21-1.1-.19-.26-.52-.36-.85-.27-.7.19-1.22.84-1.66,1.39-1.73,2.29-1.8,4.21-1.95,4.16Z"/>
        </g>
      </g>
      <path class="cls-9" d="M173.36,289.52s9.74,34.63-16.81,40.64l-42.34.42-25.57,68.25-25.49-1.78,9.31-76.68c1.1-9.6,8.18-17.43,17.62-19.5l54.84-11.99,28.44.64Z"/>
      <path class="cls-9" d="M93.78,136.99c-19.3-3.31-21.1,14.14-20.97,19.15.13,5.01,1.84,9.45,3.6,14.14,1.76,4.69.64,11.09-.84,15.87-1.74,5.6-7.27,10.74-5.29,16.26,1.55,4.34,7.28,6.46,7.98,11.02.56,3.6-2.35,6.74-3.42,10.22-2.02,6.57,2.61,13.16,6.96,18.48,1.8,2.2,3.97,4.59,6.81,4.63,3.92.05,6.25-4.19,8.02-7.69,4.9-9.68,12.21-18.13,21.08-24.37"/>
      <g>
        <path class="cls-9" d="M50.4,243.74l-11.37-11.51c-.21-.21-.51-.29-.79-.22l-13.19,3.4c-.61.16-.83.92-.39,1.37l21.82,22.72s16.32-4.45,15.84-4.66c-.48-.21-11.91-11.12-11.91-11.12Z"/>
        <path class="cls-2" d="M34.81,249.86l.25-.62c.27-.68.95-1.12,1.68-1.08,2.66.14,8.7.49,8.7.7,0,.28.56,1.81-1.34,2.31-1.9.49-5.34.04-5.34.04l2.82,3.21.91-1.21c.28-.28.67-.42,1.07-.37l5,.59s.44,1.95-1.04,2.26c-1.48.31-3.33.15-3.33.15l-.58,3.67,5.27,4.06-1.93,2.95-6.97-3.53-1.12-3.57c-.13-.41-.1-.85.08-1.24l.38-.8-1.33-.93c-.54-.38-.82-1.04-.71-1.69l.17-1-2.21-2.02c-.52-.48-.7-1.23-.43-1.89Z"/>
        <polygon class="cls-2" points="57.88 260.26 57.88 260.26 54.42 257.31 44.19 255.84 43.62 259.51 39.99 263 53.79 269.98 57.88 260.26"/>
        <g>
          <path class="cls-2" d="M52.91,244.54c.73.05,1.45-.19,2.01-.66l.57-.47c.91-1.19,2.43-1.75,3.89-1.42l7.86,3.05,8.48,6.87-4.22,10.63-14.59-3.79c-1.56-.41-2.88-1.43-3.67-2.83l-1.4-2.48s-4.96-1.93-4.55-4.7l-10.87-2.26s-.7-1.5.96-2.2c1.38-.58,12.01.04,15.53.26Z"/>
          <path class="cls-7" d="M55.23,250.38c-.03.14-4.27-.62-9.46-1.7-5.2-1.08-9.39-2.07-9.36-2.21.03-.14,4.27.62,9.46,1.7,5.2,1.08,9.39,2.07,9.36,2.21Z"/>
          <path class="cls-7" d="M55.75,255.41c-.09.12-.94-.36-2.01-.89-1.06-.54-1.96-.94-1.91-1.08.04-.13,1.04.06,2.15.61,1.11.55,1.86,1.24,1.77,1.35Z"/>
        </g>
        <path class="cls-7" d="M45.74,262.09c-.07.07-1.1-.94-2.56-2.48l-.08-.08.02-.12c.17-.94.31-1.96.59-3.17.08-.25.27-.54.55-.67.27-.13.52-.14.73-.16.43-.03.86-.06,1.27-.09.4-.02.79-.07,1.17-.02.32.05.61-.04.8-.18.38-.33.4-.88.38-1.18-.02-.33-.11-.48-.08-.51.02-.03.2.12.28.48.06.33.18.94-.34,1.49-.28.25-.68.36-1.07.33-.34-.03-.71.04-1.11.07-.41.04-.82.08-1.25.11-.47.05-.74.11-.86.5-.24,1.05-.43,2.18-.63,3.08l-.06-.2c1.39,1.6,2.29,2.72,2.22,2.79Z"/>
        <path class="cls-2" d="M38.01,249.85c.87,1.31,6.49,1.5,7.02,1.4.56-.11,1,.03,1.32.23.5.32.41,1.08-.14,1.31l-5.11,2.15-3.1-5.1Z"/>
        <path class="cls-7" d="M45.21,253.03c0,.06-.28.06-.74.07-.23,0-.51,0-.82.03-.15.01-.32.03-.48.06-.08.02-.16.04-.22.07-.03.01-.06.03-.08.04-.01,0-.02.07.02-.07l-.04.12c-.31.5-.67,1.06-1.08,1.64-1.47,2.09-2.91,3.59-3.01,3.49-.11-.1,1.14-1.72,2.59-3.79.38-.55.75-1.08,1.11-1.6l-.04.12c.05-.24.13-.23.19-.29.06-.04.12-.06.18-.09.11-.04.21-.06.31-.07.19-.03.37-.03.54-.03.33,0,.62.04.85.08.47.07.73.16.72.21Z"/>
        <path class="cls-7" d="M45.64,251.21c0,.14-2.03.24-4.51.21-.63-.02-1.19-.02-1.65.17-.46.16-.77.49-1,.81-.44.65-.64,1.13-.72,1.09-.05-.02.01-.53.41-1.29.2-.37.56-.82,1.13-1.05.55-.25,1.21-.27,1.82-.25,2.51.03,4.53.17,4.52.31Z"/>
      </g>
      <g class="cls-15">
        <path class="cls-6" d="M116.19,274.82c2.13.23,5.29-.62,6.7-2.23s3-3.28,3.93-5.21c1.95-4.07,5.43-9.42,7.19-12.76.11.97-2.82,10.64-3.08,15.32-.15,2.57.02,5.34,1.61,7.36,1.09,1.39,2.74,2.25,3.93,3.56,2.31,2.52,2.55,6.69.54,9.45-1.03,1.42-2.88,2.5-4.52,1.88-.89-.34-1.55-1.12-1.99-1.97-.43-.85-.67-1.78-.98-2.69-1.32-3.85-4-7.21-7.44-9.37-1.73-1.08-3.7-2.64-5.56-3.5"/>
      </g>
      <g>
        <path class="cls-12" d="M53.08,271.74l21.75,7.27c7.75,2.63,16.31.76,22.25-4.87l7.69-7.28-22.73-6.14-12.18,1.38-11.25-3.61-5.52,13.25Z"/>
        <g>
          <path class="cls-13" d="M75.31,267.9s.36.54.95,1.39c.6.85,1.49,1.98,2.62,3.1,1.13,1.12,2.27,2,3.13,2.58.86.59,1.42.91,1.4.94,0,.01-.15-.06-.41-.19-.26-.13-.63-.35-1.07-.63-.88-.56-2.05-1.43-3.19-2.56-1.14-1.13-2.02-2.29-2.59-3.17-.29-.44-.5-.8-.64-1.06-.14-.26-.21-.4-.2-.41Z"/>
          <path class="cls-13" d="M80.01,269.87c.07,0-.18,1.15.19,2.5.36,1.35,1.15,2.22,1.09,2.26-.02.05-.92-.79-1.29-2.2-.39-1.41-.03-2.58,0-2.56Z"/>
          <path class="cls-13" d="M77.78,268.25c.06,0,.09.99.38,2.16.29,1.17.73,2.06.67,2.09-.04.03-.58-.83-.87-2.04-.3-1.2-.23-2.21-.18-2.21Z"/>
          <path class="cls-13" d="M76.69,272.67c0-.05.84,0,1.82.3.98.3,1.71.72,1.68.77-.03.05-.78-.28-1.74-.57-.96-.3-1.77-.44-1.76-.5Z"/>
          <path class="cls-13" d="M74.61,270.12c.01-.05,1.05.19,2.18.84,1.14.64,1.88,1.41,1.84,1.45-.04.05-.83-.64-1.94-1.26-1.11-.63-2.1-.96-2.08-1.02Z"/>
          <path class="cls-13" d="M77.08,272.7c-.24-.27-.57-.46-.93-.53-.12-.02-.28-.02-.34.09-.05.09,0,.21.09.27.08.06.19.08.29.09-.15.06-.29.14-.43.24-.06.05-.12.12-.09.19.03.06.12.06.19.05.16-.03.33-.06.49-.1-.04.08-.14.11-.21.16-.08.05-.13.16-.07.23.05.05.14.02.2-.02.29-.16.54-.38.74-.64"/>
          <path class="cls-13" d="M77.72,268.51c-.06.02-.06.12,0,.16.05.04.12.03.18-.01.05-.04.08-.09.11-.15.17-.32.31-.65.34-1.01,0-.08,0-.17-.06-.21-.07-.05-.17,0-.23.04-.22.16-.36.43-.36.7.05-.22.04-.46-.03-.68-.03-.08-.09-.18-.17-.16-.08.01-.11.1-.12.18-.04.23-.03.47.02.7-.04-.23-.2-.44-.41-.55-.06-.03-.13-.05-.19-.01-.05.03-.07.1-.05.16.01.06.05.11.09.15.26.34.58.63.94.86"/>
          <path class="cls-13" d="M75.33,267.89c-.05.06,0,.16.07.17.08.02.16-.03.19-.1.04-.07.04-.14.05-.22.02-.43,0-.87-.15-1.28-.03-.09-.09-.19-.18-.2-.11-.02-.19.07-.24.16-.16.29-.17.65-.03.95-.06-.27-.2-.53-.39-.73-.07-.08-.19-.15-.28-.09-.08.05-.07.17-.04.26.08.27.22.53.4.76-.17-.24-.46-.39-.76-.4-.08,0-.18.01-.22.08-.04.06-.02.14.02.2.05.06.11.09.18.13.48.24.99.4,1.52.48"/>
        </g>
        <g>
          <path class="cls-13" d="M62.42,261.82s-.18.62-.43,1.63c-.25,1.01-.53,2.42-.64,4.01-.11,1.58-.03,3.02.09,4.06.11,1.03.24,1.67.2,1.68-.01,0-.06-.15-.13-.44-.07-.28-.15-.7-.23-1.22-.15-1.04-.26-2.49-.15-4.09.11-1.6.41-3.02.7-4.03.15-.5.28-.91.39-1.18.11-.27.17-.42.18-.42Z"/>
          <path class="cls-13" d="M64.01,266.67c.04.05-.99.61-1.77,1.78-.79,1.15-.93,2.32-.99,2.3-.05.01,0-1.21.82-2.42.81-1.22,1.93-1.71,1.94-1.66Z"/>
          <path class="cls-13" d="M63.78,263.92s-.69.71-1.38,1.7c-.7.99-1.08,1.9-1.14,1.87-.05-.01.25-.98.97-1.99.71-1.01,1.52-1.62,1.55-1.58Z"/>
          <path class="cls-13" d="M59.72,265.98s.55.64.96,1.58c.42.94.57,1.76.52,1.77-.06.02-.3-.77-.71-1.69-.41-.92-.82-1.63-.77-1.66Z"/>
          <path class="cls-13" d="M60.29,262.75s.54.92.8,2.2c.26,1.28.16,2.34.11,2.34-.06,0-.06-1.04-.31-2.3-.25-1.25-.65-2.21-.59-2.24Z"/>
          <path class="cls-13" d="M59.95,266.3c.05-.36-.03-.74-.21-1.05-.06-.11-.17-.22-.29-.2-.1.02-.16.14-.15.24,0,.1.07.19.12.28-.15-.07-.3-.13-.46-.16-.07-.02-.17-.01-.2.05-.03.07.03.13.09.18.13.11.26.21.4.31-.09.02-.17-.03-.26-.06-.09-.03-.21,0-.21.1,0,.07.08.12.15.14.31.11.64.16.97.14"/>
          <path class="cls-13" d="M63.54,264.05c-.06-.03-.13.03-.12.1,0,.06.06.11.12.13s.12,0,.19-.01c.35-.08.7-.19.99-.4.06-.05.13-.11.12-.19,0-.08-.1-.13-.19-.15-.27-.06-.56.01-.76.19.2-.11.37-.27.49-.46.04-.07.08-.18.01-.23-.06-.05-.15-.02-.22.02-.2.12-.38.28-.51.48.15-.18.21-.44.15-.67-.02-.06-.05-.13-.11-.15-.06-.02-.12.02-.15.06-.04.05-.05.11-.06.16-.08.42-.1.85-.04,1.27"/>
          <path class="cls-13" d="M62.45,261.83c-.08,0-.12.1-.08.17.04.07.13.1.2.08.07-.01.14-.06.2-.11.34-.26.66-.57.87-.95.05-.08.09-.19.03-.27-.06-.09-.18-.1-.28-.08-.32.06-.61.29-.74.6.17-.22.27-.49.3-.77.01-.11-.01-.24-.11-.27-.09-.03-.17.06-.22.14-.16.24-.26.51-.31.8.07-.28,0-.6-.19-.84-.05-.06-.12-.13-.2-.12-.07,0-.12.08-.14.15-.01.07,0,.15.02.22.13.52.34,1.01.63,1.46"/>
        </g>
        <path class="cls-12" d="M157.78,258.95c-3.67-4.35-5.67-9.93-5.29-15.62.02-.35.06-.71.09-1.08,1.4-12.95,3.92-34.06-1.06-44.55-3.27-6.89-23.63-10.12-23.63-10.12l-23.55,4.85-10.81,9.48c-1.72,1.51-2.86,3.57-3.22,5.82l-9.89,61.7,20.04-1.43,1.55-17.91,2.23,23.66s19.03,14.8,25.2,17.54,16.96-4.9,25.28-1.51c8.32,3.39,19.12,0,19.12,0,.45-9.84-10.18-23.87-16.06-30.84Z"/>
        <path class="cls-12" d="M139.58,194.79l-30.28,54.89-32.71.57-5.56,13.96,42.29,9.72c4.84.83,8.54.22,11.64-3.59l27.83-51.9s2.22-23.05-13.2-23.66Z"/>
        <g class="cls-15">
          <path class="cls-6" d="M57.1,262.09s5.36,1.42,8.73,2.3c1.52.4,2.47,1.9,2.19,3.44h0c-.3,1.68.85,3.28,2.55,3.51,7.44,1.03,25.72,3.51,26.07,3.2.43-.39,3.58-3.62,3.58-3.62l-29.19-6.71.47-1.68-13.15-3.42-1.24,2.98Z"/>
        </g>
        <path class="cls-9" d="M102.93,249.79s-.17-.29-.41-.87c-.27-.67-.6-1.5-1-2.5l.05.07c-1.23-.99-2.67-2.52-3.73-4.65-1.1-2.12-1.62-4.84-1.6-7.66,0-2.42.23-4.7.3-6.77.08-2.07-.03-3.93-.33-5.45-.57-3.09-1.88-4.65-1.77-4.69.01-.01.1.08.24.26.15.18.34.47.57.84.45.76.98,1.96,1.32,3.51.35,1.55.5,3.45.44,5.54-.04,2.09-.26,4.37-.26,6.75-.01,2.78.47,5.39,1.5,7.46,1,2.08,2.36,3.61,3.52,4.62l.03.03v.04c.36,1.02.65,1.87.88,2.55.19.6.28.92.25.93Z"/>
        <path class="cls-9" d="M149.95,259.91s.1.38.15,1.09c.05.71.06,1.73-.07,3-.24,2.51-1.15,6.01-3.3,9.27-2.15,3.26-5,5.48-7.22,6.69-1.11.61-2.06,1.01-2.73,1.24-.67.23-1.05.32-1.06.29-.04-.09,1.46-.57,3.6-1.85,2.13-1.27,4.88-3.48,6.97-6.66,2.09-3.18,3.05-6.57,3.37-9.03.34-2.47.19-4.04.28-4.04Z"/>
        <g>
          <path class="cls-13" d="M137.55,213.69s-.1.19-.3.51c-.21.32-.49.79-.83,1.37-.68,1.17-1.52,2.84-2.21,4.79-.69,1.94-1.09,3.77-1.3,5.11-.11.67-.18,1.21-.22,1.59-.04.38-.07.58-.09.58-.01,0-.01-.21,0-.59.02-.38.07-.93.16-1.6.18-1.35.56-3.2,1.25-5.16.7-1.96,1.57-3.64,2.28-4.79.36-.58.66-1.04.89-1.34.22-.31.35-.47.37-.46Z"/>
          <path class="cls-13" d="M137.83,220.3c.03.07-1.47.39-2.85,1.58-1.4,1.17-1.97,2.59-2.03,2.56-.02,0,.09-.37.38-.9.29-.53.8-1.21,1.51-1.82.71-.6,1.47-.99,2.04-1.19.57-.21.95-.25.95-.23Z"/>
          <path class="cls-13" d="M138.51,216.79c.03.06-1.13.62-2.34,1.62-1.22.99-2.01,2.01-2.06,1.97-.02-.02.15-.29.48-.69.33-.4.83-.93,1.45-1.43.62-.5,1.24-.89,1.7-1.13.46-.24.77-.35.78-.33Z"/>
          <path class="cls-13" d="M132.71,217.95s.43,1,.62,2.31c.19,1.32.11,2.4.06,2.4-.06,0-.08-1.07-.27-2.37-.18-1.3-.47-2.33-.41-2.34Z"/>
          <path class="cls-13" d="M134.56,214.1s.1.33.17.88c.06.55.09,1.31.03,2.15-.06.84-.21,1.59-.35,2.12-.14.53-.27.85-.3.84-.06-.02.32-1.32.44-2.98.13-1.66-.05-3,.01-3.01Z"/>
          <path class="cls-13" d="M132.88,218.42c.19-.43.22-.93.11-1.39-.04-.16-.13-.34-.29-.35-.13,0-.24.12-.27.25-.02.13.01.26.05.39-.16-.14-.33-.27-.52-.37-.09-.05-.21-.08-.27,0-.06.07,0,.18.05.25.13.18.26.35.39.52-.12,0-.21-.1-.31-.16-.1-.06-.27-.07-.3.05-.03.09.05.17.13.23.35.25.75.42,1.16.51"/>
          <path class="cls-13" d="M138.17,216.87c-.06-.05-.17,0-.19.08s.04.16.11.2c.07.04.16.05.24.05.46.03.94,0,1.38-.15.09-.03.2-.09.22-.19.02-.11-.08-.2-.18-.25-.31-.17-.7-.18-1.02-.03.29-.06.56-.2.78-.4.08-.08.16-.2.1-.29-.06-.08-.18-.07-.28-.05-.29.08-.57.22-.81.41.25-.18.41-.48.42-.78,0-.09-.02-.18-.09-.23-.06-.04-.15-.02-.21.03-.06.05-.1.12-.13.18-.25.49-.42,1.03-.49,1.57"/>
          <path class="cls-13" d="M137.57,213.71c-.09-.03-.19.08-.16.18.02.1.13.16.22.17.1,0,.19-.03.29-.06.52-.21,1.03-.48,1.43-.88.09-.09.17-.21.14-.33-.04-.13-.19-.19-.33-.2-.43-.03-.86.16-1.13.49.28-.22.51-.52.64-.86.05-.13.07-.31-.04-.38-.1-.07-.24.01-.33.09-.28.25-.51.55-.67.89.19-.33.21-.76.05-1.11-.04-.1-.11-.2-.21-.22-.09-.01-.18.05-.22.14s-.05.18-.05.28c-.02.69.08,1.39.28,2.05"/>
        </g>
        <g>
          <path class="cls-13" d="M109.71,230.77s-.1.19-.3.51c-.21.32-.49.79-.83,1.37-.68,1.17-1.52,2.84-2.21,4.79-.69,1.94-1.09,3.77-1.3,5.11-.11.67-.18,1.21-.22,1.59-.04.38-.07.58-.09.58-.01,0-.01-.21,0-.59.02-.38.07-.93.16-1.6.18-1.35.56-3.2,1.25-5.16.7-1.96,1.57-3.64,2.28-4.79.36-.58.66-1.04.89-1.34.22-.31.35-.47.37-.46Z"/>
          <path class="cls-13" d="M109.99,237.37c.03.07-1.47.39-2.85,1.58-1.4,1.17-1.97,2.59-2.03,2.56-.02,0,.09-.37.38-.9.29-.53.8-1.21,1.51-1.82.71-.6,1.47-.99,2.04-1.19.57-.21.95-.25.95-.23Z"/>
          <path class="cls-13" d="M110.67,233.86c.03.06-1.13.62-2.34,1.62-1.22.99-2.01,2.01-2.06,1.97-.02-.02.15-.29.48-.69.33-.4.83-.93,1.45-1.43.62-.5,1.24-.89,1.7-1.13.46-.24.77-.35.78-.33Z"/>
          <path class="cls-13" d="M104.87,235.02s.43,1,.62,2.31c.19,1.32.11,2.4.06,2.4-.06,0-.08-1.07-.27-2.37-.18-1.3-.47-2.33-.41-2.34Z"/>
          <path class="cls-13" d="M106.72,231.17s.1.33.17.88c.06.55.09,1.31.03,2.15-.06.84-.21,1.59-.35,2.12-.14.53-.27.85-.3.84-.06-.02.32-1.32.44-2.98.13-1.66-.05-3,.01-3.01Z"/>
          <path class="cls-13" d="M105.05,235.49c.19-.43.22-.93.11-1.39-.04-.16-.13-.34-.29-.34-.13,0-.24.12-.27.25-.02.13.01.26.05.39-.16-.14-.33-.27-.52-.37-.09-.05-.21-.08-.27,0-.06.07,0,.18.05.25.13.18.26.35.39.52-.12,0-.21-.1-.31-.16-.1-.06-.27-.07-.3.05-.03.09.05.17.13.23.35.25.75.42,1.16.51"/>
          <path class="cls-13" d="M110.33,233.94c-.06-.05-.17,0-.19.08s.04.16.11.2.16.05.24.05c.46.03.94,0,1.38-.15.09-.03.2-.09.22-.19.02-.11-.08-.2-.18-.25-.31-.17-.7-.18-1.02-.03.29-.06.56-.2.78-.41.08-.08.16-.2.1-.29-.06-.08-.18-.07-.28-.05-.29.08-.57.22-.81.41.25-.18.41-.48.42-.78,0-.08-.02-.18-.09-.23-.06-.04-.15-.02-.21.02-.06.05-.1.12-.13.18-.25.49-.42,1.03-.49,1.57"/>
          <path class="cls-13" d="M109.73,230.79c-.09-.03-.19.08-.16.18.02.1.13.16.22.17.1,0,.19-.03.29-.06.52-.21,1.03-.48,1.43-.88.09-.09.17-.21.14-.33-.04-.13-.19-.19-.33-.2-.43-.03-.86.16-1.13.49.28-.22.51-.52.64-.86.05-.13.07-.31-.04-.38-.1-.07-.24.01-.33.09-.28.25-.51.55-.67.89.19-.33.21-.76.05-1.11-.04-.1-.11-.2-.21-.22-.09-.01-.18.05-.22.14-.04.08-.05.18-.05.28-.02.69.08,1.39.28,2.05"/>
        </g>
        <g>
          <path class="cls-13" d="M111.05,260.72s.21-.04.59-.06c.38-.02.92-.07,1.59-.15,1.34-.15,3.19-.48,5.16-1.08,1.97-.61,3.68-1.38,4.88-2,.6-.31,1.08-.58,1.41-.77.33-.19.51-.29.52-.28s-.16.13-.48.35c-.31.21-.78.5-1.38.83-1.19.66-2.9,1.46-4.89,2.07-1.99.61-3.85.91-5.21,1.03-.68.06-1.23.09-1.61.09-.38,0-.59,0-.59-.02Z"/>
          <path class="cls-13" d="M116.18,256.55c.04-.06,1.19.94,2.97,1.34,1.78.43,3.26.03,3.26.1,0,.02-.35.15-.95.23-.6.08-1.45.08-2.36-.13-.91-.21-1.67-.59-2.17-.92-.51-.34-.77-.61-.75-.62Z"/>
          <path class="cls-13" d="M112.96,258.1c.03-.06,1.17.53,2.7.92,1.52.39,2.81.42,2.81.48,0,.03-.32.05-.84.03-.52-.02-1.24-.11-2.02-.31-.77-.2-1.45-.46-1.92-.69-.47-.23-.74-.41-.73-.43Z"/>
          <path class="cls-13" d="M117.34,262.06s.54-.94,1.49-1.88c.94-.94,1.86-1.52,1.89-1.48.04.05-.81.7-1.74,1.62-.93.92-1.58,1.77-1.63,1.73Z"/>
          <path class="cls-13" d="M113.15,262.87s.2-.28.6-.65c.4-.38,1-.86,1.71-1.31.71-.45,1.4-.78,1.91-.98.51-.2.84-.29.85-.26.02.06-1.25.53-2.65,1.42-1.41.88-2.38,1.83-2.42,1.78Z"/>
          <path class="cls-13" d="M117.62,261.64c-.46.11-.88.37-1.18.74-.1.12-.19.3-.1.44.07.11.24.12.36.07s.2-.17.28-.28c-.02.21-.02.43.02.64.02.1.06.21.16.22.09,0,.14-.1.17-.19.07-.21.13-.42.19-.63.07.1.04.23.05.34,0,.12.11.25.22.22.09-.03.11-.15.1-.24,0-.43-.1-.85-.28-1.24"/>
          <path class="cls-13" d="M113.22,258.33c0,.08.1.14.17.1.07-.03.11-.13.09-.21-.01-.08-.06-.15-.1-.22-.26-.39-.56-.76-.94-1.01-.08-.06-.19-.11-.28-.06-.1.05-.11.18-.1.29.05.35.27.67.59.84-.22-.2-.5-.33-.79-.38-.11-.02-.25-.01-.29.09-.03.09.05.19.13.25.24.19.52.32.82.4-.29-.1-.63-.05-.88.13-.07.05-.14.12-.13.21,0,.08.07.14.15.16s.15,0,.23,0c.54-.09,1.07-.28,1.55-.55"/>
          <path class="cls-13" d="M111.05,260.68c.03.09.18.1.25.02.07-.08.06-.2,0-.28-.05-.08-.14-.14-.22-.19-.48-.29-1-.54-1.56-.62-.12-.02-.27-.02-.35.08-.08.11-.03.27.04.38.23.36.64.6,1.07.62-.35-.1-.72-.1-1.08,0-.13.04-.29.13-.28.26,0,.12.15.18.27.21.36.08.74.08,1.11,0-.38.05-.73.29-.92.62-.05.09-.09.21-.05.3.04.08.15.11.24.09s.18-.07.25-.13c.57-.4,1.07-.89,1.48-1.45"/>
        </g>
        <g>
          <path class="cls-13" d="M141.87,282.54s.21.05.57.16c.36.12.88.28,1.53.46,1.3.37,3.13.77,5.18.95,2.05.18,3.93.12,5.27,0,.67-.06,1.22-.13,1.59-.18.38-.05.58-.07.59-.06,0,.01-.2.06-.57.14-.37.08-.92.17-1.59.25-1.35.16-3.24.25-5.31.07-2.07-.19-3.91-.62-5.21-1.02-.65-.2-1.17-.38-1.52-.53-.35-.14-.54-.23-.54-.24Z"/>
          <path class="cls-13" d="M148.21,280.63c.06-.04.74,1.32,2.24,2.37,1.48,1.07,3,1.26,2.98,1.33,0,.02-.38,0-.97-.15-.59-.15-1.37-.48-2.13-1.01-.76-.54-1.32-1.18-1.66-1.68-.34-.5-.48-.85-.46-.86Z"/>
          <path class="cls-13" d="M144.63,280.84s.88.94,2.15,1.87c1.26.94,2.44,1.45,2.42,1.51-.01.02-.32-.07-.79-.29-.47-.22-1.11-.57-1.75-1.05-.64-.48-1.17-.98-1.51-1.37-.35-.39-.53-.66-.51-.67Z"/>
          <path class="cls-13" d="M147.19,286.17s.86-.67,2.09-1.17c1.23-.51,2.3-.7,2.31-.65.01.06-1.02.34-2.23.84-1.21.5-2.14,1.04-2.17.98Z"/>
          <path class="cls-13" d="M143.01,285.33s.29-.18.81-.38c.51-.19,1.25-.41,2.08-.56.83-.15,1.59-.19,2.14-.18.55,0,.89.05.89.08,0,.07-1.36.01-2.99.31-1.64.28-2.9.79-2.92.73Z"/>
          <path class="cls-13" d="M147.61,285.89c-.47-.07-.96.01-1.37.24-.14.08-.29.21-.26.37.03.13.17.21.31.2.13,0,.25-.08.37-.15-.1.19-.18.39-.22.6-.02.09-.02.22.07.26.08.04.17-.04.23-.11.14-.17.28-.34.41-.51.03.11-.05.23-.08.34s0,.28.12.28c.09,0,.15-.1.19-.18.16-.4.23-.83.21-1.26"/>
          <path class="cls-13" d="M144.8,281.15c-.04.07.04.17.12.16.08,0,.15-.08.17-.16.02-.08,0-.16-.01-.24-.09-.46-.23-.91-.49-1.3-.06-.08-.14-.17-.24-.16-.11,0-.17.13-.2.24-.09.34,0,.73.22,1-.13-.27-.34-.49-.59-.65-.09-.06-.23-.11-.3-.02-.07.08-.03.19.02.28.15.26.36.5.6.68-.23-.2-.56-.28-.86-.21-.08.02-.17.06-.2.14-.02.07.02.15.08.2.06.05.14.07.21.08.54.12,1.1.15,1.64.08"/>
          <path class="cls-13" d="M141.89,282.51c0,.1.13.16.22.11s.13-.16.11-.26c-.02-.1-.07-.18-.13-.26-.33-.45-.72-.88-1.21-1.16-.11-.06-.24-.12-.35-.05-.12.07-.13.23-.11.36.07.42.36.8.76.98-.28-.22-.63-.36-1-.41-.14-.02-.32,0-.36.14-.04.12.07.23.17.29.31.21.66.36,1.03.43-.37-.1-.78-.01-1.09.23-.08.07-.17.16-.16.26,0,.09.1.16.19.18.09.02.19,0,.28-.02.67-.15,1.33-.42,1.92-.78"/>
        </g>
        <g>
          <path class="cls-13" d="M128.47,236.76s.04.65.14,1.68c.1,1.04.31,2.46.74,3.99.43,1.53.98,2.86,1.44,3.79.45.94.78,1.49.75,1.51-.01,0-.11-.12-.26-.37-.16-.24-.37-.61-.62-1.07-.49-.93-1.07-2.26-1.51-3.8-.43-1.54-.62-2.99-.68-4.03-.03-.52-.04-.95-.03-1.24,0-.29.02-.45.03-.45Z"/>
          <path class="cls-13" d="M131.58,240.79c.06.04-.73.91-1.07,2.27-.36,1.35-.1,2.5-.17,2.5-.04.03-.41-1.14-.03-2.56.36-1.42,1.25-2.26,1.27-2.22Z"/>
          <path class="cls-13" d="M130.45,238.28c.06.03-.41.9-.74,2.07-.33,1.16-.39,2.15-.45,2.15-.05,0-.09-1.01.25-2.2.33-1.19.89-2.04.94-2.01Z"/>
          <path class="cls-13" d="M127.31,241.58s.73.42,1.43,1.17c.71.75,1.13,1.47,1.08,1.5-.05.03-.54-.62-1.23-1.36-.69-.73-1.32-1.26-1.28-1.31Z"/>
          <path class="cls-13" d="M126.77,238.34s.82.68,1.48,1.81c.67,1.12.93,2.15.88,2.17-.06.02-.4-.96-1.06-2.06-.65-1.1-1.35-1.87-1.31-1.91Z"/>
          <path class="cls-13" d="M127.63,241.8c-.08-.36-.27-.68-.55-.92-.09-.08-.23-.15-.34-.09-.09.05-.1.18-.06.28.04.09.13.16.21.22-.16-.02-.33-.02-.49,0-.07,0-.17.04-.17.12,0,.07.08.11.14.14.16.06.32.11.48.16-.08.05-.17.03-.27.03-.09,0-.2.08-.17.16.02.07.11.09.18.09.33,0,.66-.06.96-.19"/>
          <path class="cls-13" d="M130.26,238.48c-.06,0-.11.07-.08.13.02.06.1.08.16.08.06,0,.12-.04.17-.07.3-.19.59-.41.8-.71.04-.06.09-.15.05-.22-.04-.08-.14-.09-.22-.08-.27.03-.52.2-.66.43.15-.17.26-.38.31-.6.02-.08.01-.19-.07-.23-.07-.03-.15.03-.2.09-.15.18-.26.39-.33.62.08-.22.05-.48-.08-.68-.04-.05-.09-.11-.16-.1-.06,0-.11.05-.12.11s-.01.12,0,.18c.06.42.19.83.39,1.21"/>
          <path class="cls-13" d="M128.49,236.76c-.07.02-.08.14-.02.19.06.05.15.05.22,0,.07-.04.11-.1.15-.17.23-.36.44-.76.51-1.19.02-.09.02-.21-.06-.27-.08-.07-.2-.03-.29.02-.28.17-.47.48-.5.81.08-.26.09-.55.02-.83-.03-.1-.09-.23-.2-.22-.1,0-.14.11-.17.2-.07.28-.08.57-.03.86-.03-.29-.21-.57-.46-.72-.07-.04-.16-.08-.23-.04-.06.03-.09.11-.08.19.01.07.05.14.09.2.29.44.66.84,1.09,1.17"/>
        </g>
        <g>
          <path class="cls-13" d="M117.93,237.85s-.42.5-1.07,1.31c-.65.81-1.48,1.99-2.23,3.39-.75,1.4-1.27,2.74-1.59,3.73-.32.99-.47,1.62-.51,1.61-.01,0,.01-.16.07-.45.05-.29.15-.7.3-1.2.29-1.01.79-2.37,1.55-3.79.76-1.41,1.62-2.59,2.3-3.38.34-.4.63-.71.84-.91.21-.21.33-.31.34-.3Z"/>
          <path class="cls-13" d="M117.37,242.91c.01.07-1.16.15-2.34.89-1.2.72-1.8,1.73-1.86,1.69-.05,0,.5-1.11,1.75-1.87,1.24-.77,2.47-.76,2.45-.72Z"/>
          <path class="cls-13" d="M118.3,240.32c.02.06-.92.36-1.96.98-1.04.61-1.77,1.28-1.81,1.24-.04-.03.64-.79,1.71-1.42,1.07-.63,2.06-.85,2.07-.8Z"/>
          <path class="cls-13" d="M113.75,240.52c.05-.01.24.81.23,1.83,0,1.03-.21,1.84-.26,1.83-.06-.01.04-.82.05-1.83.01-1.01-.08-1.82-.02-1.83Z"/>
          <path class="cls-13" d="M115.61,237.81c.05,0,.12,1.06-.18,2.33-.29,1.27-.82,2.2-.87,2.17-.06-.03.38-.98.66-2.22.29-1.24.32-2.29.39-2.28Z"/>
          <path class="cls-13" d="M118.03,240.34s-.13-.02-.15.04.01.13.06.17c.05.04.11.05.17.07.35.07.71.11,1.07.04.08-.01.16-.05.19-.12.03-.08-.04-.16-.11-.21-.22-.16-.51-.22-.77-.14.23-.01.45-.09.64-.22.07-.05.14-.13.11-.21-.03-.07-.13-.08-.21-.07-.23.03-.46.1-.66.22.21-.1.37-.31.41-.55.01-.06,0-.14-.04-.18-.04-.04-.11-.03-.17,0-.05.03-.09.08-.12.13-.25.34-.44.73-.56,1.14"/>
          <path class="cls-13" d="M117.95,237.87c-.07-.04-.15.04-.15.12,0,.08.08.14.15.16s.15,0,.22-.02c.42-.1.84-.24,1.19-.51.08-.06.16-.14.14-.23-.01-.11-.13-.16-.23-.19-.32-.08-.67.02-.92.24.24-.13.45-.34.59-.58.05-.09.09-.23.01-.3-.07-.06-.18-.02-.26.03-.24.15-.45.36-.61.6.18-.23.25-.55.17-.84-.02-.08-.06-.17-.14-.19-.07-.02-.14.02-.18.08s-.06.13-.07.21c-.1.52-.1,1.07-.03,1.59"/>
        </g>
        <g>
          <path class="cls-13" d="M130.53,193.33s-.42.5-1.07,1.31c-.65.81-1.48,1.99-2.23,3.39-.75,1.4-1.27,2.74-1.59,3.73-.32.99-.47,1.62-.51,1.61-.01,0,.01-.16.07-.45.05-.29.15-.7.3-1.2.29-1.01.79-2.37,1.55-3.79.76-1.41,1.62-2.59,2.3-3.38.34-.4.63-.71.84-.91.21-.21.33-.31.34-.3Z"/>
          <path class="cls-13" d="M129.97,198.4c.01.07-1.16.15-2.34.89-1.2.72-1.8,1.73-1.86,1.69-.05,0,.5-1.11,1.75-1.87,1.24-.77,2.47-.76,2.45-.72Z"/>
          <path class="cls-13" d="M130.9,195.8c.02.06-.92.36-1.96.98-1.04.61-1.77,1.28-1.81,1.24-.04-.03.64-.79,1.71-1.42,1.07-.63,2.06-.85,2.07-.8Z"/>
          <path class="cls-13" d="M126.35,196.01c.05-.01.24.81.23,1.83,0,1.03-.21,1.84-.26,1.83-.06-.01.04-.82.05-1.83.01-1.01-.08-1.82-.02-1.83Z"/>
          <path class="cls-13" d="M128.21,193.29c.05,0,.12,1.06-.18,2.33-.29,1.27-.82,2.2-.87,2.17-.06-.03.38-.98.66-2.22.29-1.24.32-2.29.39-2.28Z"/>
          <path class="cls-13" d="M130.63,195.82s-.13-.02-.15.04.01.13.06.17.11.05.17.07c.35.07.71.11,1.07.04.08-.02.16-.05.19-.12.03-.08-.04-.16-.11-.21-.22-.16-.51-.22-.77-.14.23-.01.45-.09.64-.22.07-.05.14-.13.11-.21-.03-.07-.13-.08-.21-.07-.23.03-.46.1-.66.22.21-.1.37-.31.41-.55.01-.06,0-.14-.04-.18-.04-.04-.11-.03-.17,0-.05.03-.09.08-.12.13-.25.34-.44.73-.56,1.14"/>
          <path class="cls-13" d="M130.55,193.35c-.07-.03-.15.04-.15.12,0,.08.08.14.15.16s.15,0,.22-.02c.42-.1.84-.24,1.19-.51.08-.06.16-.14.14-.23-.01-.11-.13-.16-.23-.19-.32-.08-.67.02-.92.24.24-.13.45-.34.59-.58.05-.09.09-.23.01-.3-.07-.06-.18-.02-.26.03-.24.15-.45.36-.61.6.18-.23.25-.55.17-.84-.02-.08-.06-.17-.14-.19-.07-.02-.14.02-.18.08-.04.06-.06.13-.07.21-.1.52-.1,1.06-.03,1.59"/>
        </g>
        <g>
          <path class="cls-13" d="M91.66,255.02s.04.65.14,1.68c.1,1.04.31,2.46.74,3.99.43,1.53.98,2.86,1.44,3.79.45.94.78,1.49.75,1.51-.01,0-.11-.12-.26-.37-.16-.24-.37-.61-.62-1.07-.49-.93-1.07-2.26-1.51-3.8-.43-1.54-.62-2.99-.68-4.03-.03-.52-.04-.95-.03-1.24,0-.29.02-.45.03-.45Z"/>
          <path class="cls-13" d="M94.77,259.06c.06.04-.73.91-1.07,2.27-.36,1.35-.1,2.5-.17,2.5-.04.03-.41-1.14-.03-2.56.36-1.42,1.25-2.26,1.27-2.22Z"/>
          <path class="cls-13" d="M93.64,256.54c.06.03-.41.9-.74,2.07-.33,1.16-.39,2.15-.45,2.15-.05,0-.09-1.01.25-2.2.33-1.19.89-2.04.94-2.01Z"/>
          <path class="cls-13" d="M90.5,259.84s.73.42,1.43,1.17c.71.75,1.13,1.47,1.08,1.5-.05.03-.54-.62-1.23-1.36-.69-.73-1.32-1.26-1.28-1.31Z"/>
          <path class="cls-13" d="M89.96,256.6s.82.68,1.48,1.81c.67,1.12.93,2.15.88,2.17-.06.02-.4-.96-1.06-2.06-.65-1.1-1.35-1.87-1.31-1.91Z"/>
          <path class="cls-13" d="M90.82,260.07c-.08-.36-.27-.68-.55-.92-.09-.08-.23-.15-.34-.09-.09.05-.1.18-.06.28.04.09.13.16.21.22-.16-.02-.33-.02-.49,0-.07,0-.17.04-.17.12,0,.07.08.11.14.14.16.06.32.11.48.16-.08.05-.17.03-.27.03-.09,0-.2.08-.17.16.02.07.11.08.18.09.33,0,.66-.06.96-.19"/>
          <path class="cls-13" d="M93.46,256.74c-.06,0-.11.07-.08.13.02.06.1.08.16.08.06,0,.12-.04.17-.07.3-.19.59-.41.8-.71.04-.06.09-.15.05-.22-.04-.08-.14-.09-.22-.08-.27.03-.52.2-.66.43.15-.17.26-.38.31-.6.02-.08.01-.19-.07-.23-.07-.03-.15.03-.2.09-.15.18-.26.39-.33.62.08-.22.05-.48-.08-.68-.04-.05-.09-.11-.16-.1-.06,0-.11.05-.12.11s-.01.12,0,.18c.06.42.19.83.39,1.21"/>
          <path class="cls-13" d="M91.69,255.02c-.07.02-.08.14-.02.19.06.05.15.05.22,0,.07-.04.11-.1.15-.17.23-.36.44-.76.51-1.19.02-.09.02-.21-.06-.27-.08-.07-.2-.03-.29.02-.28.17-.47.48-.5.81.08-.26.09-.55.02-.83-.03-.1-.09-.23-.2-.22-.1,0-.14.11-.17.2-.07.28-.08.57-.03.86-.03-.29-.21-.57-.46-.72-.07-.04-.16-.08-.23-.04-.06.03-.09.11-.08.19s.05.14.09.2c.29.44.66.84,1.09,1.17"/>
        </g>
        <g>
          <path class="cls-13" d="M140.17,260.14s.04.65.14,1.68c.1,1.04.31,2.46.74,3.99.43,1.53.98,2.86,1.44,3.79.45.94.78,1.49.75,1.51-.01,0-.11-.12-.26-.37-.16-.24-.37-.61-.62-1.07-.49-.93-1.07-2.26-1.51-3.8-.43-1.54-.62-2.99-.68-4.03-.03-.52-.04-.95-.03-1.24,0-.29.02-.45.03-.45Z"/>
          <path class="cls-13" d="M143.28,264.18c.06.04-.73.91-1.07,2.27-.36,1.35-.1,2.5-.17,2.5-.04.03-.41-1.14-.03-2.56.36-1.42,1.25-2.26,1.27-2.22Z"/>
          <path class="cls-13" d="M142.15,261.66c.06.03-.41.9-.74,2.07-.33,1.16-.39,2.15-.45,2.15-.05,0-.09-1.01.25-2.2.33-1.19.89-2.04.94-2.01Z"/>
          <path class="cls-13" d="M139.01,264.96s.73.42,1.43,1.17c.71.75,1.13,1.47,1.08,1.5-.05.03-.54-.62-1.23-1.36-.69-.73-1.32-1.26-1.28-1.31Z"/>
          <path class="cls-13" d="M138.47,261.72s.82.68,1.48,1.81c.67,1.12.93,2.15.88,2.17-.06.02-.4-.96-1.06-2.06-.65-1.1-1.35-1.87-1.31-1.91Z"/>
          <path class="cls-13" d="M139.33,265.19c-.08-.36-.27-.68-.55-.92-.09-.08-.23-.15-.34-.09-.09.05-.1.18-.06.28.04.09.13.16.21.22-.16-.02-.33-.02-.49,0-.07,0-.17.04-.17.12,0,.07.08.11.14.14.16.06.32.11.48.16-.07.05-.17.03-.27.03-.09,0-.2.08-.17.16.02.07.11.08.18.09.33,0,.66-.06.96-.19"/>
          <path class="cls-13" d="M141.97,261.86c-.06,0-.11.07-.08.13.02.06.1.08.16.08s.12-.04.17-.07c.3-.19.59-.41.8-.71.04-.06.09-.15.05-.22-.04-.08-.14-.09-.22-.08-.27.03-.52.2-.66.43.15-.17.26-.38.31-.6.02-.08.01-.19-.07-.23-.07-.03-.15.03-.2.09-.15.18-.26.39-.33.62.08-.22.05-.48-.08-.68-.04-.05-.09-.11-.16-.1-.06,0-.11.05-.12.11s-.01.12,0,.18c.06.42.19.83.39,1.21"/>
          <path class="cls-13" d="M140.2,260.14c-.07.02-.08.14-.02.19.06.05.15.05.22,0,.07-.04.11-.1.15-.17.23-.36.44-.76.51-1.19.02-.09.02-.21-.06-.27-.08-.07-.2-.03-.29.02-.28.17-.47.48-.49.81.08-.26.09-.55.02-.83-.03-.1-.09-.23-.2-.22-.1,0-.14.11-.17.2-.07.28-.08.57-.03.86-.03-.29-.21-.57-.46-.72-.07-.04-.16-.08-.23-.04-.06.03-.09.11-.08.19.01.07.05.14.09.2.29.44.66.84,1.09,1.17"/>
        </g>
        <g>
          <path class="cls-13" d="M152.85,220.13s-.6.25-1.54.69c-.95.43-2.22,1.1-3.52,2.01-1.3.91-2.38,1.87-3.11,2.61-.74.74-1.15,1.23-1.18,1.21-.01,0,.08-.14.26-.37.18-.23.45-.55.81-.94.71-.77,1.78-1.76,3.1-2.68,1.32-.91,2.62-1.57,3.58-1.97.48-.2.88-.35,1.16-.43.28-.09.44-.13.44-.12Z"/>
          <path class="cls-13" d="M150.06,224.39c-.02.07-1.1-.39-2.49-.26-1.4.1-2.39.73-2.42.67-.04-.03.94-.76,2.4-.87,1.46-.13,2.55.43,2.51.47Z"/>
          <path class="cls-13" d="M152.06,222.5c-.01.06-.99-.09-2.19-.01-1.21.07-2.16.34-2.18.28-.02-.05.92-.42,2.16-.49,1.24-.08,2.22.17,2.21.22Z"/>
          <path class="cls-13" d="M147.91,220.62c.05.01-.15.83-.63,1.74-.47.91-1.02,1.55-1.06,1.52-.05-.04.41-.72.87-1.61.47-.89.76-1.66.81-1.64Z"/>
          <path class="cls-13" d="M150.8,219.04s-.38,1-1.22,2c-.84,1-1.73,1.59-1.75,1.55-.04-.05.78-.7,1.6-1.68.82-.98,1.32-1.89,1.38-1.86Z"/>
          <path class="cls-13" d="M147.81,220.99c.31-.19.56-.48.69-.82.05-.12.07-.27-.03-.35-.08-.06-.2-.03-.28.04-.07.07-.11.17-.14.27-.03-.16-.09-.32-.16-.46-.03-.07-.1-.14-.17-.12-.07.02-.08.11-.08.18,0,.17,0,.34.01.5-.07-.05-.09-.16-.12-.24-.03-.08-.14-.16-.21-.11-.06.04-.04.13-.02.2.11.31.28.6.5.84"/>
          <path class="cls-13" d="M151.81,222.39c-.01-.06-.11-.08-.15-.04-.05.04-.05.12-.02.17.03.06.08.1.13.14.28.22.59.42.93.52.07.02.17.03.22-.02.06-.06.04-.16,0-.24-.12-.25-.36-.43-.63-.48.21.09.44.12.67.1.08-.01.19-.05.19-.14,0-.08-.08-.13-.15-.15-.22-.08-.46-.12-.69-.1.24,0,.47-.11.61-.3.04-.05.07-.12.05-.18-.02-.05-.09-.08-.15-.08-.06,0-.11.03-.17.06-.38.2-.72.46-1.01.77"/>
          <path class="cls-13" d="M152.86,220.15c-.04-.06-.16-.03-.19.04-.03.07,0,.16.06.21.06.05.13.07.21.09.42.1.86.16,1.29.09.09-.02.2-.05.23-.14.04-.1-.04-.2-.12-.27-.25-.21-.61-.29-.93-.2.28,0,.55-.1.79-.25.09-.06.18-.16.14-.26-.04-.09-.15-.1-.25-.09-.28.03-.57.12-.82.26.26-.12.47-.38.53-.67.02-.08.02-.18-.04-.23-.05-.05-.14-.05-.2-.01-.06.03-.11.09-.16.15-.32.42-.58.9-.74,1.41"/>
        </g>
        <g>
          <path class="cls-13" d="M90.41,236.42s-.1.64-.22,1.67c-.13,1.03-.22,2.47-.14,4.05.09,1.58.35,3,.59,4.01.24,1.01.44,1.63.41,1.64-.01,0-.08-.14-.18-.42-.1-.27-.23-.68-.37-1.18-.28-1.01-.56-2.44-.66-4.04-.09-1.6.03-3.05.2-4.09.08-.52.17-.93.24-1.22.07-.28.12-.44.13-.44Z"/>
          <path class="cls-13" d="M92.58,241.03s-.91.73-1.53,1.99c-.64,1.24-.63,2.42-.7,2.41-.05.02-.15-1.2.51-2.5.65-1.31,1.7-1.94,1.72-1.89Z"/>
          <path class="cls-13" d="M92.01,238.33s-.6.79-1.16,1.86c-.57,1.06-.84,2.02-.9,2-.05,0,.13-1.01.72-2.1.58-1.1,1.31-1.8,1.35-1.76Z"/>
          <path class="cls-13" d="M88.24,240.88s.62.56,1.15,1.45c.53.88.79,1.68.74,1.7-.06.02-.39-.73-.91-1.59-.52-.86-1.02-1.51-.97-1.55Z"/>
          <path class="cls-13" d="M88.41,237.6s.65.84,1.06,2.08c.42,1.24.45,2.3.4,2.31-.06,0-.19-1.03-.59-2.24-.4-1.21-.92-2.12-.86-2.15Z"/>
          <path class="cls-13" d="M88.5,241.17c0-.36-.12-.73-.33-1.02-.07-.1-.19-.2-.31-.16-.1.03-.14.16-.12.26.02.1.09.18.15.26-.15-.06-.32-.09-.48-.1-.07,0-.17,0-.19.08-.02.07.05.13.11.16.14.09.29.17.43.25-.08.03-.18,0-.27-.02-.09-.01-.21.03-.2.12,0,.07.09.11.16.12.32.07.66.08.98.02"/>
          <path class="cls-13" d="M91.79,238.49c-.06-.02-.12.05-.11.11s.08.1.14.11c.06,0,.12-.01.18-.03.34-.12.67-.28.93-.52.06-.05.12-.12.1-.2-.02-.08-.12-.12-.2-.13-.27-.03-.55.08-.73.28.19-.13.34-.31.43-.52.04-.08.05-.19-.02-.23-.06-.04-.15,0-.21.05-.18.15-.34.33-.45.54.13-.2.15-.46.06-.68-.02-.06-.07-.12-.13-.14-.06,0-.12.03-.14.08-.03.05-.04.11-.04.17-.03.42,0,.85.12,1.26"/>
          <path class="cls-13" d="M90.43,236.43c-.08,0-.11.12-.06.18.05.06.14.08.21.06.07-.02.13-.08.18-.13.31-.3.59-.65.75-1.05.03-.09.06-.2,0-.27-.07-.08-.19-.07-.29-.04-.31.1-.57.37-.66.69.14-.24.21-.52.2-.8,0-.11-.04-.24-.14-.26-.09-.02-.16.08-.21.16-.13.26-.2.54-.21.83.03-.29-.08-.6-.29-.81-.06-.06-.14-.11-.22-.09-.07.02-.11.09-.12.16,0,.07.02.15.05.21.19.5.47.96.81,1.37"/>
        </g>
        <g>
          <path class="cls-13" d="M157.51,266.7s.13.63.38,1.65c.24,1.01.66,2.39,1.3,3.84.64,1.45,1.38,2.69,1.96,3.55.58.86.99,1.37.96,1.39-.01,0-.12-.11-.31-.33-.19-.22-.46-.55-.77-.98-.62-.85-1.38-2.09-2.03-3.55-.64-1.47-1.04-2.87-1.25-3.9-.1-.51-.17-.93-.2-1.22-.03-.29-.05-.45-.03-.45Z"/>
          <path class="cls-13" d="M161.16,270.26c.06.03-.59,1-.74,2.4-.17,1.39.26,2.49.19,2.5-.04.03-.57-1.07-.4-2.52.15-1.45.92-2.42.94-2.37Z"/>
          <path class="cls-13" d="M159.69,267.93c.06.02-.28.95-.43,2.15-.16,1.2-.08,2.18-.14,2.19-.05.01-.23-.99-.07-2.22.16-1.23.59-2.15.64-2.12Z"/>
          <path class="cls-13" d="M157.05,271.64s.78.31,1.59.95c.81.64,1.33,1.3,1.28,1.33-.04.04-.62-.54-1.41-1.17-.79-.63-1.49-1.06-1.46-1.11Z"/>
          <path class="cls-13" d="M156.05,268.51s.91.56,1.73,1.58c.82,1.01,1.23,2,1.18,2.02-.06.03-.54-.9-1.34-1.89-.8-1-1.6-1.66-1.56-1.71Z"/>
          <path class="cls-13" d="M157.4,271.82c-.13-.34-.36-.64-.67-.84-.1-.07-.25-.12-.35-.04-.08.07-.07.19-.02.28.06.09.15.14.24.19-.16,0-.33.03-.49.07-.07.02-.16.07-.15.14,0,.07.09.1.16.11.16.03.33.06.5.09-.07.06-.17.05-.26.07s-.19.1-.15.18c.03.07.12.07.19.06.33-.04.64-.16.92-.33"/>
          <path class="cls-13" d="M159.54,268.16c-.06,0-.1.09-.06.14.03.05.11.07.17.05.06-.02.11-.06.16-.1.27-.23.53-.49.69-.81.04-.07.06-.16.02-.22-.05-.07-.15-.07-.23-.05-.26.07-.49.27-.59.52.13-.19.21-.41.22-.64,0-.09-.02-.19-.1-.21-.08-.02-.14.06-.18.12-.12.2-.2.43-.23.66.05-.23-.02-.49-.18-.66-.04-.05-.1-.09-.17-.08-.06.01-.1.07-.11.13s0,.12.02.17c.12.41.31.8.56,1.14"/>
          <path class="cls-13" d="M157.54,266.7c-.07.03-.06.15,0,.19.07.04.16.03.22-.02.06-.05.09-.12.13-.19.18-.39.32-.81.33-1.25,0-.09-.01-.21-.1-.26-.09-.06-.21,0-.29.06-.26.21-.4.54-.37.88.04-.27,0-.56-.1-.82-.04-.1-.12-.21-.23-.19-.09.02-.13.13-.14.22-.03.28,0,.58.1.85-.07-.28-.28-.53-.56-.65-.08-.03-.17-.05-.23,0-.06.04-.07.13-.05.19.02.07.07.13.12.18.35.4.78.74,1.24,1"/>
        </g>
        <g>
          <path class="cls-13" d="M147.27,248.97s.16-.63.39-1.64c.23-1.01.47-2.44.54-4.02.07-1.59-.05-3.02-.19-4.05-.14-1.03-.28-1.66-.24-1.67.01,0,.06.15.14.43.08.28.17.7.25,1.21.18,1.03.32,2.48.25,4.08-.07,1.6-.34,3.03-.61,4.05-.13.51-.26.91-.36,1.19-.1.28-.16.43-.17.42Z"/>
          <path class="cls-13" d="M145.57,244.16c-.04-.05.98-.64,1.72-1.82.76-1.17.87-2.34.94-2.33.05-.01.03,1.21-.76,2.44-.78,1.23-1.89,1.76-1.9,1.71Z"/>
          <path class="cls-13" d="M145.86,246.91s.67-.73,1.34-1.74c.68-1,1.04-1.92,1.1-1.9.05.01-.23.99-.92,2.02-.69,1.03-1.48,1.66-1.51,1.62Z"/>
          <path class="cls-13" d="M149.87,244.74s-.56-.62-1-1.55c-.44-.93-.61-1.75-.56-1.76.06-.02.32.76.75,1.67.43.91.86,1.61.81,1.64Z"/>
          <path class="cls-13" d="M149.38,247.99s-.57-.91-.85-2.18c-.29-1.27-.22-2.34-.16-2.33.06,0,.08,1.04.37,2.29.28,1.25.7,2.2.65,2.22Z"/>
          <path class="cls-13" d="M149.64,244.43c-.04.36.04.74.23,1.05.06.11.17.22.29.19.1-.02.15-.14.14-.24-.01-.1-.07-.19-.13-.28.15.07.31.12.47.15.07.01.17.01.2-.06.02-.07-.04-.13-.09-.17-.13-.1-.27-.2-.41-.3.09-.02.18.03.26.05.09.02.21-.01.21-.1,0-.07-.08-.12-.15-.14-.31-.11-.65-.14-.97-.12"/>
          <path class="cls-13" d="M146.1,246.77c.06.03.13-.04.12-.1s-.06-.11-.13-.12c-.06-.01-.12,0-.19.02-.35.09-.69.21-.98.42-.06.05-.13.11-.12.19.01.08.11.13.19.15.27.05.56-.03.76-.21-.2.11-.37.28-.48.47-.04.07-.07.18,0,.24.06.05.15.01.21-.03.2-.13.37-.29.5-.49-.15.19-.2.44-.13.67.02.06.05.13.12.15.06.02.12-.02.15-.07s.05-.11.06-.17c.07-.42.08-.85,0-1.27"/>
          <path class="cls-13" d="M147.25,248.96c.08,0,.12-.1.08-.17-.04-.07-.13-.09-.2-.08-.07.02-.14.06-.2.11-.34.27-.65.58-.85.97-.04.08-.08.19-.03.27.06.09.18.09.28.07.32-.07.6-.31.72-.62-.16.23-.26.5-.28.78,0,.11.02.24.12.27.09.03.17-.06.22-.14.15-.24.25-.52.29-.81-.06.29.02.6.21.83.05.06.13.12.21.11.07-.01.12-.08.13-.15.01-.07,0-.15-.03-.22-.14-.51-.37-1-.67-1.45"/>
        </g>
        <g>
          <path class="cls-13" d="M117.85,211.16s-.6.25-1.54.69c-.95.43-2.22,1.1-3.52,2.01-1.3.91-2.37,1.87-3.11,2.61-.74.74-1.15,1.23-1.18,1.21-.01,0,.08-.14.26-.37.18-.23.45-.55.81-.94.71-.77,1.78-1.76,3.1-2.68,1.32-.91,2.62-1.57,3.58-1.97.48-.2.88-.35,1.16-.43.28-.09.44-.13.44-.12Z"/>
          <path class="cls-13" d="M115.06,215.42c-.02.07-1.1-.39-2.49-.26-1.4.1-2.39.73-2.42.67-.04-.03.94-.76,2.4-.87,1.46-.13,2.55.43,2.51.47Z"/>
          <path class="cls-13" d="M117.06,213.53c-.01.06-.99-.09-2.19-.01-1.21.07-2.16.34-2.18.28-.02-.05.92-.42,2.16-.49,1.24-.08,2.22.17,2.21.22Z"/>
          <path class="cls-13" d="M112.91,211.65c.05.01-.15.83-.63,1.74-.47.91-1.02,1.55-1.06,1.52-.05-.04.41-.72.87-1.61.47-.89.76-1.66.81-1.64Z"/>
          <path class="cls-13" d="M115.8,210.07s-.38,1-1.22,2c-.84,1-1.73,1.59-1.75,1.55-.04-.05.78-.7,1.6-1.68.82-.98,1.32-1.89,1.38-1.86Z"/>
          <path class="cls-13" d="M112.81,212.03c.31-.19.56-.48.69-.82.05-.12.07-.27-.03-.35-.08-.06-.2-.03-.28.04-.07.07-.11.17-.14.27-.03-.16-.09-.32-.16-.46-.03-.07-.1-.14-.17-.12-.07.02-.08.11-.08.18,0,.17,0,.34.01.5-.07-.05-.09-.16-.12-.24-.03-.08-.14-.16-.21-.11-.06.04-.04.13-.02.2.11.31.28.6.5.84"/>
          <path class="cls-13" d="M116.81,213.42c-.01-.06-.1-.08-.15-.04-.05.04-.05.12-.02.17s.08.1.13.14c.28.22.59.42.93.52.07.02.17.03.22-.02.06-.06.04-.16,0-.24-.12-.25-.36-.43-.63-.48.21.09.44.12.67.1.09-.01.19-.05.19-.14,0-.08-.08-.13-.15-.15-.22-.08-.46-.12-.69-.1.24,0,.47-.11.61-.3.04-.05.07-.12.05-.18-.02-.05-.09-.08-.15-.08-.06,0-.11.03-.17.06-.38.2-.72.46-1.01.77"/>
          <path class="cls-13" d="M117.85,211.18c-.04-.06-.16-.03-.19.04-.03.07,0,.16.06.21.06.05.13.07.21.09.42.1.86.16,1.29.09.09-.02.2-.05.23-.14.04-.1-.04-.2-.12-.27-.25-.21-.61-.29-.93-.2.28,0,.55-.1.79-.25.09-.06.18-.16.14-.26-.04-.09-.15-.1-.25-.09-.28.03-.57.12-.82.26.26-.12.47-.38.53-.67.02-.08.02-.18-.04-.23-.05-.05-.14-.05-.2-.01-.06.03-.11.09-.16.15-.32.42-.58.9-.74,1.41"/>
        </g>
        <g>
          <path class="cls-13" d="M142.66,197.78s.32.56.85,1.46c.53.89,1.34,2.08,2.39,3.28,1.05,1.19,2.12,2.15,2.94,2.8.81.65,1.35,1.01,1.33,1.04,0,.01-.15-.07-.4-.22-.25-.15-.6-.39-1.02-.7-.84-.62-1.95-1.57-3-2.78-1.05-1.21-1.85-2.42-2.36-3.34-.25-.46-.44-.84-.56-1.11-.12-.27-.18-.42-.17-.42Z"/>
          <path class="cls-13" d="M147.21,200.08c.07.01-.26,1.14.02,2.51.26,1.38.99,2.29.93,2.33-.03.04-.86-.85-1.14-2.29-.29-1.43.15-2.58.19-2.55Z"/>
          <path class="cls-13" d="M145.1,198.3c.06,0,.02.99.23,2.18.2,1.19.58,2.11.52,2.13-.04.03-.52-.87-.73-2.09-.22-1.22-.08-2.23-.02-2.22Z"/>
          <path class="cls-13" d="M143.7,202.63c0-.05.84.06,1.8.43.96.37,1.65.84,1.62.88-.03.05-.76-.33-1.7-.69-.94-.36-1.74-.57-1.72-.63Z"/>
          <path class="cls-13" d="M141.81,199.94s1.03.26,2.12.99c1.09.72,1.77,1.54,1.73,1.57-.05.04-.78-.7-1.85-1.4-1.06-.71-2.03-1.1-2-1.16Z"/>
          <path class="cls-13" d="M144.08,202.69c-.22-.29-.54-.5-.89-.6-.12-.03-.27-.04-.34.07-.05.09-.01.21.07.27s.18.09.28.11c-.16.05-.3.12-.44.21-.06.04-.13.11-.1.18.03.07.12.07.19.06.17-.02.33-.04.5-.07-.05.08-.15.1-.22.15-.08.04-.15.15-.08.22.05.05.14.03.2,0,.3-.14.57-.34.78-.59"/>
          <path class="cls-13" d="M145.03,198.56c-.06.02-.07.11-.02.15.05.04.12.03.18,0,.05-.03.09-.09.12-.14.19-.3.36-.63.41-.98.01-.08.01-.17-.05-.22-.07-.05-.16-.02-.24.03-.23.15-.39.4-.4.68.07-.22.07-.45.02-.68-.02-.08-.07-.18-.16-.17-.08,0-.12.09-.14.17-.06.23-.06.47-.03.7-.02-.24-.16-.46-.37-.58-.06-.03-.13-.06-.19-.03-.05.03-.07.1-.06.15s.04.11.07.16c.24.35.53.67.87.92"/>
          <path class="cls-13" d="M142.68,197.77c-.06.05-.01.16.06.18s.16-.02.2-.09.05-.14.06-.22c.05-.43.07-.87-.06-1.29-.03-.09-.07-.19-.17-.22-.1-.03-.2.06-.25.15-.18.27-.22.64-.09.95-.04-.27-.16-.54-.34-.76-.07-.08-.18-.16-.27-.11-.08.05-.08.16-.06.25.06.28.18.55.35.79-.15-.25-.43-.42-.73-.45-.08,0-.18,0-.22.06-.04.06-.03.14.01.2.04.06.11.1.17.14.46.27.96.47,1.48.58"/>
        </g>
        <g>
          <path class="cls-13" d="M97.65,202.76s.32.56.85,1.46c.53.89,1.34,2.08,2.39,3.28,1.05,1.19,2.12,2.15,2.94,2.8.81.65,1.35,1.01,1.33,1.04,0,.01-.15-.07-.4-.22-.25-.15-.6-.39-1.02-.7-.84-.62-1.95-1.57-3-2.78-1.05-1.21-1.85-2.42-2.36-3.34-.25-.46-.44-.84-.56-1.11-.12-.27-.18-.42-.17-.42Z"/>
          <path class="cls-13" d="M102.2,205.05c.07,0-.26,1.14.02,2.51.26,1.38.99,2.29.93,2.33-.03.04-.86-.85-1.14-2.29-.29-1.43.15-2.58.19-2.55Z"/>
          <path class="cls-13" d="M100.09,203.27c.06,0,.02.99.23,2.18.2,1.19.58,2.11.52,2.13-.04.03-.52-.87-.73-2.09-.22-1.22-.08-2.23-.02-2.22Z"/>
          <path class="cls-13" d="M98.69,207.61c0-.05.84.06,1.8.43.96.37,1.65.84,1.62.88-.03.05-.76-.33-1.7-.69-.94-.36-1.74-.57-1.72-.63Z"/>
          <path class="cls-13" d="M96.8,204.92s1.03.26,2.12.99c1.09.72,1.77,1.54,1.73,1.57-.05.04-.78-.7-1.85-1.4-1.06-.71-2.03-1.1-2-1.16Z"/>
          <path class="cls-13" d="M99.07,207.67c-.22-.29-.54-.5-.89-.6-.12-.03-.27-.04-.34.07-.05.09-.01.21.07.27.08.07.18.09.28.11-.16.05-.3.12-.44.21-.06.04-.13.11-.1.18.03.07.12.07.19.06.17-.02.33-.04.5-.07-.05.08-.15.1-.22.15-.08.04-.15.15-.08.22.05.05.14.03.2,0,.3-.14.57-.34.78-.59"/>
          <path class="cls-13" d="M100.01,203.53c-.06.02-.07.11-.02.15.05.04.12.03.18,0s.09-.09.12-.14c.19-.3.36-.63.41-.98.01-.08.01-.17-.05-.22-.07-.05-.16-.02-.24.03-.23.15-.39.4-.4.68.07-.22.07-.45.02-.68-.02-.08-.07-.18-.16-.17-.08,0-.12.09-.14.17-.06.23-.06.47-.03.7-.02-.24-.16-.46-.37-.58-.06-.03-.13-.06-.19-.03-.05.03-.07.1-.06.15s.04.11.07.16c.24.35.53.67.87.92"/>
          <path class="cls-13" d="M97.67,202.75c-.06.05-.01.16.06.18.08.02.16-.02.2-.09.04-.06.05-.14.06-.22.05-.43.07-.87-.06-1.29-.03-.09-.07-.19-.17-.22-.1-.03-.2.06-.25.15-.18.27-.22.64-.1.95-.04-.27-.16-.54-.34-.76-.07-.08-.18-.16-.27-.11-.08.05-.08.16-.06.25.06.28.18.55.35.79-.15-.25-.43-.42-.73-.45-.08,0-.18,0-.22.06-.04.06-.03.14.01.2.04.06.11.1.17.14.46.27.96.47,1.48.58"/>
        </g>
        <path class="cls-9" d="M144,195.73s-.12.02-.35.03c-.25,0-.59.02-1.02.04-.89.05-2.23.3-3.81,1.01-3.17,1.42-6.93,5.31-9.38,11.26h0s0,.01,0,.01c-4.96,10.38-11.85,24.82-19.92,41.71l-.06.13h-.15c-10.06.18-21.12.38-32.71.59l.24-.16c-1.35,3.4-2.79,7-4.24,10.65-.44,1.11-.88,2.22-1.32,3.31l-.18-.35c16.93,3.9,32.85,7.57,46.7,10.76h-.09c2.1-.47,4.11-1.42,5.64-2.82.78-.7,1.38-1.51,1.89-2.42.53-.89,1.05-1.77,1.56-2.64,2.01-3.51,3.92-6.84,5.72-9.97,3.56-6.28,6.68-11.77,9.25-16.3,2.56-4.51,4.59-8.07,5.98-10.52.69-1.2,1.22-2.13,1.59-2.77.18-.3.31-.53.42-.71.1-.16.15-.24.15-.23,0,0-.03.09-.12.25-.09.18-.22.42-.38.72-.36.65-.87,1.59-1.53,2.81-1.37,2.47-3.35,6.05-5.87,10.59-2.55,4.55-5.63,10.05-9.16,16.35-1.79,3.14-3.68,6.48-5.68,10-.51.87-1.03,1.76-1.56,2.65-.51.9-1.16,1.79-1.96,2.52-1.61,1.46-3.65,2.44-5.86,2.94h-.04s-.05,0-.05,0c-13.85-3.17-29.78-6.82-46.71-10.7l-.3-.07.11-.28c.43-1.09.88-2.2,1.32-3.31,1.45-3.65,2.89-7.25,4.24-10.65l.06-.16h.17c11.6-.2,22.66-.38,32.71-.55l-.21.14c8.13-16.86,15.08-31.27,20.08-41.63h0c2.52-5.99,6.35-9.89,9.6-11.29,1.61-.7,2.97-.92,3.87-.95.44,0,.78,0,1.03,0,.23,0,.35,0,.35.01Z"/>
      </g>
      <g>
        <path class="cls-9" d="M127.35,283.02c-4.75-5.69-11.87-9.96-19.27-9.56-5.52.3-12.62,2.92-17.21,5.52-13.01,7.38-10.59,24.16-10.59,24.16l14.14,88.93,26.17-3.38-2.87-85.48,14.53-11.08-4.91-9.11Z"/>
        <path class="cls-8" d="M132.67,291.9s-.08.09-.25.24c-.2.17-.45.39-.76.67-.71.6-1.7,1.44-2.95,2.51-2.61,2.18-6.3,5.28-10.82,9.06l.07-.17c.41,8.48.83,19.39,1.2,31.25.42,13.96.81,26.59,1.09,35.78.14,4.55.26,8.24.34,10.84.03,1.25.06,2.23.08,2.95,0,.31,0,.56,0,.77,0,.17,0,.26-.02.26,0,0-.02-.09-.04-.26-.02-.2-.03-.45-.06-.77-.04-.71-.1-1.7-.17-2.94-.12-2.6-.29-6.29-.5-10.84-.39-9.15-.8-21.8-1.24-35.78-.37-11.86-.75-22.77-1.09-31.25v-.1s.07-.06.07-.06c4.56-3.73,8.3-6.78,10.93-8.93,1.28-1.03,2.3-1.84,3.02-2.43.33-.26.59-.46.8-.62.18-.14.28-.2.29-.2Z"/>
        <path class="cls-8" d="M120.6,384.56s.02.09.02.27c0,.2.01.46.02.79.01.73.02,1.75.04,3.08v.08s-.08.01-.08.01c-4.96.67-14.22,1.91-26.16,3.51l-.21.03-.03-.21c-1.68-10.47-3.69-23.04-5.85-36.54-2.9-18.41-5.52-35.08-7.43-47.18-1.09-6.05-.69-11.09-.02-14.44.32-1.68.73-2.96,1.07-3.79.35-.83.63-1.22.63-1.22,0,0-.04.11-.14.32-.1.21-.23.52-.39.94-.31.84-.68,2.11-.97,3.79-.6,3.35-.94,8.34.19,14.35,1.94,12.09,4.62,28.75,7.58,47.16,2.13,13.51,4.12,26.08,5.77,36.55l-.24-.18c11.95-1.48,21.22-2.64,26.19-3.25l-.08.09c.02-1.33.03-2.36.04-3.08,0-.33.02-.59.02-.79,0-.18.02-.27.02-.27Z"/>
        <path class="cls-8" d="M112.61,289.57c.05-.04.59.6,1.28,1.74.7,1.14,1.52,2.81,2.15,4.77.62,1.95.91,3.8,1,5.13.09,1.34.02,2.16-.04,2.16-.17.01-.22-3.3-1.45-7.14-1.2-3.85-3.08-6.58-2.93-6.67Z"/>
      </g>
      <g>
        <g>
          <path class="cls-2" d="M126.32,192.46c1.97-1.99.82-3.14.08-5.1l-14.05-41.97c-6.1-13.76-24.02-5.59-24.02-5.59-8.45,3.1-9.65,12.61-7.69,19.09,2.17,7.2,5.1,15.91,7.88,20.86,5.6,9.94,14.19,8.28,14.19,8.28l3.55,9.58c1.26,3.38,5.34,4.7,8.34,2.7l11.72-7.85Z"/>
          <g>
            <path class="cls-9" d="M85.61,165.93c.24.72,1.05,1.12,1.81.88.76-.24,1.18-1.01.94-1.74-.24-.72-1.05-1.12-1.81-.88-.76.24-1.18,1.02-.94,1.74Z"/>
            <path class="cls-9" d="M84.35,164.11c.23.11.98-1.03,2.44-1.56,1.45-.56,2.8-.2,2.89-.44.05-.11-.24-.36-.83-.53-.58-.17-1.49-.21-2.39.13-.91.34-1.55.96-1.86,1.46-.32.51-.35.89-.24.93Z"/>
          </g>
          <g>
            <path class="cls-9" d="M99.25,161.56c.24.72,1.05,1.12,1.81.88.76-.24,1.18-1.01.94-1.74-.24-.72-1.05-1.12-1.81-.88-.76.24-1.18,1.02-.94,1.74Z"/>
            <path class="cls-9" d="M98.68,158.8c.23.11.98-1.03,2.44-1.56,1.45-.56,2.8-.2,2.89-.44.05-.11-.24-.36-.83-.53-.58-.17-1.49-.21-2.39.13-.91.34-1.55.96-1.86,1.46-.32.51-.35.89-.24.93Z"/>
          </g>
          <path class="cls-9" d="M97.76,171.6c-.02-.09-.99.09-2.53.45-.39.1-.77.16-.92-.07-.19-.24-.18-.7-.16-1.2.02-1.03.03-2.11.05-3.24.03-4.6-.09-8.33-.28-8.33-.19,0-.36,3.73-.39,8.33,0,1.13,0,2.21,0,3.24.02.48-.05,1.04.35,1.53.2.24.55.34.81.32.27-.02.48-.09.66-.15,1.51-.47,2.43-.8,2.4-.89Z"/>
          <path class="cls-7" d="M102.71,188.03s7.27-2.18,12.74-9.02c0,0-.74,8.53-11.68,11.46l-1.07-2.44Z"/>
          <path class="cls-7" d="M100.25,176.38c-.43-.33-.63-.94-.48-1.46.15-.52.64-.93,1.19-.98-.25-.47-.07-1.11.34-1.45s1.01-.42,1.53-.28c1.01.26,1.74,1.3,1.7,2.34-.04,1.04-.8,2-1.79,2.32-.99.32-2.14,0-2.87-.75"/>
          <path class="cls-9" d="M102.43,171.02c-.24.07.34,1.66-.6,3.28-.93,1.63-2.69,2.08-2.62,2.3.01.11.49.17,1.21-.08.71-.24,1.64-.84,2.22-1.83.57-1,.59-2.05.4-2.71-.18-.68-.51-1.01-.61-.96Z"/>
          <path class="cls-9" d="M96.46,156.72c.29.34,1.68-.38,3.46-.81,1.78-.46,3.34-.48,3.44-.91.04-.21-.34-.49-1.04-.67-.69-.18-1.71-.21-2.78.05-1.07.27-1.95.78-2.48,1.26-.53.49-.73.91-.6,1.08Z"/>
          <path class="cls-9" d="M82.35,159.5c.38.24,1.26-.48,2.46-.94,1.18-.51,2.31-.6,2.42-1.04.04-.21-.24-.48-.81-.63-.56-.15-1.39-.13-2.21.2-.82.33-1.43.9-1.72,1.4-.3.5-.31.89-.14,1.01Z"/>
        </g>
        <path class="cls-9" d="M104.9,162.51c0,.18-.15.33-.33.32-.18,0-.32-.16-.32-.34,0-.18.15-.33.33-.32.18,0,.32.16.32.34Z"/>
        <path class="cls-9" d="M133.06,188.98l6.86,1.54s-.34-2.47-.34-2.47c0-.03-.72-10.77-9.34-18.48-8.64-7.72,3.06-10.7-4.44-20.87-2.48-3.36-5.23-6.41-8.78-8.61-.63-.39-1.22-.85-1.77-1.33-1.46-1.29-2.74-2.8-4.33-3.93-1.2-.85-2.64-1.47-4.09-1.49,0,0,0,0,0,0-.87-.36-1.78-.63-2.75-.77-4.21-.63-8.39,1.06-12.31,2.71-3.8,1.6-14,1.22-10.77,11.65,0,0,0,0,0,0,.67-1.74,3.28-3.17,5.33-1.47,1.43,1.19,2.15,2.24,2.49,4.07.46,2.43,1.17,5.12,4.11,5.75.72.15,1.47.13,2.18-.03,2.46-.55,4.43-4.27,9.12-3.38,0,0,4.57,1.42,4.84,4.29.27,2.87-1.32,8.2,1.49,10.74,2.81,2.54,3.29,2.47,3.21,4.66-.02.5-.02.85-.05,1.1-.36,3.47.32,20.31,14.16,14.94,0,0,5.17,1.4,5.17,1.4"/>
      </g>
      <path class="cls-9" d="M127.14,188.98s.06.08.13.26c.06.18.15.45.18.81.03.36,0,.83-.22,1.32-.21.49-.59.96-1.06,1.4-.94.86-2.11,1.84-3.51,2.79-1.41.93-2.95,1.93-4.56,2.99-.81.51-1.59,1.08-2.44,1.48-.84.4-1.68.71-2.5.94-.82.23-1.61.39-2.37.48-.82.07-1.54-.21-2.09-.55-1.12-.71-1.73-1.61-2.07-2.23-.34-.64-.39-1.05-.36-1.05.04-.01.16.36.54.95.38.57,1.02,1.4,2.08,2.02.52.3,1.18.52,1.86.44.72-.1,1.49-.27,2.28-.51.79-.24,1.6-.54,2.41-.94.81-.38,1.55-.93,2.38-1.45,1.62-1.04,3.16-2.04,4.58-2.95,1.39-.91,2.57-1.85,3.53-2.66.97-.79,1.37-1.75,1.33-2.44,0-.69-.16-1.07-.11-1.08Z"/>
    </g>
  </g>
  <g id="Plant">
    <g>
      <path class="cls-3" d="M407.86,353.02c1.04-3.6,3.27-7.09,6.71-8.57,3.58-1.54,7.73-.67,11.4.67,3.67,1.33,7.27,3.12,11.16,3.36,3.89.24,8.29-1.61,9.46-5.33,1.1-3.5-1.01-7.23-3.66-9.78-5.55-5.34-13.9-7.61-21.39-5.81-7.49,1.8-13.9,7.61-16.42,14.89"/>
      <g>
        <g class="cls-17">
          <path class="cls-6" d="M407.86,353.02c1.04-3.6,3.27-7.09,6.71-8.57,3.58-1.54,7.73-.67,11.4.67,3.67,1.33,7.27,3.12,11.16,3.36,3.89.24,8.29-1.61,9.46-5.33,1.1-3.5-1.01-7.23-3.66-9.78-5.55-5.34-13.9-7.61-21.39-5.81-7.49,1.8-13.9,7.61-16.42,14.89"/>
        </g>
        <path class="cls-3" d="M377.01,368.67c-5.71-5.43-5.43-14.88-2.58-22.22,2.85-7.35,9.07-12.99,16.02-16.71,13.47-7.21,30.31-7.75,44.21-1.43-6.83.23-13.44,4.11-16.97,9.96-3.13,5.2-3.83,11.51-6.41,17-2.88,6.12-8.17,11.06-14.47,13.52-6.3,2.46-13.54,2.42-19.8-.12"/>
        <path class="cls-3" d="M374.26,336.06c-6.33-7.47-7.17-19.45-6.24-29.2.93-9.74,3.19-19.55,1.65-29.21-.91-5.73-3.13-11.19-3.88-16.94-.75-5.75.31-12.25,4.77-15.96,5.12-4.27,13.18-3.26,18.51.75,5.33,4,8.41,10.3,10.67,16.57,4.95,13.78,6.77,29.05,2.7,43.11-4.07,14.06-13.62,26.64-27.63,30.88"/>
        <path class="cls-9" d="M371.22,397.32s-.03-.3-.02-.86c0-.56,0-1.4.05-2.47.08-2.14.29-5.24.77-9.04.48-3.8,1.23-8.31,2.43-13.24,1.18-4.94,3.19-10.21,6.04-15.33,2.86-5.13,6.35-9.55,9.88-13.2,3.54-3.65,7.16-6.49,10.35-8.61,1.58-1.09,3.11-1.92,4.42-2.69,1.35-.71,2.53-1.29,3.49-1.76.95-.4,1.71-.72,2.28-.96.52-.21.8-.32.81-.3,0,.02-.26.15-.76.4-.55.26-1.29.61-2.23,1.04-.95.49-2.11,1.1-3.44,1.83-1.3.79-2.8,1.64-4.36,2.74-3.15,2.15-6.72,5-10.21,8.64-3.48,3.64-6.93,8.04-9.77,13.12-5.82,10.17-7.41,20.87-8.56,28.37-.52,3.79-.79,6.87-.93,9.01-.06,1.03-.11,1.85-.14,2.46-.04.56-.06.86-.08.86Z"/>
        <g>
          <path class="cls-3" d="M316.66,306.6c-11.7,7.06-11.67,13.49-9.71,19.56,1.95,6.07,9.14,10.28,15.09,8.01,3.37-1.28,5.81-4.21,7.89-7.15,2.08-2.94,4.04-6.09,6.96-8.2,2.92-2.11,7.15-2.92,10.08-.83"/>
          <g class="cls-17">
            <path class="cls-6" d="M316.66,306.6c-11.7,7.06-11.67,13.49-9.71,19.56,1.95,6.07,9.14,10.28,15.09,8.01,3.37-1.28,5.81-4.21,7.89-7.15,2.08-2.94,4.04-6.09,6.96-8.2,2.92-2.11,7.15-2.92,10.08-.83"/>
          </g>
          <path class="cls-3" d="M307.9,314.34c3.06-4.23,10.62-5.45,15.39-3.34,4.77,2.11,8.27,6.29,11.4,10.47,3.13,4.18,6.18,8.59,10.51,11.49,4.34,2.91,10.39,3.96,14.71,1.03,2.84-1.92,4.48-5.27,5-8.65.51-3.39.02-6.85-.69-10.2-1.03-4.91-2.72-10.03-6.65-13.15-4.38-3.48-10.45-3.64-16.04-3.46-6.41.21-12.92.69-18.93,2.91-6.02,2.22-12.16,7.02-14.71,12.9"/>
          <path class="cls-9" d="M361.5,387.95s-.02-.09-.03-.26c-.01-.2-.02-.45-.04-.76-.02-.71-.06-1.68-.1-2.9-.07-2.57-.18-6.2-.31-10.68-.14-4.51-.33-9.88-.65-15.83-.33-5.95-.78-12.5-1.68-19.31-.46-3.4-1-6.73-1.94-9.81-.95-3.08-2.21-5.95-3.59-8.58-1.39-2.62-2.91-5.01-4.53-7.1-1.62-2.08-3.3-3.89-4.94-5.42-3.32-3.04-6.5-4.89-8.76-5.97-.57-.26-1.07-.52-1.52-.7-.44-.17-.82-.32-1.14-.44-.28-.11-.51-.21-.7-.28-.16-.07-.24-.1-.23-.11,0,0,.09.01.25.06.19.06.43.14.72.23.33.11.72.24,1.17.4.46.17.96.41,1.55.66,2.3,1.03,5.54,2.85,8.92,5.88,1.68,1.53,3.38,3.34,5.03,5.43,1.65,2.1,3.2,4.5,4.61,7.14,1.4,2.65,2.68,5.53,3.65,8.66.96,3.13,1.51,6.47,1.97,9.89.91,6.84,1.33,13.4,1.64,19.36.3,5.96.44,11.34.54,15.85.09,4.51.13,8.17.14,10.69,0,1.23,0,2.2,0,2.91,0,.31,0,.56-.01.76,0,.17-.01.26-.02.26Z"/>
        </g>
        <path class="cls-9" d="M365.71,393.24s-.65-1.74-1.28-5.03c-.61-3.28-1.07-8.15-.54-14.12.5-5.97,2.03-12.97,4.46-20.49,2.4-7.53,5.66-15.58,8.45-24.24,1.38-4.33,2.56-8.62,3.36-12.82.82-4.21,1.33-8.31,1.66-12.24.66-7.85.56-14.97.37-20.92-.2-5.96-.52-10.78-.72-14.11-.1-1.64-.17-2.93-.23-3.84-.02-.42-.03-.75-.05-1,0-.23,0-.34,0-.34,0,0,.03.11.05.34.02.25.06.58.1.99.08.91.19,2.19.32,3.83.26,3.33.63,8.14.88,14.11.24,5.96.37,13.09-.26,20.98-.32,3.94-.82,8.07-1.64,12.29-.8,4.23-1.98,8.54-3.37,12.88-2.79,8.68-6.07,16.73-8.49,24.23-2.45,7.49-4.01,14.44-4.55,20.37-.58,5.93-.18,10.77.37,14.05.29,1.64.55,2.91.78,3.75.1.4.18.73.24.97.05.22.07.33.06.34Z"/>
        <polygon class="cls-8" points="394.72 398.53 339.77 398.53 338.51 387.95 394.72 387.95 394.72 398.53"/>
        <polygon class="cls-8" points="345.67 397.32 352.54 429.05 382.4 429.05 388.83 397.32 345.67 397.32"/>
        <path class="cls-8" d="M394.72,398.53c0,.14-12.08.23-26.98.19-14.91-.04-26.98-.19-26.98-.34,0-.14,12.08-.23,26.99-.19,14.9.04,26.98.19,26.98.34Z"/>
        <path class="cls-9" d="M385.29,414.19c-.07.11-1.62-1.49-4.84-2.77-1.6-.63-3.62-1.13-5.89-1.18-2.27-.07-4.74.47-7.24,1.33-2.5.85-4.84,1.83-7.12,2.38-2.29.49-4.42.46-6.16.19-1.74-.27-3.09-.79-3.96-1.25-.43-.24-.75-.44-.95-.61-.21-.16-.31-.24-.3-.26.03-.04.47.27,1.34.68.88.4,2.21.85,3.92,1.07,1.7.22,3.79.21,6-.29,2.2-.55,4.54-1.55,7.06-2.4,2.52-.87,5.07-1.42,7.42-1.31,2.34.08,4.4.63,6.01,1.32,1.63.68,2.81,1.49,3.58,2.09.39.3.67.55.85.74.19.18.28.28.27.29Z"/>
        <path class="cls-14" d="M384.87,416.31c-.07.11-1.56-1.44-4.65-2.74-1.53-.64-3.48-1.13-5.67-1.17-2.2-.06-4.59.44-7,1.26-2.42.81-4.69,1.75-6.86,2.33-2.17.59-4.21.8-5.92.66-1.71-.12-3.04-.6-3.88-1.04-.42-.23-.73-.42-.92-.58-.2-.15-.3-.24-.29-.25.03-.04.45.26,1.3.65.85.37,2.15.78,3.81.85,1.66.09,3.65-.15,5.76-.76,2.12-.6,4.38-1.55,6.83-2.36,2.44-.83,4.91-1.34,7.18-1.24,2.26.07,4.26.62,5.81,1.31,1.56.68,2.69,1.49,3.43,2.08.37.29.64.54.82.72.18.17.27.27.25.28Z"/>
        <path class="cls-14" d="M385.84,412.08c-.07.1-1.68-1.52-4.97-2.93-1.63-.69-3.69-1.31-6.03-1.45-2.34-.16-4.89.43-7.47,1.32-2.59.87-4.99,1.92-7.37,2.41-2.38.43-4.57.3-6.36.01-1.79-.31-3.18-.82-4.08-1.29-.44-.25-.78-.45-.99-.62-.21-.16-.32-.25-.31-.26.03-.04.48.28,1.39.7.91.41,2.29.85,4.05,1.11,1.76.24,3.91.33,6.21-.12,2.28-.49,4.69-1.55,7.3-2.43,2.59-.89,5.24-1.5,7.66-1.3,2.41.17,4.51.84,6.15,1.59,1.66.74,2.87,1.59,3.67,2.21.4.31.69.57.88.76.19.18.29.29.27.3Z"/>
      </g>
      <path class="cls-9" d="M395.21,398.57c0,.14-12.36.26-27.61.26s-27.61-.12-27.61-.26,12.36-.26,27.61-.26,27.61.12,27.61.26Z"/>
    </g>
  </g>
</svg>