<?xml version="1.0" encoding="UTF-8"?>
<svg xmlns="http://www.w3.org/2000/svg" viewBox="0 0 449.1 424.64">
  <defs>
    <style>
      .cls-1 {
        fill: #e8505b;
      }

      .cls-1, .cls-2, .cls-3, .cls-4, .cls-5, .cls-6, .cls-7, .cls-8, .cls-9, .cls-10, .cls-11, .cls-12, .cls-13 {
        stroke-width: 0px;
      }

      .cls-2 {
        fill: #ffbe9d;
      }

      .cls-3 {
        fill: #a2be55;
      }

      .cls-4 {
        fill: #e0e0e0;
      }

      .cls-5 {
        fill: #000;
      }

      .cls-6 {
        fill: #eb996e;
      }

      .cls-7 {
        fill: #455a64;
      }

      .cls-8 {
        fill: #92b253;
      }

      .cls-9 {
        fill: #263238;
      }

      .cls-14 {
        opacity: .2;
      }

      .cls-15 {
        opacity: .3;
      }

      .cls-16 {
        opacity: .4;
      }

      .cls-17 {
        opacity: .6;
      }

      .cls-18 {
        opacity: .78;
      }

      .cls-10 {
        fill: #ebebeb;
      }

      .cls-11 {
        fill: #fafafa;
      }

      .cls-12 {
        fill: #fff;
      }

      .cls-13 {
        fill: #f5f5f5;
      }
    </style>
  </defs>
  <g id="Background_Complete" data-name="Background Complete">
    <g>
      <rect class="cls-4" x="374.05" y="123.79" width="42.04" height="43.83"/>
      <g>
        <rect class="cls-11" x="371.2" y="123.79" width="42.04" height="43.83"/>
        <path class="cls-4" d="M413.26,167.63h-42.07v-43.85h42.07v43.85ZM371.22,167.6h42.02v-43.8h-42.02v43.8Z"/>
      </g>
      <rect class="cls-11" x="376.86" y="129.68" width="30.74" height="32.04"/>
      <path class="cls-4" d="M376.86,161.94s-.27.36-.76.88c-.49.52-1.18,1.22-1.95,1.98-.77.76-1.48,1.44-2.01,1.92-.52.48-.86.77-.89.74-.03-.03.26-.36.75-.88.49-.52,1.18-1.22,1.96-1.98.78-.76,1.49-1.44,2.01-1.93.52-.48.86-.77.88-.74Z"/>
      <path class="cls-4" d="M407.59,161.86s.36.27.88.76c.52.49,1.22,1.18,1.98,1.95.76.77,1.44,1.48,1.92,2.01.48.52.77.86.74.89-.03.03-.36-.26-.88-.75-.52-.49-1.22-1.18-1.98-1.96-.76-.78-1.44-1.49-1.93-2.01-.48-.52-.76-.86-.74-.88Z"/>
      <path class="cls-4" d="M407.51,129.77s.27-.36.76-.88c.49-.52,1.18-1.22,1.95-1.98.77-.76,1.48-1.44,2.01-1.92.52-.48.86-.77.89-.74.03.03-.26.36-.75.88-.49.52-1.18,1.22-1.96,1.98-.78.76-1.49,1.44-2.01,1.93-.52.48-.86.77-.88.74Z"/>
      <path class="cls-4" d="M376.77,129.85s-.36-.27-.88-.76c-.52-.49-1.22-1.18-1.98-1.95-.76-.77-1.44-1.48-1.92-2.01-.48-.52-.77-.86-.74-.89.03-.03.36.26.88.75s1.22,1.18,1.98,1.96c.76.78,1.44,1.49,1.93,2.01.48.52.76.86.74.88Z"/>
      <path class="cls-4" d="M407.51,161.72s0-.05,0-.16c0-.11,0-.26,0-.45,0-.4,0-.98-.01-1.73,0-1.52-.02-3.73-.03-6.53-.01-5.61-.04-13.61-.06-23.18l.12.12c-8.95,0-19.46.01-30.65.02h0l.14-.14c0,11.76-.01,22.76-.02,32.04l-.12-.12c9.19.02,16.83.05,22.2.06,2.68.01,4.79.02,6.23.03.72,0,1.27.01,1.65.01.18,0,.32,0,.43,0,.1,0,.15,0,.15,0,0,0-.04,0-.14,0-.1,0-.24,0-.41,0-.38,0-.92,0-1.63.01-1.44,0-3.54.02-6.21.03-5.38.01-13.05.03-22.27.06h-.12s0-.12,0-.12c0-9.28-.01-20.28-.02-32.04v-.14s.14,0,.14,0h0c11.19,0,21.7.01,30.65.02h.12v.12c-.03,9.6-.05,17.63-.06,23.26-.01,2.79-.02,4.99-.03,6.5,0,.74-.01,1.31-.01,1.71,0,.19,0,.33,0,.43,0,.1,0,.14,0,.14Z"/>
      <rect class="cls-10" x="387.1" y="140.57" width="10.26" height="10.26"/>
    </g>
    <g>
      <rect class="cls-4" x="387.29" y="41.9" width="61.8" height="64.42"/>
      <g>
        <rect class="cls-11" x="383.11" y="41.9" width="61.8" height="64.42"/>
        <path class="cls-4" d="M444.93,106.34h-61.84V41.88h61.84v64.46ZM383.13,106.3h61.76V41.92h-61.76v64.38Z"/>
      </g>
      <rect class="cls-11" x="391.42" y="50.56" width="45.19" height="47.1"/>
      <path class="cls-4" d="M391.42,97.97s-.39.53-1.11,1.3c-.72.76-1.74,1.79-2.87,2.91-1.14,1.12-2.18,2.12-2.95,2.83-.77.71-1.27,1.13-1.31,1.09-.04-.04.39-.53,1.11-1.29.72-.76,1.74-1.79,2.88-2.92,1.14-1.12,2.19-2.12,2.96-2.83.77-.71,1.26-1.12,1.3-1.08Z"/>
      <path class="cls-4" d="M436.6,97.86s.53.39,1.3,1.11c.76.72,1.79,1.74,2.91,2.87,1.12,1.14,2.12,2.18,2.83,2.95.71.77,1.13,1.27,1.09,1.31-.04.04-.53-.39-1.29-1.11-.76-.72-1.79-1.74-2.92-2.88-1.12-1.14-2.12-2.19-2.83-2.96-.71-.77-1.12-1.26-1.08-1.3Z"/>
      <path class="cls-4" d="M436.48,50.68s.39-.53,1.12-1.3c.72-.76,1.74-1.79,2.87-2.91,1.14-1.12,2.18-2.12,2.95-2.83.77-.71,1.27-1.13,1.31-1.09.04.04-.39.53-1.11,1.29-.72.76-1.74,1.79-2.88,2.92-1.14,1.12-2.19,2.12-2.96,2.83-.77.71-1.26,1.12-1.3,1.08Z"/>
      <path class="cls-4" d="M391.29,50.8s-.53-.39-1.3-1.11c-.76-.72-1.79-1.74-2.91-2.87-1.12-1.14-2.12-2.18-2.83-2.95-.71-.77-1.13-1.27-1.09-1.31.04-.04.53.39,1.29,1.11s1.79,1.74,2.92,2.88c1.12,1.14,2.12,2.19,2.83,2.96.71.77,1.12,1.26,1.08,1.3Z"/>
      <path class="cls-4" d="M436.48,97.66s0-.08,0-.23c0-.16,0-.38,0-.66,0-.59-.01-1.44-.02-2.54-.01-2.23-.03-5.48-.05-9.6-.02-8.25-.05-20-.09-34.07l.17.17c-13.15,0-28.6.02-45.06.03h0l.2-.2c-.01,17.29-.02,33.46-.03,47.1l-.17-.17c13.5.04,24.75.07,32.63.09,3.94.02,7.04.03,9.16.04,1.05,0,1.86.02,2.42.02.27,0,.47,0,.63,0,.14,0,.21,0,.22,0,0,0-.06,0-.2,0-.15,0-.35,0-.61,0-.56,0-1.35.01-2.39.02-2.12.01-5.2.03-9.13.04-7.91.02-19.19.05-32.74.09h-.17s0-.17,0-.17c0-13.64-.02-29.81-.03-47.1v-.2s.2,0,.2,0h0c16.46,0,31.9.02,45.06.03h.17v.17c-.04,14.12-.07,25.91-.09,34.19-.02,4.11-.04,7.34-.05,9.56,0,1.09-.02,1.93-.02,2.51,0,.27,0,.48,0,.64,0,.14,0,.21,0,.21Z"/>
      <rect class="cls-10" x="406.47" y="66.57" width="15.08" height="15.08"/>
    </g>
    <g>
      <g>
        <path class="cls-10" d="M56.71,325.92c5.15-2.66,11.21-3,16.93-2.06,3.07.51,6.27,1.43,8.36,3.73,2.09,2.31,2.49,6.37.09,8.35-1.43,1.18-3.42,1.36-5.27,1.34-4.48-.05-9.44-.84-13.02,1.85-2.04,1.54-3.4,4.09-5.84,4.85-2.39.74-5.08-.67-6.34-2.82-1.27-2.15-1.31-4.85-.72-7.27,0,0,.62-5.29,5.81-7.97Z"/>
        <path class="cls-10" d="M44.91,303.14c3.15,4.5,9.27,3.01,12.11.26,2.84-2.75,4.04-6.72,5.13-10.52,2.49-8.67,5.01-17.76,3.15-26.59-.55-2.64-1.54-5.27-3.4-7.23-1.85-1.96-4.71-3.12-7.31-2.43-3.09.82-5,3.84-6.39,6.71-4.07,8.45-6.23,17.82-6.26,27.2-.02,4.38.5,8.98,2.97,12.59"/>
        <path class="cls-10" d="M36.27,309.6c3.42-4.06,4.07-9.98,2.55-15.06-1.52-5.08-4.96-9.41-8.92-12.94-4.64-4.14-10.1-7.36-15.97-9.42-2.31-.81-4.75-1.45-7.18-1.22s-4.89,1.48-6.03,3.65c-1.68,3.21-.07,7.09,1.67,10.27,3.07,5.59,6.58,10.94,10.49,15.97,3.14,4.05,6.75,8.05,11.54,9.88,4.79,1.83,9.77,1.62,12.31-1.71"/>
        <path class="cls-4" d="M44.7,370.99c.06,0,.15-.73.28-2.04.14-1.49.33-3.36.54-5.58.26-2.35.6-5.14,1.25-8.18.65-3.03,1.67-6.32,2.97-9.65,1.35-3.31,3-6.33,4.93-8.74,1.91-2.42,4.14-4.17,6.23-5.18,2.09-1.03,3.96-1.45,5.25-1.63,1.3-.13,2.03-.24,2.03-.29,0-.06-.73-.07-2.07-.03-1.33.09-3.28.42-5.47,1.42-2.21.98-4.57,2.76-6.58,5.23-2.02,2.46-3.73,5.54-5.11,8.91-1.33,3.39-2.33,6.71-2.95,9.81-.62,3.09-.9,5.92-1.09,8.28-.18,2.37-.24,4.29-.28,5.61-.03,1.33-.01,2.06.04,2.06Z"/>
        <path class="cls-4" d="M45.08,366.7s.05-.33.05-.95c0-.71,0-1.61,0-2.71,0-2.35,0-5.76.12-9.96.21-8.41.93-17.46,2.33-30.22,1.32-12,3.1-25.96,4.98-35.04.4-2.06.81-3.92,1.19-5.55.36-1.63.67-3.04.97-4.17.26-1.07.47-1.94.63-2.64.14-.61.19-.93.17-.94-.03,0-.14.3-.33.89-.21.68-.47,1.54-.79,2.6-.35,1.13-.71,2.52-1.12,4.15-.43,1.62-.87,3.47-1.31,5.54-1.86,8.23-3.82,19.73-5.23,32.52-1.4,12.79-2.03,24.43-2.09,32.86-.05,4.22.04,7.63.15,9.98.07,1.1.12,2,.17,2.71.05.62.09.94.12.94Z"/>
        <path class="cls-4" d="M45.14,344.24c.06,0,.05-1.01-.02-2.83-.1-1.82-.35-4.45-.87-7.67-.54-3.22-1.3-7.03-2.5-11.18-.52-1.9-1.73-6.44-4.68-13.23-3.88-9.2-9.15-16.72-13.73-21.38-1.08-1.24-2.27-2.13-3.23-3-.5-.42-.93-.84-1.38-1.17-.45-.31-.87-.6-1.25-.86-1.51-1.03-2.35-1.58-2.38-1.53-.14.18,3.38,2.25,7.82,6.97,4.42,4.71,9.54,12.18,13.39,21.3,2.15,4.95,3.64,9.36,4.7,13.11,1.23,4.11,2.04,7.89,2.66,11.07.58,3.19.92,5.8,1.13,7.6.17,1.81.29,2.81.35,2.81Z"/>
      </g>
      <polygon class="cls-4" points="23.43 383.85 25.68 414.68 65.29 414.68 67.54 383.85 23.43 383.85"/>
      <rect class="cls-4" x="19.61" y="371.7" width="52.66" height="12.15"/>
      <polygon class="cls-10" points="19.61 413.5 19.61 416.87 22.08 416.87 71.4 416.87 71.4 413.5 19.61 413.5"/>
      <polygon class="cls-4" points="24.51 422.8 22.08 416.87 69.51 416.87 66.68 422.8 24.51 422.8"/>
      <path class="cls-13" d="M66.8,393.93s-.05.1-.18.28c-.16.21-.35.47-.59.78-.56.72-1.34,1.71-2.31,2.95l-.1.13-.1-.14c-1.45-2.01-3.39-4.68-5.67-7.84h.33c-1.69,2.39-3.56,5.05-5.58,7.9l-.17.25-.2-.23c-2.06-2.45-4.3-5.11-6.62-7.87h.38c-.11.14-.24.3-.36.45-2.05,2.57-4.04,5.06-5.92,7.42l-.2.25-.18-.26c-2.01-2.84-3.89-5.5-5.58-7.9l.32.02c-2.75,3.14-5.09,5.79-6.88,7.83l-.12.14-.09-.16c-.91-1.52-1.63-2.74-2.15-3.62-.23-.39-.41-.71-.55-.96-.12-.22-.18-.34-.17-.34.01,0,.09.1.23.31.16.24.36.55.61.93.55.86,1.31,2.06,2.26,3.55l-.22-.02c1.76-2.07,4.06-4.76,6.77-7.93l.17-.2.15.22c1.71,2.39,3.61,5.03,5.63,7.86h-.38c1.87-2.37,3.86-4.86,5.9-7.44.12-.16.25-.31.36-.46l.19-.24.19.23c2.32,2.77,4.55,5.43,6.6,7.89h-.37c2.04-2.83,3.93-5.47,5.64-7.85l.17-.23.16.23c2.23,3.19,4.13,5.9,5.55,7.92h-.2c1.01-1.22,1.81-2.18,2.4-2.88.26-.3.47-.55.64-.74.15-.17.23-.25.24-.24Z"/>
      <path class="cls-13" d="M68.09,383.65c0,.14-9.92.25-22.16.25s-22.16-.11-22.16-.25,9.92-.25,22.16-.25,22.16.11,22.16.25Z"/>
      <path class="cls-13" d="M70.09,417.2c0,.14-10.79.25-24.09.25s-24.09-.11-24.09-.25,10.78-.25,24.09-.25,24.09.11,24.09.25Z"/>
    </g>
  </g>
  <g id="Floor">
    <path class="cls-9" d="M442.73,422.8c0,.14-98.68.26-220.39.26s-220.41-.12-220.41-.26,98.66-.26,220.41-.26,220.39.12,220.39.26Z"/>
  </g>
  <g id="Device">
    <g>
      <g>
        <g>
          <path class="cls-9" d="M316.89,423.19l-132.82-.61c-15.97-.07-28.87-13.08-28.8-29.05l1.41-332.98c.07-15.98,13.08-28.88,29.07-28.81l132.82.61c15.97.07,28.87,13.08,28.8,29.05l-1.41,332.98c-.07,15.98-13.08,28.88-29.07,28.81Z"/>
          <path class="cls-11" d="M318.37,43.84l-25.75-.12c-3.45-.02-6.27,2.9-6.28,6.51l-.02,4.67c-.01,3.61-2.83,6.52-6.28,6.51l-50.2-.23c-3.45-.02-6.24-2.96-6.23-6.57l.02-4.67c.01-3.61-2.77-6.55-6.23-6.57l-9.06-.04-22.54-.1c-11.19-.05-20.31,8.98-20.36,20.18l-1.37,325.01c-.05,11.19,8.98,20.3,20.17,20.35l132.55.61c11.19.05,20.31-8.98,20.36-20.18l1.37-325.01c.05-11.19-8.98-20.3-20.17-20.35Z"/>
        </g>
        <g>
          <path class="cls-9" d="M324.39,79.62c0,.53-.43.95-.95.95-.53,0-.95-.43-.95-.95,0-.53.43-.95.95-.95.53,0,.95.43.95.95Z"/>
          <path class="cls-9" d="M324.38,83.04c0,.53-.43.95-.95.95-.53,0-.95-.43-.95-.95,0-.52.43-.95.95-.95.53,0,.95.43.95.95Z"/>
          <path class="cls-9" d="M324.37,86.46c0,.53-.43.95-.95.95-.53,0-.95-.43-.95-.95,0-.53.43-.95.95-.95s.95.43.95.95Z"/>
        </g>
      </g>
      <rect class="cls-13" x="189.03" y="130.89" width="141.29" height="89.64" rx="4.3" ry="4.3"/>
      <rect class="cls-4" x="185.15" y="125.07" width="141.29" height="89.64" rx="4.3" ry="4.3"/>
      <g>
        <path class="cls-9" d="M292.17,106.87h-1.35l-.26.62h-.69l1.29-2.91h.66l1.3,2.91h-.71l-.26-.62ZM291.96,106.36l-.46-1.11-.46,1.11h.92Z"/>
        <path class="cls-9" d="M293.45,104.58h1.32c.95,0,1.6.57,1.6,1.45s-.65,1.45-1.6,1.45h-1.32v-2.91ZM294.73,106.94c.58,0,.96-.34.96-.9s-.38-.9-.96-.9h-.61v1.8h.61Z"/>
        <path class="cls-9" d="M296.88,104.58h1.32c.95,0,1.6.57,1.6,1.45s-.65,1.45-1.6,1.45h-1.32v-2.91ZM298.16,106.94c.58,0,.96-.34.96-.9s-.38-.9-.96-.9h-.61v1.8h.61Z"/>
        <path class="cls-9" d="M304.13,107.49v-1.74s-.86,1.44-.86,1.44h-.3l-.85-1.4v1.71h-.63v-2.91h.56l1.09,1.81,1.07-1.81h.55v2.91s-.62,0-.62,0Z"/>
        <path class="cls-9" d="M305.28,106.04c0-.86.67-1.5,1.59-1.5s1.59.63,1.59,1.5-.68,1.5-1.59,1.5-1.59-.64-1.59-1.5ZM307.77,106.04c0-.55-.39-.93-.91-.93s-.91.38-.91.93.39.93.91.93.91-.38.91-.93Z"/>
        <path class="cls-9" d="M310.82,107.49l-.56-.81h-.62v.81h-.67v-2.91h1.26c.78,0,1.26.4,1.26,1.05,0,.44-.22.76-.6.92l.65.93h-.72ZM310.19,105.13h-.55v1.01h.55c.41,0,.62-.19.62-.51s-.21-.51-.62-.51Z"/>
        <path class="cls-9" d="M314.27,106.95v.54h-2.25v-2.91h2.2v.54h-1.53v.63h1.35v.52h-1.35v.67h1.58Z"/>
        <path class="cls-9" d="M316.62,106.29h-.72v.71h-.54v-.71h-.72v-.51h.72v-.71h.54v.71h.72v.51Z"/>
      </g>
      <g>
        <path class="cls-9" d="M180.49,83.71c0-2,1.54-3.43,3.6-3.43,1.15,0,2.1.42,2.73,1.17l-.99.91c-.45-.51-1-.78-1.67-.78-1.24,0-2.12.87-2.12,2.12s.88,2.12,2.12,2.12c.66,0,1.22-.27,1.67-.79l.99.91c-.62.77-1.58,1.18-2.74,1.18-2.06,0-3.59-1.43-3.59-3.43Z"/>
        <path class="cls-9" d="M192.22,84.12v2.91h-1.38v-.63c-.28.46-.81.71-1.55.71-1.19,0-1.9-.66-1.9-1.54s.63-1.53,2.19-1.53h1.18c0-.64-.38-1-1.18-1-.54,0-1.1.18-1.47.47l-.53-1.03c.56-.4,1.38-.62,2.2-.62,1.55,0,2.45.72,2.45,2.26ZM190.74,85.42v-.52h-1.01c-.69,0-.91.26-.91.6,0,.37.31.62.83.62.49,0,.92-.23,1.09-.69Z"/>
        <path class="cls-9" d="M196.71,81.85v1.36c-.12,0-.22-.02-.33-.02-.82,0-1.36.45-1.36,1.42v2.41h-1.48v-5.1h1.41v.67c.36-.49.97-.75,1.75-.75Z"/>
        <path class="cls-9" d="M202.74,80v7.03h-1.41v-.59c-.37.45-.91.66-1.59.66-1.44,0-2.55-1.02-2.55-2.62s1.11-2.62,2.55-2.62c.62,0,1.16.2,1.53.62v-2.47h1.48ZM201.29,84.48c0-.88-.57-1.41-1.3-1.41s-1.31.53-1.31,1.41.57,1.41,1.31,1.41,1.3-.53,1.3-1.41Z"/>
        <path class="cls-9" d="M203.6,86.55l.49-1.06c.45.29,1.15.49,1.77.49.68,0,.94-.18.94-.46,0-.83-3.08.02-3.08-2.02,0-.97.87-1.65,2.36-1.65.7,0,1.48.16,1.96.45l-.49,1.05c-.5-.28-1-.38-1.47-.38-.66,0-.95.21-.95.47,0,.87,3.08.03,3.08,2.04,0,.95-.88,1.62-2.41,1.62-.86,0-1.73-.24-2.21-.55Z"/>
      </g>
      <g>
        <path class="cls-9" d="M239.26,298.27h-1.72v-1.25h5.01v1.25h-1.71v4.34h-1.58v-4.34Z"/>
        <path class="cls-9" d="M242.77,299.81c0-1.68,1.32-2.91,3.11-2.91s3.11,1.23,3.11,2.91-1.32,2.91-3.11,2.91-3.11-1.23-3.11-2.91ZM247.39,299.81c0-.97-.66-1.6-1.51-1.6s-1.51.63-1.51,1.6.66,1.6,1.51,1.6,1.51-.63,1.51-1.6Z"/>
        <path class="cls-9" d="M250.93,298.27h-1.72v-1.25h5.01v1.25h-1.71v4.34h-1.58v-4.34Z"/>
        <path class="cls-9" d="M258.28,301.52h-2.37l-.44,1.09h-1.62l2.47-5.6h1.56l2.48,5.6h-1.65l-.44-1.09ZM257.82,300.36l-.72-1.79-.72,1.79h1.44Z"/>
        <path class="cls-9" d="M260.81,297.01h1.58v4.34h2.67v1.25h-4.25v-5.6Z"/>
      </g>
      <g>
        <path class="cls-9" d="M226.43,324.13v1.73h-.75v-1.72c-1.48-.08-2.86-.62-3.6-1.37l.44-.86c.69.68,1.9,1.19,3.17,1.27v-3.96c-1.66-.41-3.35-.92-3.35-2.91,0-1.45,1.04-2.7,3.35-2.88v-1.73h.75v1.72c1.13.04,2.26.38,3.06.93l-.38.89c-.84-.54-1.81-.83-2.68-.87v4c1.7.41,3.5.89,3.5,2.91,0,1.46-1.1,2.73-3.5,2.86ZM225.68,318.16v-3.77c-1.55.14-2.25.93-2.25,1.88,0,1.15,1.01,1.57,2.25,1.88ZM228.83,321.32c0-1.19-1.1-1.6-2.4-1.91v3.77c1.66-.12,2.4-.89,2.4-1.85Z"/>
        <path class="cls-9" d="M238.29,313.5v10.55h-1.09v-9.59h-2.49v-.96h3.57Z"/>
        <path class="cls-9" d="M248.91,321.11c0,1.87-1.58,3.03-4.1,3.03s-4.07-1.16-4.07-3.03c0-1.27.72-2.16,2.04-2.59-1.07-.42-1.66-1.22-1.66-2.32,0-1.72,1.46-2.79,3.69-2.79s3.72,1.07,3.72,2.79c0,1.1-.6,1.9-1.69,2.32,1.33.44,2.07,1.34,2.07,2.59ZM247.8,321.1c0-1.3-1.12-2.11-2.99-2.11s-2.97.81-2.97,2.11,1.1,2.13,2.97,2.13,2.99-.81,2.99-2.13ZM244.81,318.13c1.64,0,2.62-.74,2.62-1.88s-1.04-1.91-2.62-1.91-2.61.72-2.61,1.9.96,1.9,2.61,1.9Z"/>
        <path class="cls-9" d="M250.42,318.78c0-3.36,1.76-5.37,4.21-5.37s4.22,2,4.22,5.37-1.78,5.37-4.22,5.37-4.21-2.01-4.21-5.37ZM257.73,318.78c0-2.82-1.27-4.37-3.11-4.37s-3.11,1.55-3.11,4.37,1.27,4.37,3.11,4.37,3.11-1.55,3.11-4.37Z"/>
        <path class="cls-9" d="M261.85,323.3c0,.26-.06.45-.21.88l-.63,2.08h-.72l.51-2.19c-.32-.09-.54-.38-.54-.77,0-.47.35-.81.8-.81s.8.36.8.81Z"/>
        <path class="cls-9" d="M270.78,323.09v.96h-7.4v-.77l4.39-4.3c1.19-1.18,1.42-1.88,1.42-2.61,0-1.22-.86-1.97-2.47-1.97-1.24,0-2.19.38-2.88,1.18l-.77-.66c.81-.96,2.13-1.51,3.74-1.51,2.14,0,3.5,1.09,3.5,2.85,0,1.01-.32,1.91-1.73,3.3l-3.59,3.53h5.8Z"/>
        <path class="cls-9" d="M272.07,318.78c0-3.36,1.76-5.37,4.21-5.37s4.22,2,4.22,5.37-1.78,5.37-4.22,5.37-4.21-2.01-4.21-5.37ZM279.38,318.78c0-2.82-1.27-4.37-3.11-4.37s-3.11,1.55-3.11,4.37,1.27,4.37,3.11,4.37,3.11-1.55,3.11-4.37Z"/>
      </g>
      <g>
        <g>
          <rect class="cls-8" x="189.01" y="340.24" width="135.1" height="35.46" rx="16.28" ry="16.28"/>
          <g class="cls-15">
            <rect class="cls-5" x="189.01" y="340.24" width="135.1" height="35.46" rx="16.28" ry="16.28"/>
          </g>
        </g>
        <rect class="cls-8" x="183.76" y="340.24" width="135.1" height="35.46" rx="16.28" ry="16.28"/>
        <g>
          <path class="cls-12" d="M247.25,356.02c0,1.82-1.32,2.92-3.5,2.92h-2.07v2.54h-1.2v-8.38h3.27c2.18,0,3.5,1.1,3.5,2.92ZM246.06,356.02c0-1.2-.8-1.88-2.33-1.88h-2.04v3.76h2.04c1.53,0,2.33-.68,2.33-1.88Z"/>
          <path class="cls-12" d="M253.94,359.39h-4.46l-.92,2.1h-1.23l3.8-8.38h1.19l3.81,8.38h-1.26l-.92-2.1ZM253.52,358.43l-1.81-4.11-1.81,4.11h3.62Z"/>
          <path class="cls-12" d="M260.07,358.58v2.9h-1.19v-2.92l-3.33-5.46h1.28l2.68,4.42,2.7-4.42h1.19l-3.33,5.49Z"/>
        </g>
      </g>
      <g>
        <path class="cls-3" d="M270.25,282.64s.67.02,1.87-.33c1.16-.35,2.94-1.27,4.04-3.39.27-.52.47-1.11.61-1.75.12-.64.13-1.32.12-2.05-.01-1.45-.02-3.02-.04-4.71-.02-3.39-.05-7.24-.08-11.49-.02-4.26-.05-8.92-.08-13.93,0-1.25-.01-2.52-.02-3.82.04-1.28-.23-2.55-.88-3.67-.65-1.11-1.63-2.06-2.83-2.63-1.2-.62-2.54-.7-3.96-.65-11.26.04-23.64.09-36.63.15-1.57,0-3.1.59-4.27,1.61-1.17,1.01-1.95,2.44-2.17,3.94-.12.74-.07,1.53-.08,2.32,0,.79,0,1.57,0,2.35,0,1.56,0,3.1.01,4.64.02,6.13.03,12.04.05,17.67,0,2.81.01,5.56.02,8.23-.04,1.34.08,2.6.67,3.74.54,1.13,1.41,2.07,2.44,2.7,2.08,1.4,4.64.9,6.94.99,2.32,0,4.55,0,6.68,0,8.5,0,15.38.01,20.17.01,2.36.01,4.21.02,5.48.03.61,0,1.08.02,1.43.02.32,0,.49.02.49.02,0,0-.16.02-.49.03-.34,0-.82.02-1.43.03-1.28.02-3.12.04-5.48.07-4.79.04-11.67.09-20.17.15-2.13.01-4.36.03-6.68.04-1.16,0-2.35.01-3.56.02-1.24-.02-2.51-.35-3.61-1.04-1.1-.67-2.04-1.67-2.62-2.87-.63-1.18-.77-2.62-.73-3.93-.01-2.67-.03-5.41-.04-8.23-.02-5.63-.05-11.54-.08-17.67,0-1.53-.01-3.08-.02-4.64,0-.78,0-1.56,0-2.35,0-.78-.04-1.58.08-2.4.23-1.62,1.07-3.17,2.34-4.26,1.25-1.1,2.92-1.73,4.61-1.74,12.99-.04,25.37-.07,36.63-.1,1.37-.05,2.91.04,4.17.71,1.28.61,2.33,1.63,3.02,2.82.7,1.19.98,2.59.93,3.89,0,1.29,0,2.57,0,3.82,0,5,.01,9.67.02,13.93,0,4.25,0,8.11,0,11.49,0,1.69,0,3.26,0,4.71,0,.72-.02,1.43-.15,2.09-.15.65-.36,1.26-.65,1.8-1.17,2.16-3.01,3.07-4.19,3.4-.61.17-1.09.22-1.41.23-.32,0-.49,0-.49,0Z"/>
        <g>
          <g>
            <path class="cls-3" d="M259.93,265.67s-.12.02-.34.02c-.25,0-.58.02-.99.03-.89.01-2.13.03-3.68.06-3.14.03-7.47.07-12.34.11h-.1s-.01-.1-.01-.1c-.1-.65-.2-1.34-.3-2.04-.85-5.98-1.62-11.32-2.11-14.81l.07.06c-1.39,0-2.5-.01-3.29-.01-.37,0-.66-.01-.87-.01-.2,0-.3-.01-.3-.02,0,0,.1-.01.3-.02.22,0,.51-.01.87-.02.79-.01,1.9-.03,3.29-.05h.06s0,.06,0,.06c.52,3.49,1.31,8.82,2.2,14.8.1.7.2,1.39.3,2.04l-.12-.1c4.87-.01,9.21-.03,12.34-.03,1.54,0,2.79.01,3.68.01.42,0,.75.01.99.01.23,0,.35.01.35.02Z"/>
            <path class="cls-3" d="M242.05,262.18s.03,0,.09-.01c.07,0,.15,0,.26-.01.24,0,.57-.01.99-.02.88-.01,2.14-.03,3.71-.05,3.19-.03,7.65-.07,12.81-.12l-.11.09c.37-2.16.76-4.49,1.17-6.91.21-1.24.42-2.46.62-3.63l.11.13c-5.99.02-11.29.04-15.1.05-1.89,0-3.4,0-4.47,0-.51,0-.91,0-1.2-.01-.13,0-.23,0-.31,0-.07,0-.11,0-.11-.01s.04,0,.11-.01c.08,0,.18,0,.31-.01.29,0,.69-.02,1.2-.03,1.07-.01,2.58-.04,4.47-.06,3.81-.03,9.1-.08,15.1-.13h.14s-.02.13-.02.13c-.2,1.16-.41,2.38-.62,3.63-.41,2.42-.81,4.75-1.18,6.91l-.02.09h-.09c-5.16.01-9.62.03-12.81.03-1.57,0-2.83,0-3.72-.01-.42,0-.75,0-.99-.01-.1,0-.19,0-.26,0-.06,0-.09,0-.09,0Z"/>
            <path class="cls-3" d="M246.94,270.46s-.02-.15-.1-.41c-.08-.25-.26-.62-.64-.9-.37-.28-.98-.43-1.56-.21-.57.2-1.07.82-1.06,1.54,0,.71.5,1.33,1.07,1.52.58.22,1.18.06,1.55-.22.38-.28.56-.65.63-.91.07-.26.07-.41.1-.41.01,0,.04.16,0,.43-.05.27-.21.69-.62,1.01-.39.33-1.06.53-1.73.3-.66-.21-1.24-.91-1.23-1.72-.01-.82.56-1.52,1.21-1.74.66-.24,1.33-.05,1.73.28.41.32.58.73.63,1.01.05.28.02.44.01.43Z"/>
            <path class="cls-3" d="M258.11,270.4s-.02-.15-.1-.41c-.08-.25-.26-.62-.64-.9-.37-.28-.98-.43-1.56-.21-.57.2-1.07.82-1.06,1.54,0,.71.5,1.33,1.07,1.52.58.22,1.18.06,1.55-.22.38-.28.56-.65.63-.91.07-.26.07-.41.1-.41.01,0,.04.16,0,.43-.05.27-.21.69-.62,1.01-.39.33-1.06.53-1.73.3-.66-.21-1.24-.91-1.23-1.72-.01-.82.56-1.52,1.21-1.74.66-.24,1.33-.05,1.73.28.41.32.58.73.63,1.01.05.28.02.44.01.43Z"/>
            <path class="cls-8" d="M265.7,249.76c.02,2.74-2.19,4.97-4.92,4.98-2.74.02-4.97-2.19-4.98-4.92-.02-2.74,2.19-4.97,4.92-4.98,2.74-.02,4.97,2.19,4.98,4.92Z"/>
          </g>
          <path class="cls-12" d="M261.36,247.88l-.03,3.76h-.87s.02-3.07.02-3.07h-.75s0-.7,0-.7h1.62Z"/>
        </g>
      </g>
      <g>
        <g>
          <rect class="cls-8" x="180.67" y="120.23" width="141.29" height="89.64" rx="4.3" ry="4.3"/>
          <g>
            <path class="cls-12" d="M203.93,140.71c0,1.15-.91,1.81-2.65,1.81h-3.43v-6.63h3.24c1.66,0,2.51.69,2.51,1.72,0,.66-.34,1.17-.88,1.46.74.24,1.21.81,1.21,1.64ZM199.38,137.04v1.56h1.53c.75,0,1.16-.27,1.16-.79s-.41-.78-1.16-.78h-1.53ZM202.39,140.55c0-.56-.43-.82-1.22-.82h-1.79v1.64h1.79c.8,0,1.22-.25,1.22-.81Z"/>
            <path class="cls-12" d="M209.46,141.1h-3.08l-.59,1.42h-1.57l2.96-6.63h1.52l2.97,6.63h-1.61l-.59-1.42ZM208.98,139.93l-1.05-2.54-1.05,2.54h2.1Z"/>
            <path class="cls-12" d="M218.43,135.89v6.63h-1.26l-3.31-4.03v4.03h-1.52v-6.63h1.27l3.3,4.03v-4.03h1.52Z"/>
            <path class="cls-12" d="M222.41,139.91l-.89.93v1.68h-1.53v-6.63h1.53v3.1l2.94-3.1h1.71l-2.75,2.96,2.91,3.68h-1.79l-2.12-2.61Z"/>
          </g>
          <g>
            <path class="cls-12" d="M202.69,168.29h-1.22v1.6h-.63v-1.6h-3.44v-.45l3.23-4.04h.7l-3.11,3.93h2.64v-1.41h.61v1.41h1.22v.56Z"/>
            <path class="cls-12" d="M207.16,168.14c0,1.02-.74,1.8-2.21,1.8-.88,0-1.72-.3-2.19-.78l.3-.5c.39.41,1.1.7,1.89.7,1.01,0,1.57-.47,1.57-1.23s-.51-1.21-1.64-1.21h-.43v-.46l1.69-2.11h-3.11v-.56h3.91v.44l-1.72,2.17c1.3.07,1.96.76,1.96,1.73Z"/>
            <path class="cls-12" d="M212.09,168.1c0,1.03-.72,1.84-2.21,1.84-.88,0-1.71-.3-2.18-.78l.3-.5c.39.41,1.09.7,1.87.7,1.04,0,1.58-.5,1.58-1.24,0-.78-.49-1.27-2.04-1.27h-1.3l.31-3.05h3.33v.56h-2.78l-.21,1.94h.78c1.83,0,2.53.72,2.53,1.8Z"/>
            <path class="cls-12" d="M217.45,168.07c0,1.14-.9,1.87-2.08,1.87-1.62,0-2.5-1.12-2.5-3.04,0-2.07,1.13-3.15,2.78-3.15.55,0,1.06.1,1.44.33l-.25.5c-.31-.21-.73-.29-1.18-.29-1.31,0-2.16.84-2.16,2.5,0,.14,0,.31.03.5.3-.67,1.02-1.04,1.86-1.04,1.21,0,2.05.71,2.05,1.83ZM216.83,168.09c0-.8-.59-1.31-1.53-1.31s-1.57.57-1.57,1.33c0,.67.56,1.3,1.61,1.3.88,0,1.49-.51,1.49-1.32Z"/>
            <path class="cls-12" d="M230.61,169.89l-1.45-1.91-1.46,1.91h-.7l1.81-2.35-1.72-2.23h.7l1.37,1.79,1.37-1.79h.68l-1.72,2.23,1.83,2.35h-.71Z"/>
            <path class="cls-12" d="M235.25,169.89l-1.45-1.91-1.46,1.91h-.7l1.81-2.35-1.72-2.23h.7l1.37,1.79,1.37-1.79h.68l-1.72,2.23,1.83,2.35h-.71Z"/>
            <path class="cls-12" d="M239.9,169.89l-1.45-1.91-1.46,1.91h-.7l1.81-2.35-1.72-2.23h.7l1.37,1.79,1.37-1.79h.68l-1.72,2.23,1.83,2.35h-.71Z"/>
            <path class="cls-12" d="M244.54,169.89l-1.45-1.91-1.46,1.91h-.7l1.81-2.35-1.72-2.23h.7l1.37,1.79,1.37-1.79h.68l-1.72,2.23,1.83,2.35h-.71Z"/>
            <path class="cls-12" d="M260.58,169.89l-1.45-1.91-1.46,1.91h-.7l1.81-2.35-1.72-2.23h.7l1.37,1.79,1.37-1.79h.68l-1.72,2.23,1.83,2.35h-.71Z"/>
            <path class="cls-12" d="M265.22,169.89l-1.45-1.91-1.46,1.91h-.7l1.81-2.35-1.72-2.23h.7l1.37,1.79,1.37-1.79h.68l-1.72,2.23,1.83,2.35h-.71Z"/>
            <path class="cls-12" d="M269.87,169.89l-1.45-1.91-1.46,1.91h-.7l1.81-2.35-1.72-2.23h.7l1.37,1.79,1.37-1.79h.68l-1.72,2.23,1.83,2.35h-.71Z"/>
            <path class="cls-12" d="M274.51,169.89l-1.45-1.91-1.46,1.91h-.7l1.81-2.35-1.72-2.23h.7l1.37,1.79,1.37-1.79h.68l-1.72,2.23,1.83,2.35h-.71Z"/>
            <path class="cls-12" d="M288.91,163.8v6.09h-.63v-5.53h-1.44v-.56h2.06Z"/>
            <path class="cls-12" d="M294.39,168.14c0,1.02-.74,1.8-2.21,1.8-.88,0-1.72-.3-2.19-.78l.3-.5c.39.41,1.1.7,1.89.7,1.01,0,1.57-.47,1.57-1.23s-.51-1.21-1.64-1.21h-.43v-.46l1.69-2.11h-3.11v-.56h3.91v.44l-1.72,2.17c1.3.07,1.96.76,1.96,1.73Z"/>
            <path class="cls-12" d="M300.44,168.29h-1.22v1.6h-.63v-1.6h-3.44v-.45l3.23-4.04h.7l-3.11,3.93h2.64v-1.41h.61v1.41h1.22v.56Z"/>
            <path class="cls-12" d="M305.14,169.33v.56h-4.27v-.44l2.53-2.48c.69-.68.82-1.09.82-1.5,0-.7-.5-1.14-1.43-1.14-.71,0-1.26.22-1.66.68l-.44-.38c.47-.56,1.23-.87,2.16-.87,1.24,0,2.02.63,2.02,1.64,0,.58-.18,1.1-1,1.9l-2.07,2.04h3.35Z"/>
          </g>
          <g>
            <path class="cls-12" d="M194.28,182.53c0-.88.67-1.5,1.58-1.5.5,0,.92.18,1.2.51l-.43.4c-.2-.22-.44-.34-.73-.34-.54,0-.93.38-.93.93s.39.93.93.93c.29,0,.54-.12.73-.34l.43.4c-.27.34-.69.52-1.2.52-.9,0-1.57-.63-1.57-1.5Z"/>
            <path class="cls-12" d="M199.37,183.36h-1.35l-.26.62h-.69l1.29-2.91h.66l1.3,2.91h-.71l-.26-.62ZM199.16,182.84l-.46-1.11-.46,1.11h.92Z"/>
            <path class="cls-12" d="M202.49,183.98l-.56-.81h-.62v.81h-.67v-2.91h1.26c.78,0,1.26.4,1.26,1.05,0,.44-.22.76-.6.92l.65.93h-.72ZM201.86,181.62h-.55v1.01h.55c.41,0,.62-.19.62-.51s-.21-.51-.62-.51Z"/>
            <path class="cls-12" d="M203.47,183.69l.23-.51c.24.18.61.3.96.3.4,0,.56-.13.56-.31,0-.54-1.69-.17-1.69-1.25,0-.49.4-.9,1.22-.9.37,0,.74.09,1.01.26l-.21.51c-.27-.15-.55-.23-.81-.23-.4,0-.55.15-.55.33,0,.54,1.69.17,1.69,1.23,0,.49-.4.9-1.23.9-.46,0-.92-.14-1.18-.34Z"/>
            <path class="cls-12" d="M210.19,181.07v2.91h-.67v-1.19h-1.32v1.19h-.67v-2.91h.67v1.15h1.32v-1.15h.67Z"/>
            <path class="cls-12" d="M210.7,182.53c0-.86.67-1.5,1.59-1.5s1.59.64,1.59,1.5-.68,1.5-1.59,1.5-1.59-.64-1.59-1.5ZM213.2,182.53c0-.55-.39-.93-.91-.93s-.91.38-.91.93.39.93.91.93.91-.38.91-.93Z"/>
            <path class="cls-12" d="M214.39,181.07h.67v2.36h1.46v.55h-2.13v-2.91Z"/>
            <path class="cls-12" d="M216.9,181.07h1.32c.95,0,1.6.57,1.6,1.45s-.65,1.45-1.6,1.45h-1.32v-2.91ZM218.19,183.43c.58,0,.96-.34.96-.9s-.38-.9-.96-.9h-.61v1.8h.61Z"/>
            <path class="cls-12" d="M222.58,183.44v.54h-2.25v-2.91h2.2v.54h-1.53v.63h1.35v.52h-1.35v.67h1.58Z"/>
            <path class="cls-12" d="M224.97,183.98l-.56-.81h-.62v.81h-.67v-2.91h1.26c.78,0,1.26.4,1.26,1.05,0,.44-.22.76-.6.92l.65.93h-.72ZM224.34,181.62h-.55v1.01h.55c.41,0,.62-.19.62-.51s-.21-.51-.62-.51Z"/>
          </g>
          <g>
            <path class="cls-12" d="M193.99,193.88l.72-.86c.3.41.64.62,1.04.62.52,0,.79-.31.79-.93v-2.66h-1.97v-1.04h3.25v3.63c0,1.38-.7,2.06-2.01,2.06-.75,0-1.41-.29-1.82-.82Z"/>
            <path class="cls-12" d="M198.66,193.88c0-.46.34-.77.78-.77s.78.3.78.77-.34.78-.78.78-.78-.33-.78-.78Z"/>
            <path class="cls-12" d="M209.3,189l-1.83,5.6h-1.39l-1.23-3.79-1.27,3.79h-1.38l-1.84-5.6h1.34l1.26,3.93,1.32-3.93h1.2l1.28,3.97,1.3-3.97h1.24Z"/>
            <path class="cls-12" d="M209.85,189c0-.39.31-.7.78-.7s.78.29.78.67c0,.42-.31.72-.78.72s-.78-.3-.78-.7ZM210,190.3h1.25v4.3h-1.25v-4.3Z"/>
            <path class="cls-12" d="M212.41,188.67h1.25v5.93h-1.25v-5.93Z"/>
            <path class="cls-12" d="M214.81,188.67h1.25v5.93h-1.25v-5.93Z"/>
            <path class="cls-12" d="M217.06,189c0-.39.31-.7.78-.7s.78.29.78.67c0,.42-.31.72-.78.72s-.78-.3-.78-.7ZM217.22,190.3h1.25v4.3h-1.25v-4.3Z"/>
            <path class="cls-12" d="M223.43,192.14v2.45h-1.17v-.54c-.23.39-.68.6-1.31.6-1.01,0-1.61-.56-1.61-1.3s.54-1.29,1.85-1.29h.99c0-.54-.32-.85-.99-.85-.45,0-.93.15-1.24.4l-.45-.87c.47-.34,1.17-.52,1.85-.52,1.31,0,2.07.61,2.07,1.91ZM222.18,193.24v-.44h-.86c-.58,0-.77.22-.77.5,0,.31.26.52.7.52.42,0,.78-.19.92-.58Z"/>
            <path class="cls-12" d="M231.82,192.14v2.46h-1.25v-2.27c0-.7-.31-1.02-.82-1.02-.56,0-.95.36-.95,1.13v2.16h-1.25v-2.27c0-.7-.3-1.02-.82-1.02-.55,0-.94.36-.94,1.13v2.16h-1.25v-4.3h1.19v.5c.32-.37.8-.56,1.35-.56.6,0,1.11.23,1.42.7.34-.44.9-.7,1.55-.7,1.02,0,1.76.59,1.76,1.9Z"/>
            <path class="cls-12" d="M232.51,194.2l.42-.9c.38.25.97.42,1.5.42.58,0,.79-.15.79-.39,0-.7-2.6.02-2.6-1.7,0-.82.74-1.39,1.99-1.39.59,0,1.25.14,1.66.38l-.42.89c-.42-.24-.85-.32-1.24-.32-.56,0-.8.18-.8.4,0,.74,2.6.02,2.6,1.72,0,.8-.74,1.37-2.03,1.37-.73,0-1.46-.2-1.86-.46Z"/>
          </g>
          <g>
            <path class="cls-12" d="M282.69,191.97c0-1.85,1.02-2.89,2.4-2.89s2.4,1.05,2.4,2.89-1.02,2.89-2.4,2.89-2.4-1.05-2.4-2.89ZM286.18,191.97c0-1.27-.45-1.8-1.09-1.8s-1.09.53-1.09,1.8.45,1.8,1.09,1.8,1.09-.53,1.09-1.8Z"/>
            <path class="cls-12" d="M292.74,193c0,1.14-.94,1.86-2.12,1.86-1.54,0-2.5-.97-2.5-2.77,0-1.93,1.17-3.01,2.85-3.01.59,0,1.17.14,1.56.38l-.48.95c-.31-.21-.67-.28-1.05-.28-.94,0-1.54.55-1.58,1.62.33-.33.8-.5,1.38-.5,1.08,0,1.93.69,1.93,1.74ZM291.48,193.07c0-.51-.38-.84-.95-.84s-.97.35-.97.84.36.83.98.83c.55,0,.94-.32.94-.83Z"/>
            <path class="cls-12" d="M295.35,188.04h1.11l-2.64,7.53h-1.11l2.64-7.53Z"/>
            <path class="cls-12" d="M300.6,193.71v1.06h-4.23v-.84l2.16-2.04c.5-.47.58-.76.58-1.03,0-.44-.3-.7-.9-.7-.48,0-.89.18-1.16.56l-.94-.61c.43-.63,1.22-1.04,2.22-1.04,1.25,0,2.08.64,2.08,1.66,0,.54-.15,1.04-.94,1.77l-1.29,1.21h2.41Z"/>
            <path class="cls-12" d="M306.17,193.59h-.91v1.18h-1.26v-1.18h-3.01v-.87l2.64-3.55h1.36l-2.45,3.37h1.5v-1.05h1.22v1.05h.91v1.06Z"/>
          </g>
          <g class="cls-14">
            <path class="cls-12" d="M282.72,145.16c-.99-4.09-5.01-6.65-9.21-6.38-1.31.08-2.6.38-3.73.88-2.91,1.3-4.94,4.74-3.97,7.78.79,2.48,3.2,4.06,5.59,5.11,2.5,1.09,5.44,1.8,7.91.64,2.38-1.12,3.76-3.86,3.64-6.48-.02-.52-.1-1.04-.22-1.55Z"/>
          </g>
        </g>
        <g class="cls-14">
          <path class="cls-12" d="M317.28,120.23h-131.93c-2.59,0-4.68,2.1-4.68,4.68v23.67c8.34,5.81,19.78,6.83,29.94,4.71,11.97-2.5,22.82-8.62,33.97-13.64,11.16-5.02,23.41-9.05,35.47-6.98,11.38,1.95,21.08,9.04,31.36,14.28,3.32,1.69,6.9,3.19,10.56,4.25v-26.29c0-2.59-2.1-4.68-4.68-4.68Z"/>
        </g>
      </g>
    </g>
  </g>
  <g id="Character">
    <g>
      <g>
        <path class="cls-2" d="M30.01,41.05s-.01.13.02.3c.24,1.43,2.03,7.49,2.84,7.54.91.06,2.86-1,2.78-1.84-.08-.84-2.47-7.55-2.47-7.55,0,0-.45-1.04-2.33-.79-1.17.15-.83,2.34-.83,2.34Z"/>
        <path class="cls-2" d="M33.05,37.84s-.01.13.02.3c.24,1.43,2.03,7.49,2.84,7.54.91.06,2.86-1,2.78-1.84-.08-.84-2.47-7.55-2.47-7.55,0,0-.45-1.04-2.33-.79-1.17.15-.83,2.34-.83,2.34Z"/>
        <path class="cls-2" d="M36.31,35.76s-.01.13.02.3c.24,1.43,2.03,7.49,2.84,7.54.91.06,2.86-.99,2.78-1.84-.08-.84-2.47-7.55-2.47-7.55,0,0-.45-1.04-2.33-.79-1.17.15-.83,2.34-.83,2.34Z"/>
        <path class="cls-2" d="M39.58,33.74s-.01.13.02.3c.24,1.43,2.03,7.49,2.84,7.54.91.06,2.86-.99,2.78-1.84-.08-.84-2.47-7.55-2.47-7.55,0,0-.45-1.04-2.33-.79-1.17.15-.83,2.34-.83,2.34Z"/>
        <path class="cls-6" d="M35.18,45.27c-.11.02-.6-1.27-1.11-2.88-.51-1.61-.83-2.93-.72-2.96.11-.02.6,1.27,1.11,2.88.51,1.61.83,2.93.72,2.96Z"/>
        <path class="cls-6" d="M38.77,44.29c-.1.03-.78-1.81-1.51-4.11-.73-2.31-1.24-4.2-1.13-4.23.1-.03.78,1.81,1.51,4.11.73,2.3,1.24,4.2,1.13,4.23Z"/>
        <g class="cls-18">
          <path class="cls-6" d="M42.33,42.97c-.1.03-.78-1.81-1.51-4.11-.73-2.31-1.24-4.2-1.13-4.23.1-.03.78,1.81,1.51,4.11.73,2.3,1.24,4.2,1.13,4.23Z"/>
        </g>
      </g>
      <g>
        <path class="cls-2" d="M33.26,52.67c-.1-.36-3.29-12.63-3.29-12.63l15.5-.02c.58.96,1.63,10.82,1.63,10.82l-.81,3.24s-10.67,4.75-10.95,4.77c-.28.02-2.08-6.18-2.08-6.18Z"/>
        <path class="cls-2" d="M43.81,51.33l1.87-4.87c.82-2.13.78-4.49-.1-6.6l-.67-1.61-11.79,3.97s2.23,3.97,5.3,2.26l-2.64,4.05,8.04,2.79Z"/>
        <path class="cls-6" d="M36.7,49.06c.07,0,.03-.59.32-1.55.29-.93,1-2.29,2.47-3.17l1.12-.67-1.29.22c-.92.16-1.92.33-2.98.51h.06c-1.21-.04-2.59-.6-3.11-1.85-.04-.09-.08-.21-.09-.28l-.2.34c3.38-.98,6.42-1.91,8.58-2.71,1.08-.39,1.94-.74,2.53-1,.59-.26.9-.42.89-.46-.03-.08-1.36.39-3.55,1.07-2.18.7-5.22,1.56-8.61,2.54l-.26.08.06.26c.03.15.08.26.13.38.32.74.9,1.33,1.57,1.67.67.36,1.39.47,2.05.51h.03s.03,0,.03,0c1.05-.2,2.05-.4,2.97-.58l-.17-.45c-1.59,1.01-2.27,2.51-2.49,3.51-.23,1.03-.09,1.63-.06,1.62Z"/>
        <path class="cls-6" d="M34.5,43.79c-.11,0,.02.63-.24,1.42-.14.37-.5.8-.97.76-.49-.02-.95-.45-1.23-1.04-.56-1.27-1.15-2.43-1.48-3.26-.34-.85-.5-1.4-.58-1.38-.07.01-.06.6.2,1.51.25.92.77,2.08,1.35,3.4.31.67.95,1.32,1.74,1.31.83-.02,1.25-.7,1.37-1.17.12-.5.05-.9,0-1.16-.06-.26-.12-.4-.15-.39Z"/>
      </g>
      <g>
        <path class="cls-9" d="M127.93,144.08c-.1.04-.75-1.9-2.26-4.8-.78-1.42-1.82-3.1-3.45-4.47-.81-.68-1.78-1.25-2.87-1.64-1.09-.39-2.28-.62-3.51-.77-2.46-.31-4.92-.47-6.97-1.37-2.07-.87-3.49-2.43-4.33-3.87-.84-1.45-1.13-2.81-1.23-3.73-.03-.46-.04-.82-.02-1.07.02-.24.03-.37.05-.37.05,0,.03.51.17,1.41.15.89.49,2.19,1.34,3.56.85,1.36,2.23,2.81,4.2,3.61,1.96.84,4.36.98,6.85,1.29,1.25.16,2.48.39,3.62.81,1.14.41,2.16,1.03,3,1.75,1.69,1.46,2.72,3.21,3.47,4.67.74,1.48,1.2,2.74,1.51,3.6.31.87.45,1.36.42,1.37Z"/>
        <path class="cls-9" d="M85.18,83.86c6.72-3.33,15.56-1.65,20.59,3.91,2.53,2.8,4.19,6.44,7.28,8.6,3.8,2.65,8.81,2.45,13.44,2.59,4.63.14,9.86,1.09,12.38,4.98,1.18,1.82,1.56,4.01,2.19,6.08.63,2.07,1.65,4.21,3.56,5.22,1.42.75,3.09.76,4.68.97,1.59.2,3.31.72,4.17,2.07-2.15,6.26-5.46,12.11-9.72,17.17-1.08-.56-2.17-1.11-3.25-1.67.08,1.29.17,2.57.25,3.86-2.95,1.64-5.61,3.81-7.81,6.36-2.01-2.44-4.03-4.89-6.04-7.33-1.76-2.14-3.61-4.34-6.12-5.51-2.33-1.08-4.98-1.14-7.53-1.43-2.55-.29-5.25-.93-6.99-2.81-1.42-1.53-2-3.66-3.23-5.34-1.68-2.28-4.62-3.57-7.44-3.26"/>
        <g>
          <g>
            <path class="cls-8" d="M97.39,116.86c-.46,1.95.99,3.94,2.81,4.79,1.82.85,3.9.84,5.9.82s4.09,0,5.89.89c2.99,1.49,4.4,4.98,7.02,7.05,2.42,1.91,5.88,2.42,8.75,1.28,2.87-1.14,5.04-3.88,5.49-6.94-3.01,2.42-7.7,2.45-10.74.07-2.42-1.9-3.81-5.06-6.58-6.4-2.74-1.32-5.97-.47-9-.21-3.03.26-6.76-.6-7.66-3.51l-.66.11-1.22,2.06Z"/>
            <g class="cls-15">
              <path class="cls-5" d="M98.12,119.93c-.16.23,2.09,1.97,2.09,1.73,0,0,1.52-.85,1.76-1.7.33-1.18.11-1.57-.44-2.67,0,0-1.89-.86-2.21-2.73h-.68l-.51,5.37"/>
            </g>
          </g>
          <path class="cls-11" d="M104.2,118.13c.07,0,.06,1-.24,2.18-.28,1.18-.57,2.11-.62,2.1-.06-.01.14-.98.42-2.15.29-1.17.39-2.13.44-2.14Z"/>
          <path class="cls-11" d="M113.59,117.77c.05.05-.94.93-1.74,2.31-.81,1.38-1.01,2.7-1.08,2.68-.02,0,0-.33.12-.85.12-.52.37-1.22.78-1.93.41-.71.89-1.28,1.27-1.65.38-.38.64-.57.66-.56Z"/>
          <path class="cls-11" d="M121.84,124.6s-.17.31-.55.74c-.37.43-.94.98-1.64,1.5-.7.52-1.39.9-1.91,1.13-.52.23-.86.33-.87.31-.03-.06,1.28-.58,2.65-1.61,1.38-1.02,2.26-2.11,2.31-2.07Z"/>
          <path class="cls-11" d="M128.26,131.37c-.06,0,.06-1.08.06-2.41,0-1.33-.03-2.42.03-2.42.05,0,.17,1.08.17,2.42,0,1.35-.22,2.42-.27,2.41Z"/>
        </g>
        <g>
          <polygon class="cls-2" points="160.31 303.84 197 290.03 191.89 273.81 152.19 283 160.31 303.84"/>
          <g>
            <path class="cls-8" d="M192.21,291.99l1.08-.32s12.93,16.12,16.47,15.26l-11.22-36.38-11.95,4.23c4.17,4.64,6.2,10.21,5.62,17.22Z"/>
            <g class="cls-17">
              <path class="cls-12" d="M191.6,277.26c-.02-.76.62-1.49,1.38-1.55.76-.06,1.51.59,1.55,1.35.04.76-.71,1.66-1.47,1.63-.76-.03-1.6-.84-1.45-1.59"/>
            </g>
            <g class="cls-17">
              <path class="cls-12" d="M198.54,270.54l-2.88,1.02,11.8,34.5s1.2,1.4,2.29.87l-11.22-36.38Z"/>
            </g>
            <path class="cls-9" d="M193.44,291.76c.18-.06-.02-.97.28-2.02.27-1.06.9-1.75.78-1.89-.08-.15-1.07.44-1.41,1.72-.35,1.27.19,2.28.34,2.19Z"/>
            <path class="cls-9" d="M196.19,295.09c.18-.01.25-.88.81-1.71.54-.85,1.31-1.25,1.24-1.43-.02-.18-1.1.02-1.79,1.07-.69,1.05-.44,2.11-.27,2.07Z"/>
            <path class="cls-9" d="M201.43,295.85c-.01-.17-.98-.15-1.81.61-.84.75-.96,1.71-.79,1.74.18.06.53-.65,1.23-1.26.68-.63,1.41-.91,1.37-1.09Z"/>
          </g>
        </g>
        <g>
          <polygon class="cls-2" points="75.63 375.61 86.33 413.33 102.92 409.59 97.06 369.26 75.63 375.61"/>
          <g>
            <path class="cls-8" d="M84.78,408.39l.23,1.11s-17.14,11.54-16.58,15.14l37.19-8.15-3.22-12.26c-4.97,3.77-10.69,5.33-17.63,4.17Z"/>
            <g class="cls-17">
              <path class="cls-12" d="M99.51,409c.76.04,1.44.74,1.43,1.5,0,.76-.71,1.46-1.48,1.43-.76-.03-1.6-.84-1.51-1.6.09-.76.97-1.53,1.7-1.32"/>
            </g>
            <g class="cls-17">
              <path class="cls-12" d="M105.63,416.49l-.77-2.95-35.36,8.9s-1.5,1.08-1.05,2.21l37.19-8.15Z"/>
            </g>
            <path class="cls-9" d="M84.91,409.63c.05.18.97.06,1.99.45,1.03.36,1.66,1.05,1.82.94.16-.07-.35-1.1-1.59-1.55-1.24-.46-2.29,0-2.22.16Z"/>
            <path class="cls-9" d="M81.36,412.1c0,.19.85.32,1.64.95.8.61,1.14,1.41,1.32,1.36.18,0,.07-1.1-.92-1.87-.98-.78-2.07-.62-2.04-.44Z"/>
            <path class="cls-9" d="M80.17,417.25c.17,0,.23-.96-.46-1.85-.68-.9-1.62-1.1-1.66-.93-.07.17.6.58,1.15,1.33.57.73.79,1.48.97,1.46Z"/>
          </g>
        </g>
        <path class="cls-9" d="M56.33,215.08s-1.36,71.99,5.69,120.66l16.24,52.78,22-4.44s-8.44-54.61-9.61-76.89c-1.17-22.29-.36-103.98-.36-103.98l-33.96,11.88Z"/>
        <path class="cls-9" d="M70.93,208.61l21.34,82.33c4.37,16.85,21.84,26.71,38.52,21.75l48.73-14.49-7.02-20.99-45.59,7.64-6.11-47.52s-8.49-35.48-19.75-35.47c-2.45,0-30.1,6.75-30.1,6.75Z"/>
        <path class="cls-2" d="M46.13,53.33l-.09,4.47s-1.81,34.56-1.7,39.73,17.44,34.82,17.44,34.82l-10.58,17.34-23.91-43c-.98-1.76-1.37-3.78-1.12-5.78l5.71-45.95.15-1.21"/>
        <path class="cls-8" d="M44.51,98.58l18.62,24.63c3.5,4.64,9.54,7.27,14.91,9.49h0c13.35.65,29.55-1.11,36.21,9.74,1.11,1.82,1.41,4.02.79,6.06-2.88,9.45-12.4,40.92-12.76,44.93,0,0,4.15,4.28,3.22,6.92-.93,2.64-4.45,1.51-4.45,1.51l-43.9,12.98s-1.98-1.02-1.79-2.46c.17-1.36,1.6-5.39,3.15-9.49,2.52-6.67,2.88-13.97.91-20.83-.82-2.87-1.58-5.87-1.97-8.31l-1.11-15.66c-6.1-10.14-19.75-24.95-26.75-45.68l14.92-13.83Z"/>
        <g>
          <path class="cls-2" d="M100.84,101.21c1.07-8.53-5.1-16.33-13.77-17.15-8.17-.78-15.42,5.3-16.65,13.41-1.07,7.11-2,14.29-1.96,16.89.1,7.86,4.7,10.92,6.56,11.84.43.21,1.6.45,2.07.51h0s.05.03.04.06l-1.75,9.02c-.79,5.91,2.51,11.18,8.41,12.05,5.92.86,10.55-3.68,11.46-9.59l5.58-37.04Z"/>
          <path class="cls-9" d="M71.78,102.06c.13.18,1.17-.37,2.5-.18,1.33.18,2.21,1,2.38.86.08-.06-.03-.38-.41-.75-.37-.37-1.04-.77-1.87-.89-.83-.12-1.57.09-2.02.34-.46.25-.64.53-.57.61Z"/>
          <path class="cls-9" d="M83.62,104.63c.13.18,1.17-.37,2.5-.18,1.33.18,2.21,1,2.38.86.08-.06-.03-.38-.41-.75-.37-.37-1.04-.77-1.87-.89-.83-.12-1.57.09-2.02.34-.45.25-.64.53-.57.61Z"/>
          <path class="cls-9" d="M79.01,110.92c.02-.07-.79-.34-2.1-.7-.33-.08-.65-.2-.67-.44-.04-.26.15-.6.37-.97.44-.78.9-1.59,1.38-2.44,1.93-3.48,3.38-6.36,3.24-6.44-.14-.08-1.82,2.68-3.75,6.16-.47.86-.92,1.68-1.34,2.46-.18.37-.47.77-.37,1.31.05.27.28.49.49.58.21.1.4.13.57.16,1.34.27,2.17.4,2.19.32Z"/>
          <path class="cls-6" d="M77.15,126.72s5.08,1.17,12.07-1.76c0,0-3.02,6.5-12.54,4.19l.47-2.43Z"/>
          <path class="cls-1" d="M79.11,114.21c.57-.56,1.46-.79,2.28-.58.57.15,1.11.51,1.39,1.03.28.52.26,1.2-.13,1.6-.43.45-1.2.46-1.81.19-.61-.27-1.09-.77-1.55-1.26-.13-.14-.26-.28-.32-.45-.07-.17-.06-.38.07-.5"/>
          <path class="cls-9" d="M82.8,112.41c-.21-.04-.43,1.4-1.81,2.24-1.38.85-2.9.46-2.94.66-.03.09.3.33.95.44.63.11,1.6.05,2.44-.47.85-.52,1.29-1.31,1.43-1.9.14-.6.03-.98-.07-.98Z"/>
          <path class="cls-9" d="M84.54,100.3c.08.38,1.43.4,2.97.82,1.54.38,2.73,1.03,2.99.73.11-.14-.05-.51-.51-.94-.45-.42-1.21-.87-2.13-1.11-.92-.24-1.8-.22-2.4-.07-.61.15-.94.39-.91.57Z"/>
          <path class="cls-9" d="M73.12,97.96c.19.34,1.15.16,2.26.3,1.11.11,2.01.5,2.27.22.12-.14.01-.46-.35-.81-.36-.34-1-.67-1.76-.76-.76-.09-1.46.09-1.89.35-.43.25-.61.55-.53.71Z"/>
        </g>
        <path class="cls-8" d="M72.84,185.88c-6.13.03-11.09-4.96-11.05-11.09.04-6.3,2.06-13.71,2.06-13.71,0,0,17.03,3.77,17,3.77-.02,0,.02.02.03,0l4.5-7.44s9.49-18.42,18.46-19.63c8.1-1.09,12.6,4.72,10.89,12.78-1.71,8.06-13.7,23.72-23.97,30.07-5.77,3.57-12.25,5.21-17.91,5.24Z"/>
        <path class="cls-9" d="M105.15,166.81s-.11.22-.37.61c-.25.39-.65.96-1.16,1.68-1.04,1.43-2.6,3.48-4.79,5.8-2.19,2.3-5.02,4.88-8.64,7.05-3.6,2.18-8.04,3.9-12.92,4.33-2.44.2-4.84.06-7.1-.43-2.25-.49-4.38-1.39-6.01-2.8-1.64-1.41-2.64-3.28-3.17-5.09-.53-1.82-.64-3.6-.55-5.2.23-3.2,1.07-5.67,1.62-7.35.28-.84.52-1.49.69-1.92.17-.44.26-.66.28-.66.02,0-.05.24-.18.69-.15.5-.35,1.14-.59,1.95-.48,1.69-1.27,4.16-1.44,7.31-.07,1.56.06,3.3.59,5.05.53,1.74,1.5,3.52,3.07,4.85,1.56,1.34,3.61,2.2,5.8,2.67,2.2.47,4.56.61,6.94.41,4.78-.43,9.16-2.1,12.72-4.23,3.59-2.12,6.42-4.65,8.62-6.9,2.2-2.26,3.8-4.27,4.89-5.66.51-.67.92-1.21,1.24-1.62.28-.37.44-.56.45-.55Z"/>
        <path class="cls-9" d="M106.91,167.32c.12.06-.58,1.38-2.05,2.42-1.46,1.05-2.94,1.29-2.96,1.16-.04-.15,1.28-.59,2.65-1.58,1.38-.97,2.23-2.09,2.36-2Z"/>
        <path class="cls-9" d="M79.46,171.81c-.14,0-.19-1.54.15-3.4.33-1.86.91-3.28,1.05-3.23.14.04-.21,1.51-.53,3.33-.33,1.82-.51,3.31-.66,3.3Z"/>
        <path class="cls-9" d="M82.54,172.98c-.11.08-1.22-1.54-1.82-3.85-.62-2.31-.44-4.26-.31-4.25.16,0,.22,1.89.82,4.11.58,2.23,1.45,3.91,1.32,3.98Z"/>
        <path class="cls-9" d="M91.68,147.46c.06.04-.51,1.06-1.49,2.68-.97,1.62-2.35,3.84-3.89,6.27-1.55,2.43-2.97,4.62-4.02,6.19-1.05,1.57-1.73,2.52-1.8,2.49-.06-.04.51-1.06,1.48-2.68.97-1.62,2.35-3.84,3.9-6.28,1.55-2.44,2.97-4.63,4.02-6.2,1.05-1.57,1.73-2.52,1.79-2.48Z"/>
        <path class="cls-9" d="M59.17,177.52s-.2-.36-.48-1.04c-.29-.68-.63-1.7-1-2.97-.73-2.54-1.39-6.18-1.38-10.23.02-4.05.71-7.68,1.46-10.22.37-1.27.73-2.28,1.02-2.96.28-.68.46-1.05.49-1.04.09.03-.51,1.55-1.15,4.1-.65,2.54-1.27,6.12-1.29,10.12,0,4,.58,7.59,1.22,10.13.63,2.55,1.21,4.07,1.12,4.1Z"/>
        <path class="cls-9" d="M93.51,190.8s-.24.38-.74,1.02c-.49.64-1.28,1.52-2.3,2.55-1.02,1.04-2.32,2.18-3.84,3.36-1.54,1.15-3.31,2.32-5.26,3.37-1.97,1.04-3.92,1.86-5.74,2.49-1.82.61-3.5,1.06-4.93,1.32-1.43.28-2.59.44-3.4.49-.81.06-1.26.08-1.26.04-.01-.1,1.78-.25,4.58-.89,1.41-.31,3.05-.79,4.85-1.41,1.78-.65,3.71-1.48,5.65-2.5,1.93-1.04,3.68-2.18,5.22-3.3,1.52-1.14,2.83-2.24,3.87-3.24,2.09-1.98,3.22-3.37,3.29-3.31Z"/>
        <path class="cls-9" d="M99.84,187.22c.13-.06.9,1.4,1.72,3.25.82,1.85,1.38,3.4,1.24,3.46-.13.06-.9-1.4-1.72-3.25-.82-1.85-1.37-3.4-1.24-3.46Z"/>
        <path class="cls-7" d="M91.11,286.47c-.14.03-3.46-13.51-7.42-30.23-3.96-16.74-7.06-30.32-6.92-30.36.14-.03,3.46,13.5,7.42,30.24,3.96,16.73,7.05,30.32,6.91,30.35Z"/>
        <path class="cls-7" d="M110.68,208.62s-.18.26-.6.65c-.41.39-1.06.9-1.92,1.44-1.7,1.09-4.39,2.2-7.52,2.34-3.13.14-5.91-.73-7.71-1.66-.91-.46-1.59-.92-2.04-1.26-.45-.35-.67-.57-.65-.59.05-.08,1.04.7,2.85,1.52,1.8.83,4.5,1.61,7.52,1.47,3.03-.14,5.65-1.16,7.36-2.14,1.73-.98,2.64-1.85,2.7-1.77Z"/>
        <path class="cls-7" d="M79.79,240.6s-.39-.22-.95-.81c-.55-.59-1.24-1.55-1.84-2.87-.61-1.31-1.12-2.94-1.68-4.74-.56-1.81-1.17-3.79-1.81-5.86-1.27-4.16-2.4-7.94-3.19-10.68-.36-1.29-.67-2.38-.91-3.25-.2-.77-.3-1.2-.27-1.21s.2.4.46,1.15c.29.86.64,1.93,1.07,3.2.88,2.71,2.06,6.47,3.33,10.63.63,2.08,1.23,4.05,1.77,5.87.54,1.81,1,3.43,1.56,4.73,1.07,2.64,2.52,3.77,2.45,3.83Z"/>
        <path class="cls-7" d="M73.56,212.66c-.07-.01.19-.49.92-.45.33.02.77.17,1.04.61.28.43.18,1.08-.18,1.48-.34.42-.96.62-1.43.41-.47-.2-.69-.61-.76-.93-.15-.71.28-1.04.3-.98.07.04-.15.38.05.87.09.23.3.5.58.59.27.1.63-.02.87-.3.24-.28.3-.65.16-.91-.14-.26-.43-.42-.67-.48-.52-.12-.82.15-.87.09Z"/>
        <path class="cls-7" d="M76.3,217.17s.07-.14.32-.18c.23-.05.63,0,.95.33.35.31.46,1,.11,1.51-.29.54-1.09.84-1.74.58-.67-.22-1.09-.84-1.17-1.4-.09-.56.01-1.09.29-1.46.26-.35.63-.51.89-.47.27.04.33.2.31.21-.02.04-.13-.04-.31,0-.17.02-.42.18-.59.47-.33.52-.24,1.83.75,2.16.47.17.94,0,1.18-.35.25-.34.22-.75.02-1-.2-.26-.48-.36-.67-.37-.19-.02-.31.02-.33-.02Z"/>
        <path class="cls-7" d="M60.88,215.63c.05-.02.4.73.59,2.04.2,1.3.17,3.18-.43,5.12-.61,1.94-1.64,3.51-2.55,4.47-.9.97-1.61,1.39-1.64,1.35-.06-.07.56-.59,1.37-1.59.81-.99,1.74-2.52,2.33-4.38.57-1.87.66-3.66.56-4.93-.1-1.28-.31-2.06-.23-2.08Z"/>
        <path class="cls-7" d="M128.2,284.17c.1.1-1.61,1.98-3.81,4.18-2.21,2.21-4.08,3.92-4.18,3.82-.1-.1,1.61-1.98,3.81-4.19,2.21-2.21,4.08-3.92,4.18-3.82Z"/>
        <path class="cls-7" d="M124.84,293.39c-.14-.03.18-1.85.72-4.07.54-2.21,1.09-3.98,1.23-3.94.14.03-.18,1.85-.72,4.07-.54,2.21-1.09,3.98-1.23,3.94Z"/>
        <g class="cls-15">
          <path class="cls-5" d="M64.29,182.86c.69,2.86,2.82,5.27,5.42,6.64,2.61,1.37,5.65,1.78,8.58,1.51,7.38-.68,14.18-5.82,16.85-12.73-4.46,3.1-9.39,5.96-14.73,7.29-5.35,1.33-11.6.61-16.24-2.37"/>
        </g>
        <g>
          <g>
            <g>
              <path class="cls-2" d="M94.19,137.74l3.32-3.04c.27-.25.6-.52.97-.46.5.08.7.68.72,1.18.05,1.34-.55,2.68-1.58,3.54"/>
              <path class="cls-6" d="M97.61,138.97c-.06-.06.43-.47.86-1.34.21-.43.4-.98.45-1.61.02-.31.04-.65-.04-.95-.08-.31-.25-.56-.48-.57-.23-.03-.51.2-.77.44-.26.23-.52.46-.78.69-.46.39-.9.77-1.34,1.15-.77.64-1.28,1.02-1.32.96-.05-.05.37-.52,1.08-1.23.41-.4.83-.81,1.27-1.23.25-.24.5-.47.76-.72.26-.23.58-.59,1.15-.58.27.01.52.18.66.37.15.19.22.4.27.6.1.41.06.78.02,1.13-.09.7-.33,1.29-.61,1.73-.56.9-1.16,1.21-1.18,1.17Z"/>
            </g>
            <path class="cls-2" d="M79.24,140.88l-14.81,20.42,16.42,3.55,6.71-18.72,11.59,1.47,7.37-2.32-6.32-5.69-9.25-2.71c-4.35-1.28-9.04.32-11.7,4Z"/>
            <path class="cls-6" d="M100.2,139.6s-.17-.02-.48-.1c-.36-.1-.81-.23-1.34-.38-1.16-.34-2.84-.84-4.93-1.4-1.04-.27-2.19-.59-3.43-.78-1.24-.18-2.59-.22-3.98,0-1.38.22-2.79.73-4.02,1.63-1.22.9-2.23,2.15-3.15,3.51-3.5,5.6-7.04,10.47-9.79,13.82-1.37,1.68-2.52,3.01-3.33,3.91-.4.45-.73.79-.95,1.02-.22.23-.35.34-.36.33-.03-.03.39-.55,1.16-1.49.76-.94,1.87-2.3,3.2-4,2.67-3.41,6.13-8.26,9.64-13.88.93-1.38,1.97-2.68,3.28-3.63,1.3-.95,2.8-1.47,4.24-1.69,1.45-.22,2.84-.16,4.12.04,1.28.21,2.42.55,3.46.85,2.08.61,3.74,1.17,4.89,1.57.52.19.96.35,1.31.48.3.12.45.18.45.2Z"/>
            <path class="cls-6" d="M87.94,144.73c.13.06-.3,1.24-.74,2.7-.45,1.46-.75,2.68-.9,2.65-.14-.02-.06-1.3.4-2.81.46-1.51,1.12-2.61,1.24-2.55Z"/>
            <path class="cls-6" d="M99.85,147.44c0,.14-2.84.33-6.33-.08-1.75-.19-3.29-.59-4.37-.36-1.09.18-1.59.74-1.65.68-.06-.02.38-.73,1.57-1.04,1.19-.34,2.8.02,4.51.21,3.45.41,6.27.44,6.27.59Z"/>
          </g>
          <g>
            <path class="cls-2" d="M101.91,134.24s-1.03,1.41,0,2.82c1.03,1.41,1.79,1.51,1.79,1.51l-.38,1.6,2.35.85,1.13-3.39-4.89-3.39Z"/>
            <path class="cls-6" d="M101.91,134.24c0-.05.49.24,1.38.8.88.56,2.16,1.38,3.65,2.39l.15.1-.06.17c-.35,1.06-.72,2.2-1.11,3.39l-.08.25-.25-.09h0c-.81-.3-1.59-.58-2.34-.86l-.21-.08.05-.22c.14-.55.27-1.08.39-1.59l.2.29c-.52-.14-.8-.4-1.09-.66-.28-.26-.51-.54-.71-.81-.43-.54-.6-1.19-.56-1.69.11-1.01.58-1.43.6-1.4.06.03-.3.5-.32,1.41,0,.45.17.97.58,1.44.2.25.43.5.69.73.25.22.59.45.86.51l.25.06-.05.23c-.12.51-.24,1.05-.36,1.6l-.16-.29c.75.27,1.54.55,2.35.84h0s-.34.16-.34.16c.4-1.19.79-2.32,1.15-3.38l.09.27c-1.38-.98-2.55-1.85-3.39-2.49-.84-.64-1.35-1.04-1.36-1.09Z"/>
          </g>
        </g>
        <g>
          <g>
            <path class="cls-9" d="M110.25,148.91s2.82.94,3.13,1.41c.31.47-1.57,57.68-1.57,57.68l-4.86-5.64,3.29-53.45Z"/>
            <polygon class="cls-7" points="103.51 146.09 86.83 197.65 106.96 202.35 110.25 148.91 107.27 149.38 103.51 146.09"/>
            <path class="cls-11" d="M111.03,200.83s-.44-.45-1.11-1.3-1.62-2.09-2.74-3.58l.14.09c-1.88-.35-4.04-.74-6.34-1.17-3.44-.65-6.54-1.27-8.79-1.75-1.12-.24-2.03-.44-2.65-.59-.62-.15-.97-.25-.96-.29s.36,0,1,.09,1.55.23,2.68.42c2.26.38,5.38.94,8.82,1.6,2.3.45,4.46.87,6.33,1.24l.09.02.05.07c1.08,1.52,1.98,2.79,2.59,3.69.61.9.94,1.43.9,1.46Z"/>
            <path class="cls-11" d="M111.03,188.22s-.35-.35-.88-1.04-1.26-1.69-2.12-2.89l.14.09c-1.65-.3-3.54-.65-5.57-1.02-2.88-.55-5.48-1.07-7.35-1.47-1.88-.4-3.03-.69-3.02-.76.01-.07,1.19.09,3.09.4,1.89.31,4.5.78,7.38,1.32,2.02.4,3.9.77,5.55,1.09l.09.02.05.07c.83,1.24,1.51,2.27,1.97,3,.46.73.71,1.16.67,1.19Z"/>
            <path class="cls-11" d="M110.85,174.22c-.07.05-.91-.97-2.16-2.6l.13.08c-1.32-.22-2.97-.51-4.74-.85-2.22-.42-4.23-.83-5.68-1.16-1.45-.32-2.34-.56-2.32-.63.01-.07.93.04,2.39.27,1.47.23,3.48.58,5.71,1.01,1.78.34,3.41.67,4.72.95l.09.02.04.06c1.17,1.68,1.89,2.8,1.82,2.85Z"/>
            <path class="cls-11" d="M111,161.85c-.07.05-.68-.67-1.6-1.84l.13.08c-1.06-.16-2.41-.4-3.88-.68-3.46-.66-6.24-1.3-6.21-1.44.03-.14,2.85.28,6.31.93,1.47.28,2.82.56,3.86.79l.08.02.04.06c.84,1.23,1.34,2.03,1.27,2.08Z"/>
            <path class="cls-9" d="M106.96,202.35c-.03.14-4.57-.8-10.12-2.1-5.56-1.3-10.04-2.46-10.01-2.6.03-.14,4.56.8,10.12,2.1,5.56,1.3,10.04,2.46,10,2.6Z"/>
            <polygon class="cls-7" points="92.9 204.66 86.83 197.65 106.96 202.35 111.81 208 92.9 204.66"/>
          </g>
          <g>
            <polygon class="cls-8" points="131.56 205.18 111.03 208 111.03 149.18 113.38 150.32 131.56 205.18"/>
            <g class="cls-16">
              <polygon class="cls-5" points="131.56 205.18 111.03 208 111.03 149.18 113.38 150.32 131.56 205.18"/>
            </g>
            <path class="cls-11" d="M124.82,187.87s-.45.13-1.26.38c-.8.24-1.97.65-3.23,1.44-1.25.79-2.64,2.01-3.43,3.81-.79,1.75-1.02,4.11.08,6.06.27.46.66.86,1.1,1.06.43.21.93.1,1.2-.26.27-.35.34-.88.28-1.35-.06-.47-.24-.94-.47-1.36-.94-1.69-2.74-2.53-4.18-2.48-1.48.04-2.5.86-3.05,1.45-.57.61-.78,1.04-.82,1.02-.02,0,.03-.12.12-.32.11-.2.27-.49.54-.83.52-.65,1.57-1.59,3.19-1.68,1.57-.11,3.55.76,4.61,2.61.49.88.92,2.14.17,3.25-.39.55-1.22.71-1.81.42-.59-.27-1.02-.74-1.34-1.27-1.21-2.16-.92-4.68-.06-6.52.87-1.9,2.36-3.15,3.67-3.93,1.34-.78,2.54-1.14,3.37-1.32.84-.18,1.31-.21,1.31-.18Z"/>
            <path class="cls-11" d="M120.95,179.12s-.41.49-1.31.93c-.89.44-2.27.81-3.81.73-1.54-.09-2.87-.62-3.7-1.16-.84-.54-1.23-1.03-1.19-1.07.06-.07.53.32,1.37.75.84.44,2.1.87,3.55.96,1.45.08,2.75-.21,3.63-.55.89-.34,1.4-.66,1.45-.59Z"/>
            <path class="cls-11" d="M115.59,164.86c.07.07-.7.66-1.32,2.01-.29.66-.56,1.54-.52,2.47.03.46.2.93.57,1.17.35.24.9.19,1.3-.08.41-.26.58-.75.54-1.23-.05-.47-.29-.91-.61-1.2-.69-.59-1.63-.65-2.32-.51-.71.15-1.24.45-1.61.65-.36.21-.56.33-.59.3-.02-.03.14-.21.47-.47.34-.26.87-.63,1.64-.84.75-.2,1.83-.21,2.72.5.43.36.74.9.81,1.52.08.6-.17,1.34-.75,1.71-.55.37-1.31.46-1.88.08-.56-.38-.74-1.04-.76-1.56-.02-1.08.31-1.97.66-2.66.36-.69.79-1.17,1.11-1.46.32-.29.53-.41.55-.39Z"/>
          </g>
          <g>
            <g>
              <polygon class="cls-8" points="149.9 193.58 131.56 203.92 111.03 152.2 117.14 148.91 149.9 193.58"/>
              <polygon class="cls-8" points="153.51 188.72 149.9 193.58 117.14 148.91 121.3 146.09 153.51 188.72"/>
              <path class="cls-11" d="M122.91,157.42s.07-.11.26-.24c.19-.14.52-.29.97-.37.89-.16,2.26.04,3.65.87,1.38.83,2.73,2.35,3.42,4.39.34,1.01.55,2.15.37,3.33-.16,1.18-.93,2.37-2.1,2.92-1.15.57-2.47.63-3.6.25-1.14-.37-2.06-1.09-2.77-1.89-1.4-1.62-2.06-3.55-2.07-5.16-.01-1.64.65-2.87,1.23-3.54.29-.34.56-.57.76-.7.19-.13.31-.18.32-.17.03.04-.39.3-.91,1-.5.68-1.07,1.87-1.02,3.41.05,1.52.72,3.34,2.06,4.85.67.74,1.54,1.4,2.57,1.73,1.01.33,2.2.27,3.21-.23,1.03-.49,1.68-1.48,1.83-2.54.17-1.06,0-2.14-.32-3.1-.63-1.93-1.88-3.4-3.16-4.23-1.29-.83-2.58-1.07-3.42-.99-.86.09-1.23.46-1.26.41Z"/>
              <path class="cls-11" d="M152.2,186.93s-.08.27-.43.64c-.34.36-.95.81-1.83,1.04-.86.24-2.02.23-3.12-.26-1.11-.47-2.13-1.36-2.9-2.49-.77-1.13-1.25-2.37-1.4-3.55-.16-1.18.05-2.28.41-3.1.36-.83.85-1.39,1.23-1.71.38-.32.64-.43.65-.41.07.07-.93.65-1.54,2.25-.29.78-.45,1.8-.28,2.89.16,1.1.63,2.26,1.35,3.32.72,1.06,1.67,1.89,2.67,2.34,1,.47,2.03.51,2.84.34,1.68-.36,2.28-1.41,2.34-1.32Z"/>
              <path class="cls-11" d="M126.47,180.27s.07-.11.26-.24c.19-.14.52-.29.97-.37.89-.16,2.26.04,3.65.87,1.38.83,2.73,2.35,3.42,4.39.34,1.01.55,2.15.37,3.33-.16,1.18-.93,2.37-2.1,2.92-1.15.57-2.47.63-3.6.25-1.14-.37-2.06-1.09-2.77-1.89-1.4-1.62-2.06-3.55-2.07-5.16-.01-1.64.65-2.87,1.23-3.54.29-.34.56-.57.76-.7.19-.13.31-.18.32-.17.03.04-.39.3-.91,1-.5.68-1.07,1.87-1.02,3.41.05,1.52.72,3.34,2.06,4.85.67.74,1.54,1.4,2.57,1.73,1.01.33,2.2.27,3.21-.23,1.03-.49,1.68-1.48,1.83-2.54.17-1.06,0-2.14-.32-3.1-.63-1.93-1.88-3.4-3.16-4.23-1.29-.83-2.58-1.07-3.42-.99-.86.09-1.23.46-1.26.41Z"/>
            </g>
            <g class="cls-14">
              <polygon class="cls-5" points="153.51 188.72 149.9 193.58 117.14 148.91 121.3 146.09 153.51 188.72"/>
            </g>
          </g>
          <g>
            <path class="cls-7" d="M101.73,139.5c.48-.49,1.26-.58,1.92-.39s1.22.61,1.77,1.02c3.93,2.93,7.87,5.87,11.8,8.8-.97.53-1.94,1.07-2.91,1.6-1.37-2.7-3.74-4.88-6.54-6.04"/>
            <path class="cls-9" d="M107.03,149.59c-.31-2.46-1.6-4.78-3.51-6.36-1.1-.9-2.42-1.59-3.26-2.73-.27-.37-.49-.86-.29-1.27.18-.36.63-.52,1.03-.47.4.05.76.26,1.11.47,2.01,1.2,4.04,2.42,5.63,4.13,1.59,1.71,2.69,4.02,2.43,6.34"/>
          </g>
        </g>
        <path class="cls-9" d="M78.38,84.75c-4.39,1.14-9.92,5.65-7.86,12.14,5.38-1.32,10.24-5.21,14.6-8.62.94,4.95,1.56,7.47,4.09,12.09.97,1.77,9.16,8.94,10.32,9.5s1.76-4.9.68-6.97c0,0-5.13-22.47-21.84-18.14Z"/>
        <path class="cls-8" d="M78.38,84.75c5.04.59,11.11,3.71,14.5,7.85,3.4,4.14,6.31,11.05,6.8,16.24,4.82-6.07,2.96-17.12-1.97-22s-13.24-5.43-19.33-2.1"/>
        <path class="cls-9" d="M132.07,95.07s.13.16.24.53c.1.36.17.95-.02,1.66-.19.7-.62,1.54-1.43,2.21-.8.68-1.91,1.17-3.15,1.48-1.25.31-2.63.57-4.14.72-1.51.14-3.15.14-4.84-.24-1.67-.38-3.39-1.14-4.76-2.47-1.39-1.33-2.19-3.18-2.78-5.03-.6-1.87-1.03-3.72-1.78-5.36-.73-1.65-1.87-3-3.22-3.96-2.72-1.93-5.83-2.44-8.34-2.48-2.53-.05-4.58.27-5.99.44-.66.09-1.2.16-1.63.22-.37.05-.57.06-.57.04s.19-.07.56-.15c.37-.08.91-.19,1.61-.31,1.41-.24,3.46-.61,6.03-.61,2.54,0,5.75.48,8.61,2.46,1.42.98,2.65,2.42,3.4,4.13.79,1.7,1.22,3.58,1.81,5.41.58,1.83,1.35,3.58,2.64,4.83,1.28,1.25,2.91,1.99,4.51,2.36,3.25.72,6.33.14,8.78-.37,1.22-.29,2.29-.73,3.06-1.35.77-.61,1.21-1.39,1.42-2.04.41-1.37-.1-2.14-.02-2.14Z"/>
        <path class="cls-9" d="M93.27,102.49c0,3.42.7,6.96,2.74,9.71,2.04,2.75,5.62,4.52,8.95,3.73-.87-.96-1.75-1.93-2.62-2.89,1.99,1.08,4.59.92,6.43-.4-6.16-1.54-11.6-5.75-14.62-11.33"/>
        <path class="cls-9" d="M95.89,91.64c.05-.03.61.75,1.31,2.14.7,1.38,1.51,3.38,2.07,5.69.55,2.31.73,4.46.73,6.01,0,1.55-.14,2.5-.2,2.5-.17,0,.08-3.84-1.03-8.39-1.07-4.56-3.03-7.87-2.88-7.95Z"/>
        <path class="cls-9" d="M99.99,93.58c.07-.01.27.78.46,2.09.19,1.31.36,3.13.35,5.15,0,2.02-.18,3.85-.38,5.15-.2,1.31-.41,2.1-.47,2.09-.16-.02.33-3.24.34-7.24.02-4-.45-7.22-.29-7.24Z"/>
        <path class="cls-11" d="M99.21,88.78s-.43.11-1.13.26c-.7.14-1.66.37-2.7.67-1.04.31-1.97.64-2.63.9-.67.26-1.07.43-1.09.4-.01-.02.38-.24,1.03-.53.65-.29,1.58-.65,2.63-.96,1.05-.31,2.02-.51,2.73-.62.71-.11,1.15-.14,1.16-.11Z"/>
        <path class="cls-11" d="M93.85,84.19s-.48.09-1.26.24c-.78.14-1.84.39-2.98.78-1.14.39-2.13.85-2.83,1.22-.7.36-1.12.62-1.14.59,0-.01.09-.09.27-.22.18-.13.45-.3.8-.5.69-.4,1.68-.89,2.83-1.29,1.15-.4,2.23-.62,3.02-.73.39-.05.71-.09.94-.1.22-.01.35-.01.35,0Z"/>
        <path class="cls-11" d="M84.84,82.75c.02.06-1.17.46-2.59,1.03-.71.29-1.35.57-1.79.8-.45.23-.7.4-.72.38-.05-.06.99-.82,2.44-1.37.72-.29,1.38-.51,1.87-.66.49-.14.79-.21.8-.18Z"/>
        <path class="cls-11" d="M97.87,96.69c.01.05-.46.22-1.06.29-.61.07-1.1,0-1.1-.05,0-.06.49-.09,1.08-.16.59-.06,1.07-.14,1.09-.08Z"/>
        <path class="cls-11" d="M100.25,98.38c0,.06-.32.11-.71.13-.39.01-.71-.02-.72-.08s.32-.11.71-.13c.39-.01.71.02.72.08Z"/>
        <path class="cls-11" d="M102.21,96.35c0,.06-.41.06-.9.01-.49-.05-.88-.14-.88-.19s.41-.06.9-.01c.49.05.88.14.88.19Z"/>
        <g class="cls-15">
          <path class="cls-5" d="M99.78,108.47c.18-4.08-.43-8.19-1.79-12.04-.17-.49-.35-1.06-.07-1.5.38-.58,1.35-.43,1.79.11s.49,1.29.52,1.98c0-.45.25-.89.64-1.11,1.71,3.85,1.3,8.57-1.04,12.06"/>
        </g>
      </g>
      <g>
        <g>
          <g>
            <rect class="cls-9" x="27.7" y="35.76" width="30.24" height="14.75" rx="2.24" ry="2.24" transform="translate(-15.24 25.15) rotate(-27.99)"/>
            <path class="cls-11" d="M57.79,40.99l-.94-1.76c-.13-.24-.43-.32-.67-.19l-.32.17c-.25.13-.55.05-.67-.19l-1.82-3.43c-.13-.24-.03-.53.22-.66l.32-.17c.25-.13.34-.43.22-.66l-.33-.62-.82-1.54c-.41-.76-1.36-1.05-2.12-.65l-22.2,11.81c-.76.41-1.05,1.36-.65,2.12l4.81,9.06c.41.76,1.36,1.05,2.12.65l22.2-11.81c.76-.41,1.05-1.36.65-2.12Z"/>
          </g>
          <g>
            <path class="cls-9" d="M55.58,42.71s-.08,0-.1-.03c-.02-.04,0-.08.03-.1.04-.02.08,0,.1.03.02.04,0,.08-.03.1Z"/>
            <path class="cls-9" d="M55.34,42.83s-.08,0-.1-.03c-.02-.04,0-.08.03-.1.04-.02.08,0,.1.03.02.04,0,.08-.03.1Z"/>
            <path class="cls-9" d="M55.11,42.96s-.08,0-.1-.03c-.02-.04,0-.08.03-.1.04-.02.08,0,.1.03.02.04,0,.08-.03.1Z"/>
          </g>
        </g>
        <g>
          <path class="cls-9" d="M52.54,41.51l-.05-.09h-.05s-.03-.04-.03-.04l.25-.02.02.05-.15.2-.03-.05.03-.04ZM52.57,41.48l.06-.07h-.09s.03.07.03.07Z"/>
          <path class="cls-9" d="M52.74,41.51l.05.09c.03.06.02.13-.04.16-.06.03-.12,0-.16-.06l-.05-.09.2-.11ZM52.63,41.69s.06.05.1.03c.04-.02.05-.06.03-.1l-.02-.04-.12.07.02.04Z"/>
          <path class="cls-9" d="M52.87,41.75l.05.09c.03.06.02.13-.04.16-.06.03-.12,0-.16-.06l-.05-.09.2-.11ZM52.75,41.92s.06.05.1.03c.04-.02.05-.06.03-.1l-.02-.04-.12.07.02.04Z"/>
          <path class="cls-9" d="M52.93,42.35l.12-.06h-.13s-.01-.03-.01-.03l.06-.11-.12.06-.02-.04.2-.11.02.04-.08.14h.16s.02.04.02.04l-.2.11-.02-.04Z"/>
          <path class="cls-9" d="M53.07,42.37c.06-.03.13,0,.16.05.03.06.01.13-.04.16-.06.03-.13,0-.16-.05-.03-.06-.01-.13.04-.16ZM53.17,42.54s.05-.06.03-.1c-.02-.04-.06-.05-.1-.03-.04.02-.05.06-.03.1.02.04.06.05.1.03Z"/>
          <path class="cls-9" d="M53.18,42.8l.03-.07h0s-.02-.04-.02-.04l-.06.03-.02-.05.2-.11.05.09c.03.05.02.1-.03.12-.03.02-.06.01-.08,0l-.04.08-.03-.05ZM53.32,42.67l-.02-.04-.07.04.02.04s.04.04.06.02c.02-.01.03-.03.01-.06Z"/>
          <path class="cls-9" d="M53.34,43.02l-.04.02-.08-.15.2-.11.08.15-.04.02-.06-.1-.04.02.05.09-.04.02-.05-.09-.05.02.06.11Z"/>
          <path class="cls-9" d="M53.47,43.15l-.03-.05-.05.03-.02-.04.05-.03-.03-.05.03-.02.03.05.05-.03.02.04-.05.03.03.05-.03.02Z"/>
        </g>
        <g>
          <path class="cls-9" d="M50.03,33.05c.14-.07.29-.02.37.12.04.08.05.16.02.23l-.1-.03s.02-.1,0-.14c-.05-.08-.14-.11-.22-.07-.09.05-.11.14-.07.22.02.05.06.07.11.08l-.03.1c-.08-.01-.14-.06-.18-.14-.08-.14-.03-.3.1-.37Z"/>
          <path class="cls-9" d="M50.43,33.86l-.2.11-.05-.09.04-.02s-.08-.03-.11-.08c-.04-.08-.02-.15.04-.19.06-.03.13-.01.18.09l.04.08s.05-.06.03-.12c-.02-.04-.05-.07-.09-.08l.05-.07s.09.07.12.13c.06.11.04.19-.06.25ZM50.28,33.81l.04-.02-.04-.07s-.05-.05-.07-.04c-.03.01-.03.04-.01.08.02.03.05.05.09.05Z"/>
          <path class="cls-9" d="M50.75,34.09l-.09.05s0-.02-.01-.02c-.03-.06-.08-.08-.15-.04l-.16.09-.05-.1.35-.19.05.1-.05.02s.09.04.12.09Z"/>
          <path class="cls-9" d="M51.09,34.43l-.48.26-.05-.1.04-.02s-.08-.04-.1-.08c-.05-.1-.02-.21.09-.27.11-.06.22-.02.27.08.02.04.03.09.01.13l.17-.09.05.1ZM50.73,34.49c.06-.03.08-.09.05-.14-.03-.05-.08-.07-.14-.04-.06.03-.08.09-.05.14.03.05.08.07.14.04Z"/>
          <path class="cls-9" d="M50.68,34.73h.09s0,.09.03.13c.02.05.05.06.07.05.06-.03-.11-.21.02-.28.07-.04.14,0,.2.1.03.05.04.11.04.15h-.09s-.01-.08-.03-.11c-.02-.05-.05-.06-.07-.05-.06.03.11.21-.03.28-.06.03-.14,0-.2-.1-.03-.06-.05-.13-.04-.17Z"/>
        </g>
        <g>
          <path class="cls-9" d="M37.56,44.91l-.06-.12.09-.05.18.34-.09.05-.06-.12-.3.16-.06-.11.3-.16Z"/>
          <path class="cls-9" d="M37.58,45.21c.11-.06.25-.02.31.11.07.12.03.26-.08.32s-.25.02-.31-.11c-.07-.12-.03-.26.08-.32ZM37.75,45.52c.07-.04.08-.1.05-.16-.03-.06-.1-.08-.16-.04-.07.04-.08.1-.05.16.03.06.1.08.16.04Z"/>
          <path class="cls-9" d="M37.98,45.71l-.06-.12.09-.05.18.34-.09.05-.06-.12-.3.16-.06-.11.3-.16Z"/>
          <path class="cls-9" d="M38.03,46.33l-.09-.16h-.09s-.06-.1-.06-.1l.47-.04.06.11-.29.37-.06-.11.06-.07ZM38.09,46.26l.1-.11-.15.02.05.1Z"/>
          <path class="cls-9" d="M38.43,46.34l.06.11-.3.16.1.18-.09.05-.16-.29.38-.2Z"/>
        </g>
        <g>
          <path class="cls-9" d="M35.32,44.99l-.12.06-.03-.05.12-.06c-.05-.1-.06-.22-.04-.3h.07c-.02.07-.01.17.03.26l.27-.15c-.03-.13-.06-.26.08-.33.1-.05.22-.03.32.12l.12-.06.03.05-.12.06c.04.08.06.17.05.24h-.07c0-.07,0-.15-.04-.21l-.27.15c.03.13.07.27-.07.34-.1.05-.23.02-.32-.13ZM35.7,44.72l.26-.14c-.07-.1-.15-.12-.21-.08-.08.04-.07.13-.05.22ZM35.6,45.05c.08-.04.07-.13.04-.23l-.26.14c.07.11.15.13.21.1Z"/>
          <path class="cls-9" d="M36.48,45.41l-.72.39-.04-.07.65-.35-.09-.17.07-.04.13.24Z"/>
          <path class="cls-9" d="M36.35,46.41c-.13.07-.26,0-.36-.17-.09-.17-.07-.32.06-.39.09-.05.17-.03.25.04-.01-.09.02-.16.1-.2.12-.06.24,0,.33.15s.06.29-.05.36c-.07.04-.15.03-.22-.03.02.11-.02.19-.1.24ZM36.31,46.33c.09-.05.1-.15.03-.28-.07-.13-.16-.17-.25-.12-.09.05-.1.15-.04.28.07.13.16.17.25.13ZM36.41,46.02c.06.11.15.15.22.11.08-.04.09-.14.03-.25-.06-.11-.14-.15-.22-.11-.08.04-.09.14-.03.25Z"/>
          <path class="cls-9" d="M36.57,46.43c.23-.12.43-.08.52.09.09.17.02.36-.21.48-.23.12-.43.08-.52-.09-.09-.17-.02-.36.21-.48ZM36.83,46.92c.19-.1.25-.25.18-.37-.07-.13-.22-.15-.41-.05-.19.1-.25.25-.18.37.07.13.22.15.41.05Z"/>
          <path class="cls-9" d="M36.68,47.37s-.03.01-.07.02l-.16.03-.03-.05.17-.05s0-.05.03-.07c.03-.02.07,0,.08.02.02.03,0,.07-.03.08Z"/>
          <path class="cls-9" d="M37.02,47.97l-.07.04-.27-.5.05-.03.45.14c.12.04.18.03.23,0,.08-.04.1-.13.04-.24-.05-.08-.11-.14-.19-.15l.02-.08c.1.02.18.09.24.2.08.15.05.28-.07.34-.07.04-.14.05-.29,0l-.37-.12.21.4Z"/>
          <path class="cls-9" d="M37.36,47.9c.23-.12.43-.08.52.09.09.17.02.36-.21.48s-.43.08-.52-.09c-.09-.17-.02-.36.21-.48ZM37.63,48.4c.19-.1.25-.25.18-.37-.07-.13-.22-.15-.41-.05s-.25.25-.18.37c.07.13.22.15.41.05Z"/>
        </g>
        <g>
          <g>
            <rect class="cls-3" x="28.89" y="46.91" width="10.45" height="2.74" rx="1.26" ry="1.26" transform="translate(60.49 -4.63) rotate(61.74)"/>
            <g class="cls-15">
              <rect class="cls-5" x="28.89" y="46.91" width="10.45" height="2.74" rx="1.26" ry="1.26" transform="translate(60.49 -4.63) rotate(61.74)"/>
            </g>
          </g>
          <rect class="cls-3" x="28.7" y="46.55" width="10.45" height="2.74" rx="1.26" ry="1.26" transform="translate(60.08 -4.65) rotate(61.74)"/>
          <g>
            <path class="cls-12" d="M33.91,47.57c-.12.07-.25.02-.33-.13l-.08-.14-.17.09-.04-.08.57-.31.12.22c.08.15.05.28-.07.35ZM33.87,47.49c.08-.04.1-.12.04-.23l-.07-.14-.26.14.07.14c.06.1.13.13.21.09Z"/>
            <path class="cls-12" d="M33.93,48.15l-.16-.3h-.18s-.05-.07-.05-.07l.71-.05.04.08-.43.57-.05-.09.11-.14ZM33.98,48.09l.21-.27-.35.03.13.25Z"/>
            <path class="cls-12" d="M34.21,48.54l-.2.11-.04-.08.2-.11.25-.43.05.09-.2.34.4.02.04.08-.5-.03Z"/>
          </g>
        </g>
        <g>
          <path class="cls-1" d="M39.73,46.41s.02.05.09.12c.06.07.19.16.37.17.09,0,.19,0,.29-.06.1-.05.2-.11.32-.17.23-.12.49-.27.78-.42.29-.16.6-.33.94-.51.08-.05.17-.09.26-.14.09-.04.16-.11.22-.19.11-.16.13-.4.03-.58-.41-.76-.87-1.6-1.34-2.48-.11-.21-.37-.33-.6-.27-.06.01-.11.04-.16.06-.05.03-.11.06-.16.09-.11.06-.21.11-.31.17-.41.22-.81.44-1.2.65-.19.1-.38.2-.56.3-.09.05-.17.1-.23.18-.06.08-.1.17-.11.26-.01.09,0,.19.03.27.03.08.08.16.12.24.08.16.17.31.24.45.31.58.56,1.04.73,1.37.08.16.15.29.2.37.02.04.04.07.05.1.01.02.02.03.02.03,0,0,0-.01-.02-.03-.01-.02-.03-.05-.05-.1-.05-.09-.12-.21-.2-.37-.18-.32-.43-.79-.75-1.36-.08-.14-.16-.29-.25-.45-.04-.08-.09-.16-.13-.25-.03-.09-.05-.19-.03-.29.01-.1.05-.19.12-.28.06-.08.15-.14.24-.19.18-.1.37-.2.56-.3.38-.21.78-.42,1.19-.65.1-.06.21-.11.31-.17.05-.03.11-.06.16-.09.05-.03.11-.06.17-.07.25-.06.53.06.65.3.48.88.93,1.72,1.34,2.48.11.2.09.45-.03.62-.06.09-.14.16-.23.2-.09.05-.17.09-.26.14-.34.18-.65.35-.94.51-.29.15-.55.3-.78.42-.12.06-.22.12-.32.17-.1.05-.21.06-.3.06-.19-.02-.31-.11-.37-.18-.06-.07-.08-.12-.08-.12Z"/>
          <g>
            <g>
              <path class="cls-1" d="M40.53,45.13s0,0-.01-.02c0-.02-.02-.04-.04-.07-.03-.06-.08-.14-.14-.25-.12-.21-.28-.51-.46-.84h0s0-.01,0-.01c.04-.03.08-.06.13-.1.38-.28.71-.52.93-.69h0c-.05-.09-.09-.16-.12-.22-.01-.03-.02-.05-.03-.06,0-.01-.01-.02,0-.02,0,0,0,0,.01.02,0,.01.02.03.03.06.03.05.07.13.12.22h0s0,0,0,0c-.22.16-.55.41-.93.69-.04.03-.09.06-.13.1h0c.18.32.34.61.45.83.06.11.1.19.13.25.01.03.03.05.04.07,0,.02.01.02.01.02Z"/>
              <path class="cls-1" d="M40.12,43.78s0,0,0,0c0,0,0,.01.01.02,0,.02.02.04.04.07.03.06.08.14.14.25.12.22.28.52.48.87h-.01c.16-.06.33-.12.51-.18.09-.03.18-.06.27-.09h0c-.22-.4-.42-.76-.56-1.01-.07-.13-.12-.23-.16-.31-.02-.04-.03-.06-.04-.08,0,0,0-.02-.01-.02,0,0,0,0,0,0,0,0,0,0,0,0,0,0,0,.01.01.02.01.02.03.05.05.08.04.07.1.17.17.3.14.26.34.62.56,1.02h0s-.01.01-.01.01c-.09.03-.18.06-.27.09-.18.06-.35.12-.51.17h0s0,0,0,0c-.19-.35-.35-.65-.47-.87-.06-.11-.1-.19-.14-.25-.01-.03-.03-.05-.04-.07,0,0,0-.01,0-.02,0,0,0,0,0,0Z"/>
              <path class="cls-1" d="M39.73,44.42s0,0,.02-.02c.01-.01.03-.04.04-.08,0-.04,0-.08-.04-.11-.04-.03-.09-.04-.14-.02-.05.03-.07.08-.06.13,0,.05.04.08.07.1.03.02.06.01.08,0,.02,0,.03-.01.03,0,0,0,0,0-.03.02-.02,0-.05.01-.09,0-.04-.01-.07-.05-.08-.11,0-.05.02-.12.07-.15.06-.03.12-.02.16.02.04.04.05.09.04.13,0,.04-.03.07-.05.08-.02.01-.03.02-.03.02Z"/>
              <path class="cls-1" d="M40.15,45.18s0,0,.02-.02c.01-.01.03-.04.04-.08,0-.04,0-.08-.04-.11-.03-.03-.09-.04-.14-.02-.05.03-.07.08-.06.13,0,.05.04.08.07.1.03.02.06.01.08,0,.02,0,.03-.01.03,0,0,0,0,0-.03.02-.02,0-.05.01-.09,0-.04-.01-.07-.05-.08-.11,0-.05.02-.12.07-.15.06-.03.12-.02.16.02.04.04.05.09.04.13,0,.04-.03.07-.05.08-.02.01-.03.02-.03.02Z"/>
              <path class="cls-1" d="M41.83,44.94c-.19.1-.42.03-.52-.15-.1-.19-.03-.42.15-.52.19-.1.42-.03.52.15.1.19.03.42-.15.52Z"/>
            </g>
            <path class="cls-12" d="M41.8,44.58l-.26.14-.03-.06.21-.11-.03-.05.05-.03.06.11Z"/>
          </g>
        </g>
        <g>
          <g>
            <rect class="cls-3" x="41.61" y="37.39" width="10.93" height="6.94" rx="1.6" ry="1.6" transform="translate(60.78 -19.95) rotate(61.74)"/>
            <g>
              <path class="cls-12" d="M47,36.73c-.08.04-.16,0-.22-.11l-.13-.23.45-.24.12.22c.06.11.04.2-.03.23-.05.02-.09.02-.13,0,.01.06-.01.11-.07.14ZM47.08,36.29l-.11.06.06.1c.03.05.06.07.1.05s.04-.06.01-.11l-.06-.1ZM46.95,36.62s.04-.06.01-.11l-.07-.12-.11.06.07.12c.03.05.06.07.1.05Z"/>
              <path class="cls-12" d="M47.18,37.13l-.11-.21h-.12s-.06-.1-.06-.1l.56-.04.06.1-.34.44-.06-.11.08-.09ZM47.24,37.05l.13-.16-.21.02.08.14Z"/>
              <path class="cls-12" d="M47.86,37.55l-.45.24-.05-.09.15-.37-.27.15-.06-.1.45-.24.05.09-.15.37.27-.15.06.1Z"/>
              <path class="cls-12" d="M47.73,37.97l-.1-.03-.11.06-.06-.1.45-.24.06.1-.21.11.32.09.06.12-.3-.08-.14.33-.07-.12.1-.24Z"/>
            </g>
            <g>
              <path class="cls-12" d="M45.07,37.66l-.04-.08-.11.06-.02-.04.11-.06-.13-.23.03-.02.39.07.03.05-.38-.07.1.18.1-.05.02.04-.1.05.04.08-.04.02Z"/>
              <path class="cls-12" d="M45.25,37.96c-.07.04-.15.02-.2-.08-.03-.06-.04-.13-.03-.18h.04s0,.1.02.16c.04.07.09.09.14.06.05-.03.06-.08.02-.16l-.02-.03.03-.02.21.04-.11-.21.04-.02.14.27-.03.02-.21-.04c.04.09.02.16-.05.2Z"/>
              <path class="cls-12" d="M45.43,38.29c-.07.04-.15.02-.21-.08-.03-.06-.04-.13-.03-.18h.04s0,.1.02.16c.04.07.09.09.14.06.05-.03.07-.08.01-.18l-.05-.09.22-.09.12.23-.04.02-.1-.19-.14.06.03.05c.07.12.04.2-.03.24Z"/>
              <path class="cls-12" d="M45.63,38.66c-.08.04-.16,0-.2-.07-.06-.11-.01-.21.12-.28.14-.08.26-.04.32.07.02.04.03.08.03.11h-.04s0-.06-.02-.09c-.05-.09-.14-.12-.25-.06,0,0-.02.01-.03.02.06,0,.11.03.14.09.04.08.03.17-.05.21ZM45.61,38.62c.05-.03.07-.09.03-.15-.03-.06-.1-.09-.15-.06-.05.02-.07.09-.03.16.03.06.09.08.14.05Z"/>
              <path class="cls-12" d="M45.99,39.62l.08-.17-.18-.03-.03-.05.23.04.09-.2.03.05-.07.16.17.03.02.05-.21-.04-.09.21-.03-.05Z"/>
              <path class="cls-12" d="M46.16,39.94l.08-.17-.18-.03-.03-.05.23.04.09-.2.03.05-.07.16.17.03.02.05-.21-.04-.09.21-.03-.05Z"/>
              <path class="cls-12" d="M46.33,40.25l.08-.17-.18-.03-.03-.05.23.04.09-.2.03.05-.07.16.17.03.02.05-.21-.04-.09.21-.03-.05Z"/>
              <path class="cls-12" d="M46.5,40.57l.08-.17-.18-.03-.03-.05.23.04.09-.2.03.05-.07.16.17.03.02.05-.21-.04-.09.21-.03-.05Z"/>
              <path class="cls-12" d="M47.09,41.66l.08-.17-.18-.03-.03-.05.23.04.09-.2.03.05-.07.16.17.03.02.05-.21-.04-.09.21-.03-.05Z"/>
              <path class="cls-12" d="M47.26,41.98l.08-.17-.18-.03-.03-.05.23.04.09-.2.03.05-.07.16.17.03.02.05-.21-.04-.09.21-.03-.05Z"/>
              <path class="cls-12" d="M47.43,42.3l.08-.17-.18-.03-.03-.05.23.04.09-.2.03.05-.07.16.17.03.02.05-.21-.04-.09.21-.03-.05Z"/>
              <path class="cls-12" d="M47.6,42.61l.08-.17-.18-.03-.03-.05.23.04.09-.2.03.05-.07.16.17.03.02.05-.21-.04-.09.21-.03-.05Z"/>
              <path class="cls-12" d="M48.54,43.37l-.41.22-.02-.04.38-.2-.05-.1.04-.02.08.14Z"/>
              <path class="cls-12" d="M48.44,43.9c-.07.04-.15.02-.2-.08-.03-.06-.04-.13-.03-.18h.04s0,.1.02.16c.04.07.09.09.14.06.05-.03.06-.08.02-.16l-.02-.03.03-.02.21.04-.11-.21.04-.02.14.27-.03.02-.21-.04c.04.09.02.16-.05.2Z"/>
              <path class="cls-12" d="M48.66,44.32l-.04-.08-.11.06-.02-.04.11-.06-.13-.23.03-.02.39.07.03.05-.38-.07.1.18.1-.05.02.04-.1.05.04.08-.04.02Z"/>
              <path class="cls-12" d="M48.76,44.68l-.04.02-.16-.29.03-.02.26.08c.07.02.1.02.13,0,.05-.03.06-.08.03-.14-.03-.05-.06-.08-.11-.09v-.04c.06.01.11.05.15.12.05.08.03.16-.04.2-.04.02-.08.03-.17,0l-.21-.07.12.23Z"/>
            </g>
            <g>
              <path class="cls-12" d="M43.8,37.61c.06-.03.13,0,.16.05.02.03.02.07,0,.1h-.04s0-.06,0-.08c-.02-.04-.06-.05-.1-.03-.04.02-.05.06-.03.1.01.02.03.03.05.04v.04s-.07-.03-.09-.06c-.03-.06-.01-.13.04-.16Z"/>
              <path class="cls-12" d="M43.93,37.99l-.05-.09h-.05s-.03-.04-.03-.04l.25-.02.02.05-.15.2-.03-.05.03-.04ZM43.95,37.95l.06-.07h-.09s.03.07.03.07Z"/>
              <path class="cls-12" d="M44,38.22l.03-.07h0s-.02-.04-.02-.04l-.06.03-.02-.05.2-.11.05.09c.03.05.02.1-.03.12-.03.02-.06.01-.08,0l-.04.08-.03-.05ZM44.14,38.09l-.02-.04-.07.04.02.04s.04.04.06.02c.02-.01.03-.03.01-.06Z"/>
              <path class="cls-12" d="M44.05,38.28h.04s0,.05.01.07c.01.03.03.03.04.03.04-.02-.05-.12.02-.16.03-.02.08,0,.11.05.01.02.02.05.02.08h-.04s0-.04-.01-.06c-.01-.03-.03-.03-.04-.03-.04.02.05.12-.02.16-.03.02-.08,0-.11-.05-.02-.03-.02-.07-.02-.09Z"/>
              <path class="cls-12" d="M44.48,38.64l-.2.11-.02-.05.08-.04-.05-.09-.08.04-.02-.05.2-.11.02.05-.08.04.05.09.08-.04.02.05Z"/>
              <path class="cls-12" d="M44.4,38.73c.06-.03.13,0,.16.05.03.06.02.13-.04.16-.06.03-.13,0-.16-.05-.03-.06-.01-.13.04-.16ZM44.49,38.9s.05-.06.03-.1c-.02-.04-.06-.05-.1-.03-.04.02-.05.06-.03.1.02.04.06.05.1.03Z"/>
              <path class="cls-12" d="M44.63,38.93l.02.05-.16.09.05.1-.04.02-.08-.15.2-.11Z"/>
              <path class="cls-12" d="M44.72,39.1l.05.09c.03.06.02.13-.04.16-.06.03-.12,0-.16-.06l-.05-.09.2-.11ZM44.61,39.27s.06.05.1.03c.04-.02.05-.06.03-.1l-.02-.04-.12.07.02.04Z"/>
              <path class="cls-12" d="M44.77,39.57l-.04.02-.08-.15.2-.11.08.15-.04.02-.06-.1-.04.02.05.09-.04.02-.05-.09-.05.02.06.11Z"/>
              <path class="cls-12" d="M44.82,39.75l.03-.07h0s-.02-.04-.02-.04l-.06.03-.02-.05.2-.11.05.09c.03.05.02.1-.03.12-.03.02-.06.01-.08,0l-.04.08-.03-.05ZM44.96,39.62l-.02-.04-.07.04.02.04s.04.04.06.02c.02-.01.03-.03.01-.06Z"/>
            </g>
            <g>
              <path class="cls-12" d="M43.01,38.01l.09.02s-.02.07,0,.09c.02.04.05.04.09.02l.18-.1-.07-.13.07-.04.12.22-.25.13c-.09.05-.17.03-.21-.06-.03-.05-.03-.11-.01-.15Z"/>
              <path class="cls-12" d="M43.18,38.32s.06,0,.08.02c.02.03,0,.06-.02.08-.03.02-.07,0-.08-.02-.02-.03,0-.06.02-.08Z"/>
              <path class="cls-12" d="M43.9,38.87l-.45.08-.05-.09.21-.22-.3.05-.05-.09.31-.33.05.09-.22.23.32-.05.04.08-.22.23.32-.06.05.08Z"/>
              <path class="cls-12" d="M43.92,38.91s.06,0,.08.03c.02.03,0,.06-.02.08-.03.02-.06,0-.08-.03-.02-.03,0-.06.02-.08ZM43.84,38.97l.05.09-.29.16-.05-.09.29-.16Z"/>
              <path class="cls-12" d="M44.04,39.07l.05.09-.4.22-.05-.08.4-.22Z"/>
              <path class="cls-12" d="M44.13,39.23l.05.08-.4.22-.05-.08.4-.22Z"/>
              <path class="cls-12" d="M44.19,39.4s.06,0,.08.03c.02.03,0,.06-.02.08-.03.02-.06,0-.08-.03-.02-.03,0-.06.02-.08ZM44.11,39.46l.05.09-.29.16-.05-.09.29-.16Z"/>
              <path class="cls-12" d="M44.21,39.95l-.17.09-.04-.08.04-.02s-.07-.02-.09-.07c-.04-.07-.02-.13.03-.16.05-.03.11-.01.16.08l.04.07s.05-.05.02-.1c-.02-.03-.04-.06-.07-.07l.04-.06s.08.06.1.11c.05.09.03.16-.05.21ZM44.09,39.9l.03-.02-.03-.06s-.04-.04-.06-.03c-.02.01-.03.04,0,.07.02.03.04.05.07.04Z"/>
              <path class="cls-12" d="M44.52,40.52l-.17.09-.05-.09.15-.08s.06-.06.04-.09c-.02-.04-.06-.05-.11-.02l-.15.08-.05-.09.15-.08s.06-.06.04-.09c-.02-.04-.06-.05-.11-.02l-.15.08-.05-.09.29-.16.04.08-.03.02s.07.03.09.07c.02.04.02.08,0,.12.04,0,.08.04.1.08.04.07.02.14-.07.19Z"/>
              <path class="cls-12" d="M44.4,40.64h.08s0,.08.03.11c.02.04.04.05.06.04.05-.03-.1-.18.02-.24.06-.03.12,0,.17.08.02.04.04.09.03.13h-.08s0-.07-.02-.09c-.02-.04-.04-.05-.06-.04-.05.03.09.18-.02.24-.05.03-.12,0-.17-.09-.03-.05-.04-.11-.04-.14Z"/>
            </g>
            <g>
              <path class="cls-12" d="M46.39,43.98c.13-.07.23-.04.28.06.05.09.02.2-.11.27s-.23.04-.28-.06c-.05-.09-.02-.2.11-.27ZM46.52,44.22c.09-.05.11-.1.08-.14-.02-.04-.08-.05-.16,0-.09.05-.11.1-.08.14.02.04.08.06.16,0Z"/>
              <path class="cls-12" d="M46.69,44.7c-.08.04-.16,0-.2-.08-.06-.11-.03-.21.1-.27.13-.07.25-.03.31.08.02.04.03.08.03.12h-.08s0-.05-.02-.08c-.03-.06-.09-.08-.17-.05.03.01.06.04.08.08.04.07.02.16-.05.2ZM46.64,44.62s.04-.06.02-.1c-.02-.04-.06-.05-.09-.04-.03.02-.04.06-.02.1.02.04.06.05.09.03Z"/>
              <path class="cls-12" d="M47.12,44.7l.04.08-.61.1-.04-.08.61-.1Z"/>
              <path class="cls-12" d="M46.93,45.26l-.07.04-.15-.29.06-.03.22.07c.05.02.07.01.09,0,.03-.02.04-.05.01-.09-.02-.03-.04-.05-.08-.06v-.09c.07,0,.12.04.16.11.05.08.03.17-.04.2-.04.02-.08.03-.15,0l-.13-.04.09.16Z"/>
              <path class="cls-12" d="M47.14,45.64l-.03-.06-.08.04-.05-.09.08-.04-.11-.21.06-.03.34.05.05.09-.32-.04.06.1.07-.04.04.08-.07.04.03.06-.07.04Z"/>
            </g>
            <g class="cls-14">
              <path class="cls-12" d="M49.58,42.27c.24-.22.27-.59.1-.86-.05-.09-.12-.16-.2-.22-.2-.15-.5-.16-.68.01-.14.14-.16.37-.14.57.02.21.08.44.25.56.16.12.4.11.58.01.03-.02.07-.04.1-.07Z"/>
            </g>
          </g>
          <g class="cls-14">
            <path class="cls-12" d="M52.55,43.71l-4.83-8.99c-.09-.18-.31-.24-.49-.15l-1.61.87c-.09.78.26,1.6.78,2.21.61.72,1.42,1.24,2.17,1.82.75.58,1.47,1.26,1.77,2.16.28.85.16,1.77.18,2.66,0,.29.04.59.1.88l1.79-.96c.18-.09.24-.31.15-.49Z"/>
          </g>
        </g>
      </g>
      <g>
        <path class="cls-2" d="M42.88,57.78l4.06-3.28c1.78-1.43,2.93-3.5,3.22-5.76l.22-1.73-12.2-2.47s-1.14,3.69,3.45,4.61c-4.07,1.76-5.59,5.44-6.7,9.44l7.95-.81Z"/>
        <path class="cls-6" d="M37.85,52.26c.06.03.32-.5,1.06-1.18.72-.66,2.01-1.48,3.73-1.5l1.31-.02-1.23-.45c-.88-.32-1.83-.68-2.84-1.05l.06.03c-1.03-.64-1.94-1.81-1.77-3.16.01-.1.04-.22.06-.29l-.34.19c3.42.84,6.52,1.56,8.78,1.95,1.13.2,2.05.33,2.69.4.64.07.99.09,1,.05.01-.08-1.37-.35-3.61-.84-2.24-.49-5.3-1.26-8.73-2.11l-.27-.07-.08.26c-.04.14-.06.26-.08.4-.1.8.11,1.6.52,2.23.4.64.96,1.1,1.52,1.47l.03.02h.03c1.01.36,1.98.69,2.86,1l.08-.47c-1.88.08-3.22,1.04-3.92,1.79-.71.78-.89,1.37-.86,1.38Z"/>
      </g>
    </g>
  </g>
  <g id="Plant">
    <g>
      <g>
        <g>
          <path class="cls-3" d="M383.42,341.91c2.59-12.87-2.39-26.97-12.48-35.36,0,0-2.9-1.06-2.65,2.18.15,1.95-1.72,4.68-3.26,3.49-2.69-2.07-1.84-6.29-3-9.48-1.35-3.74-5.33-5.73-8.97-7.32-6.72-2.94-13.55-5.8-20.77-7.1-7.22-1.31-14.93-.97-21.51,2.27,1.6,3.21,3.19,6.43,4.79,9.64.29.58.59,1.18,1.1,1.59.86.69,2.08.64,3.18.56,2.91-.21,5.83-.43,8.74-.64,1.27-.09,2.91.05,3.28,1.27.41,1.37-1.23,2.4-2.58,2.88-3.06,1.1-6.11,2.2-9.17,3.29,2.89,4.48,7.34,7.78,12.13,10.11,4.8,2.32,9.97,3.75,15.11,5.17,1.64.45,3.4.9,5.02.38,2.67-.86,4.52-4.2,7.3-3.79-.29,3.06-1.88,5.98-4.3,7.89,10.81,4.24,18.34,9.43,28.04,12.97"/>
          <path class="cls-9" d="M392.7,389.91s-.04-.09-.08-.28c-.05-.22-.11-.49-.19-.83-.16-.77-.38-1.83-.67-3.19-.57-2.81-1.37-6.82-2.36-11.75-.49-2.49-1.03-5.2-1.61-8.12-.29-1.46-.58-2.97-.89-4.52-.15-.78-.31-1.57-.46-2.37-.12-.81-.23-1.63-.35-2.45-1.01-6.58-2.2-13.92-5.4-20.92-3.25-6.99-8.45-12.4-13.39-16.82-5.01-4.41-9.99-7.81-14.25-10.53-4.26-2.72-7.81-4.77-10.24-6.21-1.19-.7-2.13-1.26-2.81-1.66-.3-.18-.54-.33-.72-.44-.16-.1-.24-.16-.24-.17,0,0,.09.03.26.12.19.1.44.23.75.4.69.38,1.64.9,2.85,1.57,2.47,1.39,6.04,3.39,10.33,6.07,4.29,2.68,9.31,6.07,14.37,10.48,2.52,2.21,5.04,4.69,7.41,7.48,2.38,2.78,4.48,5.98,6.14,9.49,3.25,7.09,4.42,14.48,5.41,21.07.11.83.23,1.64.34,2.45.15.8.3,1.59.45,2.37.3,1.56.58,3.07.86,4.53.55,2.92,1.07,5.64,1.54,8.13.92,4.94,1.67,8.96,2.2,11.78.24,1.36.43,2.44.57,3.21.06.34.1.62.14.84.03.19.04.29.03.29Z"/>
        </g>
        <g>
          <path class="cls-3" d="M409.65,268.76c-2.35,3.47-8.95,1.79-9.36-2.38-.41-4.17,5.74-7.1,8.72-4.16,1.04-12.2-.21-24.6-3.68-36.34-.84,2.36-1.73,4.79-3.42,6.64s-4.41,3-6.76,2.11c-3.17-1.19-4.11-5.54-2.79-8.66s4.18-5.28,6.91-7.29c-4.31-8.21-12.18-14.48-21.14-16.86-3.52,5.69-7.09,11.51-8.67,18.01-1.58,6.5-.87,13.93,3.47,19.02,1.85,2.17,4.29,3.86,5.72,6.32,1.43,2.46,1.34,6.22-1.19,7.55-2.96,1.56-6.31-1.37-7.99-4.27-1.68-2.9-3.4-6.46-6.71-6.97-2.01,23.08,9.95,46.83,29.69,58.96l-.34-.32c7.82-9.16,13.82-19.88,17.54-31.34ZM394.45,243.2c2-1.85,3.6-2.58,6.15-3.52.89-.4,2.01-.04,2.64.7.63.74.82,1.8.67,2.76-.15.97-.62,1.85-1.17,2.66-.9,1.32-2.09,2.48-3.55,3.13s-3.21.74-4.64.01c-1-.51-1.83-1.48-1.87-2.6-.04-1.24.85-2.3,1.76-3.14Z"/>
          <path class="cls-9" d="M397.05,389.91s-.02-.12-.03-.36c-.01-.27-.03-.62-.05-1.07-.04-.97-.09-2.35-.15-4.1-.14-3.59-.35-8.74-.6-15.09-.56-12.74-1.46-30.33-2.89-49.73-1.41-19.41-3.09-36.94-4.49-49.61-.67-6.34-1.3-11.46-1.73-15-.2-1.75-.36-3.12-.47-4.08-.05-.45-.08-.8-.11-1.06-.02-.24-.03-.36-.02-.36s.03.12.07.36c.04.26.09.61.16,1.06.13.96.32,2.32.57,4.07.49,3.53,1.17,8.65,1.89,14.98,1.49,12.67,3.23,30.2,4.64,49.62,1.43,19.41,2.27,37.01,2.74,49.75.23,6.37.37,11.53.44,15.1.02,1.76.04,3.14.06,4.11,0,.45,0,.8,0,1.07,0,.24-.01.36-.02.36Z"/>
        </g>
        <g>
          <polygon class="cls-7" points="359.71 368.46 369.02 407.95 417.81 407.95 428.13 368.46 359.71 368.46"/>
          <path class="cls-7" d="M375.05,399.65c0,.75,3.77,23.39,3.77,23.39h29.68l3.27-23.39h-36.72Z"/>
          <path class="cls-9" d="M416.46,407.76c0,.14-10.65.26-23.78.26s-23.78-.12-23.78-.26,10.65-.26,23.78-.26,23.78.12,23.78.26Z"/>
        </g>
      </g>
      <path class="cls-9" d="M421.54,391.85c0,.14-12.56.26-28.05.26s-28.05-.12-28.05-.26,12.56-.26,28.05-.26,28.05.12,28.05.26Z"/>
      <path class="cls-9" d="M419.34,397.35c0,.14-11.82.26-26.4.26s-26.4-.12-26.4-.26,11.82-.26,26.4-.26,26.4.12,26.4.26Z"/>
      <path class="cls-9" d="M419.18,402.84c0,.14-11.4.26-25.45.26s-25.46-.12-25.46-.26,11.39-.26,25.46-.26,25.45.12,25.45.26Z"/>
      <path class="cls-9" d="M422.95,386.5c0,.14-13.12.26-29.3.26s-29.3-.12-29.3-.26,13.12-.26,29.3-.26,29.3.12,29.3.26Z"/>
      <path class="cls-9" d="M423.9,382.1c0,.14-13.37.26-29.85.26s-29.85-.12-29.85-.26,13.36-.26,29.85-.26,29.85.12,29.85.26Z"/>
    </g>
  </g>
  <g id="Speech_Bubble" data-name="Speech Bubble">
    <g>
      <path class="cls-9" d="M97.95.24s.19-.03.56-.06c.4-.03.95-.07,1.66-.12.37-.02.78-.07,1.23-.06.45.02.95.04,1.48.06.54.03,1.12.02,1.73.09.61.09,1.27.18,1.96.28,2.74.47,6.1,1.31,9.62,3.17,3.52,1.82,7.21,4.62,10.3,8.57.38.5.77,1,1.16,1.51.35.53.69,1.09,1.04,1.64.74,1.08,1.27,2.32,1.89,3.54,1.06,2.51,2,5.22,2.39,8.15.3,1.45.31,2.95.41,4.47.03.76-.05,1.53-.07,2.3l-.05,1.16c-.04.39-.11.77-.16,1.16-.34,3.12-1.3,6.25-2.67,9.26-2.7,6.06-7.66,11.44-14,14.88-3.16,1.74-6.72,2.86-10.4,3.41-3.67.63-7.52.48-11.26-.29-.48-.1-.96-.21-1.44-.33l.2-.03c-5.07,3.16-10.04,6.26-14.85,9.26l-.52.32.13-.6c1.15-5.14,2.27-10.12,3.34-14.9l.09.25c-4.39-3.41-7.72-7.81-9.77-12.5-1.02-2.35-1.74-4.76-2.17-7.16-.22-1.2-.37-2.4-.41-3.58-.03-.59-.06-1.18-.1-1.77-.03-.58.04-1.16.05-1.74.19-4.61,1.38-8.88,3.14-12.5,1.75-3.63,4.06-6.62,6.45-8.98,2.37-2.41,4.98-4.02,7.26-5.32,2.35-1.21,4.47-2.01,6.23-2.49.89-.22,1.67-.42,2.35-.59.69-.1,1.27-.19,1.75-.26.46-.06.81-.11,1.07-.15.24-.03.36-.04.36-.04,0,0-.12.03-.36.08-.26.05-.61.11-1.06.19-.47.08-1.05.18-1.74.29-.68.18-1.46.39-2.33.63-1.75.5-3.85,1.32-6.16,2.54-2.25,1.31-4.83,2.93-7.16,5.33-2.36,2.36-4.62,5.33-6.33,8.92-1.72,3.59-2.88,7.8-3.05,12.35-.01.57-.08,1.14-.05,1.72.03.58.07,1.16.1,1.74.04,1.17.19,2.35.42,3.53.43,2.36,1.15,4.74,2.16,7.05,2.04,4.62,5.32,8.94,9.65,12.29l.12.1-.03.15c-1.07,4.78-2.17,9.76-3.32,14.9l-.39-.27c4.81-3,9.78-6.1,14.84-9.26l.09-.06.11.03c.47.12.94.23,1.41.33,3.68.75,7.47.9,11.08.28,3.62-.53,7.12-1.63,10.24-3.34,6.24-3.38,11.14-8.67,13.8-14.63,1.36-2.96,2.31-6.04,2.65-9.12.05-.38.12-.76.16-1.14l.05-1.15c.02-.76.1-1.52.07-2.27-.09-1.5-.1-2.98-.39-4.41-.37-2.89-1.29-5.57-2.33-8.05-.61-1.2-1.12-2.43-1.85-3.5-.34-.55-.67-1.1-1.02-1.63-.38-.5-.76-1-1.14-1.49-3.03-3.92-6.67-6.7-10.14-8.54-3.48-1.87-6.81-2.73-9.52-3.23-.68-.1-1.33-.2-1.94-.3-.61-.07-1.19-.07-1.72-.11-.53-.03-1.02-.06-1.48-.08-.45-.02-.86.03-1.22.04-.72.03-1.27.05-1.66.07-.38.01-.57,0-.57,0Z"/>
      <g>
        <polygon class="cls-7" points="91.88 17.65 88.08 46.52 116.3 46.52 112.19 17.65 91.88 17.65"/>
        <path class="cls-12" d="M109.9,21.84s0,.31-.15.84c-.16.52-.46,1.27-1.01,2.09-.55.82-1.37,1.71-2.52,2.37-1.14.66-2.6,1.04-4.1,1.03-1.51.02-2.97-.31-4.13-.95-1.17-.63-1.98-1.56-2.5-2.4-.52-.84-.78-1.61-.91-2.13-.13-.53-.14-.84-.1-.84.08-.03.26,1.2,1.32,2.78.53.77,1.32,1.61,2.42,2.18,1.09.58,2.45.86,3.89.85,1.44,0,2.8-.33,3.88-.93,1.09-.59,1.89-1.4,2.45-2.16,1.12-1.54,1.38-2.74,1.46-2.71Z"/>
      </g>
    </g>
  </g>
</svg>